<svg width="32" height="32" viewBox="0 0 32 32" fill="none" xmlns="http://www.w3.org/2000/svg">
<g clip-path="url(#clip0_328_22933)">
<g clip-path="url(#clip1_328_22933)">
<g clip-path="url(#clip2_328_22933)">
<g clip-path="url(#clip3_328_22933)">
<path d="M0 0H32V32H0V0Z" fill="#E41E20"/>
<path d="M12.8056 6.22089C12.4944 6.21564 11.9781 6.32008 11.9896 6.55889C11.1229 6.41039 11.0327 6.76827 11.0836 7.08689C11.1661 6.96045 11.2664 6.89189 11.3436 6.87889C11.4592 6.8597 11.5801 6.89702 11.7036 6.97289C11.8271 7.0487 11.9631 7.17102 12.0236 7.24683C11.7177 7.31995 11.4814 7.27277 11.2416 7.23083C11.1234 7.2102 10.9579 7.14364 10.8596 7.07483C10.7612 7.00608 10.7302 6.94127 10.5756 6.78295C10.3932 6.59608 10.1991 6.6487 10.2596 6.93889C10.3994 7.20839 10.6331 7.32858 10.9276 7.37689C11.0693 7.40014 11.2804 7.45064 11.5196 7.45089C11.7588 7.45114 12.0274 7.41633 12.1736 7.44689C12.0858 7.50202 11.9864 7.59702 11.7896 7.63489C11.5894 7.67345 11.2851 7.51589 11.0996 7.47302C11.1231 7.62902 11.32 7.77489 11.7076 7.85095C12.3444 7.9897 12.8737 8.09502 13.2236 8.28495C13.5734 8.47495 13.7941 8.7127 13.9516 8.89902C14.2651 9.26977 14.2816 9.55439 14.3016 9.61702C14.3661 10.2094 14.1596 10.5426 13.7756 10.645C13.5837 10.6963 13.2426 10.5998 13.1176 10.4531C12.9926 10.3063 12.8709 10.0541 12.9056 9.65908C12.9393 9.50408 13.1165 9.10045 12.9656 9.01708C12.2704 8.63289 11.4263 8.24433 10.8156 8.01308C10.6487 7.94983 10.5112 8.1767 10.4576 8.26495C9.42006 8.1387 8.48469 7.43658 8.06356 6.68902C7.77681 6.17989 7.30419 6.69008 7.38356 7.17102C7.51187 7.70789 7.92087 8.09602 8.41156 8.37102C8.91531 8.64833 9.54469 8.9212 10.1816 8.90702C10.5247 8.97202 10.5213 9.41577 10.1096 9.49902C9.30444 9.50414 8.66206 9.48402 8.05556 8.89902C7.59556 8.47902 7.33662 8.97945 7.46956 9.26302C7.69494 10.1371 8.94206 10.3819 10.2036 10.099C10.6921 10.0181 10.3996 10.5416 10.2616 10.547C9.73444 10.925 8.79069 11.2948 7.95956 10.543C7.57925 10.2517 7.32206 10.4965 7.46356 10.9169C7.83231 12.0131 9.24294 11.7828 10.2116 11.2429C10.4609 11.1039 10.6872 11.4273 10.3836 11.6729C9.17906 12.5145 8.57688 12.524 8.03356 12.2008C7.35344 11.9326 7.29356 12.6871 7.69756 12.9348C8.14662 13.2105 9.28925 13.0038 10.1276 12.4769C10.4869 12.2097 10.5032 12.6275 10.2756 12.7929C9.28075 13.6526 8.88869 13.879 7.85156 13.7388C7.33731 13.6988 7.34506 14.3328 7.74956 14.5808C8.30187 14.9196 9.3805 14.3573 10.2176 13.6628C10.5699 13.4745 10.6278 13.7833 10.4536 14.1488C9.94206 14.7942 9.46206 15.1747 8.99956 15.3509C8.53706 15.5271 8.09237 15.499 7.77756 15.3909C7.39356 15.259 7.34544 15.658 7.55756 16.0209C7.6855 16.2396 8.2155 16.3096 8.78756 16.1069C9.35969 15.9041 9.97381 15.4283 10.3956 14.8709C10.7624 14.5496 10.7168 14.9812 10.5496 15.2849C9.70519 16.6199 8.93281 17.1151 7.91556 17.031C7.46456 16.9543 7.36212 17.3051 7.64956 17.629C8.15437 18.0476 8.78556 18.0345 9.33756 17.621C9.82838 17.1478 10.7672 16.1289 11.2596 15.5828C11.6066 15.3063 11.7174 15.5791 11.6156 16.141C11.5231 16.4627 11.2912 16.8016 10.6596 17.0489C10.2281 17.2951 10.5521 17.6346 10.8756 17.6409C11.0536 17.6444 11.4151 17.4363 11.6916 17.125C12.0553 16.7153 12.077 16.4403 12.2776 15.8031C12.4671 15.4923 12.8056 15.6373 12.8056 15.9631C12.6432 16.6014 12.5037 16.7159 12.1756 16.977C11.8617 17.2717 12.3942 17.37 12.5736 17.249C13.0926 16.8991 13.2821 16.4465 13.4556 16.035C13.5807 15.738 13.9439 15.882 13.7756 16.3671C13.3733 17.5263 12.7122 17.9827 11.5556 18.2171C11.4384 18.2379 11.3668 18.3071 11.4076 18.4431C11.5628 18.6041 11.7184 18.7504 11.8736 18.911C11.1584 19.1191 10.5773 19.2362 9.86156 19.445C9.51044 19.2148 9.22675 19.0195 8.87556 18.7891C8.78306 18.5726 8.73981 18.2422 8.22156 18.4751C7.87044 18.313 7.70844 18.3725 7.51356 18.5351C7.79481 18.5457 7.91731 18.621 8.02756 18.7491C8.17156 19.1284 8.50369 19.1651 8.84356 19.0571C9.06469 19.2434 9.1825 19.3863 9.40356 19.5731C8.99081 19.559 8.70325 19.5516 8.29156 19.5391C7.89856 19.1172 7.58487 19.1402 7.30356 19.4711C7.08919 19.504 6.99831 19.5086 6.85156 19.7691C7.08231 19.6744 7.22744 19.646 7.32756 19.7491C7.74544 19.9913 8.01837 19.9372 8.22556 19.7491C8.62869 19.7738 8.99194 19.7947 9.39556 19.8211C9.24731 19.9471 9.04381 20.014 8.89556 20.1411C8.29012 19.968 7.97412 20.2011 7.86756 20.6951C7.78644 20.8945 7.74844 21.0998 7.78356 21.3131C7.84219 21.118 7.93637 20.9503 8.10956 20.8451C8.64925 20.9822 8.85206 20.7619 8.88156 20.4391C9.14169 20.2269 9.53394 20.1801 9.79356 19.9651C10.0971 20.0623 10.2439 20.1225 10.5496 20.2191C10.6583 20.5494 10.9042 20.6802 11.3036 20.5951C11.7789 20.61 11.6951 20.8051 11.7336 20.9611C11.8599 20.737 11.8564 20.5191 11.5636 20.3211C11.4571 20.0318 11.2211 19.9 10.9116 20.0671C10.6203 19.9845 10.5437 19.8656 10.2536 19.7831C10.9876 19.5492 11.5082 19.4965 12.2416 19.2631C12.4252 19.4363 12.5706 19.5606 12.7556 19.7151C12.8531 19.7733 12.9463 19.788 13.0036 19.7151C13.4631 19.05 13.6684 18.4637 14.0956 18.0251C14.2587 17.8436 14.4649 17.5988 14.6936 17.5391C14.8079 17.5093 14.9481 17.5275 15.0376 17.6251C15.1271 17.7228 15.1974 17.9026 15.1676 18.1711C15.1248 18.5565 15.0317 18.6781 14.9236 18.9091C14.8154 19.1401 14.6834 19.2823 14.5476 19.4591C14.276 19.8129 13.9177 20.0188 13.7056 20.1571C13.2814 20.4337 13.102 20.3126 12.7736 20.2951C12.3491 20.3428 12.2361 20.5496 12.5836 20.8351C12.9084 21.0041 13.2003 21.0251 13.4376 20.9811C13.6413 20.9435 13.8797 20.6805 14.0496 20.5391C14.2408 20.3183 14.5578 20.5803 14.3416 20.8371C13.9487 21.304 13.5561 21.6118 13.0716 21.6051C12.5625 21.6738 12.6577 21.9598 12.9956 22.0992C13.6037 22.3502 14.1527 21.8801 14.4316 21.5712C14.6467 21.3358 14.7997 21.3266 14.7616 21.6912C14.5479 22.3513 14.2561 22.6062 13.7796 22.6392C13.3931 22.6033 13.3889 22.9017 13.6716 23.1032C14.3154 23.5488 14.7817 22.7899 14.9996 22.3311C15.1548 21.9174 15.3929 22.1141 15.4176 22.4551C15.4208 22.9109 15.2149 23.2829 14.6636 23.7492C15.0854 24.4213 15.5772 25.105 15.9996 25.7792L17.2799 11.5196L15.9999 9.2667C15.8666 9.14358 15.4157 8.61245 15.298 8.5387C15.2549 8.49283 15.2288 8.46039 15.2919 8.4367C15.3529 8.41383 15.4958 8.3882 15.5919 8.3707C15.3204 8.0987 15.0878 8.01152 14.5738 7.8627C14.6991 7.80933 14.8209 7.84039 15.1899 7.8227C15.0434 7.61477 14.7163 7.29633 14.2939 7.1427C14.5728 6.94439 14.6271 6.93108 14.9039 6.6987C14.4247 6.6647 14.0155 6.57339 13.6039 6.4487C13.3436 6.32695 12.982 6.2237 12.8057 6.2207L12.8056 6.22089ZM12.8516 6.77889C13.1047 6.77889 13.2616 6.86577 13.2616 6.97089C13.2616 7.07795 13.1047 7.16489 12.8516 7.16489C12.5994 7.16489 12.4396 7.07008 12.4396 6.96302C12.4396 6.85777 12.5995 6.77895 12.8517 6.77895L12.8516 6.77889Z" fill="black"/>
<path d="M19.1944 6.22089C19.5056 6.21564 20.0219 6.32008 20.0104 6.55889C20.8771 6.41039 20.9673 6.76827 20.9164 7.08689C20.8339 6.96045 20.7336 6.89189 20.6564 6.87889C20.5408 6.8597 20.4199 6.89702 20.2964 6.97289C20.1729 7.0487 20.0369 7.17102 19.9764 7.24683C20.2823 7.31995 20.5186 7.27277 20.7584 7.23083C20.8766 7.2102 21.0421 7.14364 21.1404 7.07483C21.2388 7.00608 21.2698 6.94127 21.4244 6.78295C21.6068 6.59608 21.8009 6.6487 21.7404 6.93889C21.6006 7.20839 21.3669 7.32858 21.0724 7.37689C20.9307 7.40014 20.7196 7.45064 20.4804 7.45089C20.2412 7.45114 19.9726 7.41633 19.8264 7.44689C19.9142 7.50202 20.0136 7.59702 20.2104 7.63489C20.4106 7.67345 20.7149 7.51589 20.9004 7.47302C20.8769 7.62902 20.68 7.77489 20.2924 7.85095C19.6556 7.9897 19.1263 8.09502 18.7764 8.28495C18.4266 8.47495 18.2059 8.7127 18.0484 8.89902C17.7349 9.26977 17.7184 9.55439 17.6984 9.61702C17.6339 10.2094 17.8404 10.5426 18.2244 10.645C18.4163 10.6963 18.7574 10.5998 18.8824 10.4531C19.0074 10.3063 19.1291 10.0541 19.0944 9.65908C19.0607 9.50408 18.8835 9.10045 19.0344 9.01708C19.7296 8.63289 20.5737 8.24433 21.1844 8.01308C21.3513 7.94983 21.4888 8.1767 21.5424 8.26495C22.5799 8.1387 23.5153 7.43658 23.9364 6.68902C24.2232 6.17989 24.6958 6.69008 24.6164 7.17102C24.4881 7.70789 24.0791 8.09602 23.5884 8.37102C23.0847 8.64833 22.4553 8.9212 21.8184 8.90702C21.4753 8.97202 21.4787 9.41577 21.8904 9.49902C22.6956 9.50414 23.3379 9.48402 23.9444 8.89902C24.4044 8.47902 24.6634 8.97945 24.5304 9.26302C24.3051 10.1371 23.0579 10.3819 21.7964 10.099C21.3079 10.0181 21.6004 10.5416 21.7384 10.547C22.2656 10.925 23.2093 11.2948 24.0404 10.543C24.4208 10.2517 24.6779 10.4965 24.5364 10.9169C24.1677 12.0131 22.7571 11.7828 21.7884 11.2429C21.5391 11.1039 21.3128 11.4273 21.6164 11.6729C22.8209 12.5145 23.4231 12.524 23.9664 12.2008C24.6466 11.9326 24.7064 12.6871 24.3024 12.9348C23.8534 13.2105 22.7108 13.0038 21.8724 12.4769C21.5131 12.2097 21.4968 12.6275 21.7244 12.7929C22.7193 13.6526 23.1113 13.879 24.1484 13.7388C24.6627 13.6988 24.6549 14.3328 24.2504 14.5808C23.6981 14.9196 22.6195 14.3573 21.7824 13.6628C21.4301 13.4745 21.3722 13.7833 21.5464 14.1488C22.0579 14.7942 22.5379 15.1747 23.0004 15.3509C23.4629 15.5271 23.9076 15.499 24.2224 15.3909C24.6064 15.259 24.6546 15.658 24.4424 16.0209C24.3145 16.2396 23.7845 16.3096 23.2124 16.1069C22.6403 15.9041 22.0262 15.4283 21.6044 14.8709C21.2376 14.5496 21.2832 14.9812 21.4504 15.2849C22.2948 16.6199 23.0672 17.1151 24.0844 17.031C24.5354 16.9543 24.6379 17.3051 24.3504 17.629C23.8456 18.0476 23.2144 18.0345 22.6624 17.621C22.1716 17.1478 21.2328 16.1289 20.7404 15.5828C20.3934 15.3063 20.2826 15.5791 20.3844 16.141C20.4769 16.4627 20.7088 16.8016 21.3404 17.0489C21.7719 17.2951 21.4479 17.6346 21.1244 17.6409C20.9464 17.6444 20.5849 17.4363 20.3084 17.125C19.9447 16.7153 19.923 16.4403 19.7224 15.8031C19.5329 15.4923 19.1944 15.6373 19.1944 15.9631C19.3568 16.6014 19.4963 16.7159 19.8244 16.977C20.1383 17.2717 19.6058 17.37 19.4264 17.249C18.9074 16.8991 18.7179 16.4465 18.5444 16.035C18.4193 15.738 18.0561 15.882 18.2244 16.3671C18.6267 17.5263 19.2878 17.9827 20.4444 18.2171C20.5616 18.2379 20.6332 18.3071 20.5924 18.4431C20.4372 18.6041 20.2816 18.7504 20.1264 18.911C20.8416 19.1191 21.4227 19.2362 22.1384 19.445C22.4896 19.2148 22.7732 19.0195 23.1244 18.7891C23.2169 18.5726 23.2602 18.2422 23.7784 18.4751C24.1296 18.313 24.2916 18.3725 24.4864 18.5351C24.2052 18.5457 24.0827 18.621 23.9724 18.7491C23.8284 19.1284 23.4963 19.1651 23.1564 19.0571C22.9353 19.2434 22.8175 19.3863 22.5964 19.5731C23.0092 19.559 23.2968 19.5516 23.7084 19.5391C24.1014 19.1172 24.4151 19.1402 24.6964 19.4711C24.9108 19.504 25.0017 19.5086 25.1484 19.7691C24.9177 19.6744 24.7726 19.646 24.6724 19.7491C24.2546 19.9913 23.9816 19.9372 23.7744 19.7491C23.3713 19.7738 23.0081 19.7947 22.6044 19.8211C22.7527 19.9471 22.9562 20.014 23.1044 20.1411C23.7099 19.968 24.0259 20.2011 24.1324 20.6951C24.2136 20.8945 24.2516 21.0998 24.2164 21.3131C24.1578 21.118 24.0636 20.9503 23.8904 20.8451C23.3508 20.9822 23.1479 20.7619 23.1184 20.4391C22.8583 20.2269 22.4661 20.1801 22.2064 19.9651C21.9029 20.0623 21.7561 20.1225 21.4504 20.2191C21.3417 20.5494 21.0958 20.6802 20.6964 20.5951C20.2211 20.61 20.3049 20.8051 20.2664 20.9611C20.1401 20.737 20.1436 20.5191 20.4364 20.3211C20.5429 20.0318 20.7789 19.9 21.0884 20.0671C21.3797 19.9845 21.4563 19.8656 21.7464 19.7831C21.0124 19.5492 20.4918 19.4965 19.7584 19.2631C19.5748 19.4363 19.4294 19.5606 19.2444 19.7151C19.1469 19.7733 19.0537 19.788 18.9964 19.7151C18.5369 19.05 18.3316 18.4637 17.9044 18.0251C17.7413 17.8436 17.5351 17.5988 17.3064 17.5391C17.1921 17.5093 17.0519 17.5275 16.9624 17.6251C16.8729 17.7228 16.8026 17.9026 16.8324 18.1711C16.8752 18.5565 16.9683 18.6781 17.0764 18.9091C17.1846 19.1401 17.3166 19.2823 17.4524 19.4591C17.724 19.8129 18.0823 20.0188 18.2944 20.1571C18.7186 20.4337 18.898 20.3126 19.2264 20.2951C19.6509 20.3428 19.7639 20.5496 19.4164 20.8351C19.0916 21.0041 18.7997 21.0251 18.5624 20.9811C18.3587 20.9435 18.1203 20.6805 17.9504 20.5391C17.7592 20.3183 17.4422 20.5803 17.6584 20.8371C18.0513 21.304 18.4439 21.6118 18.9284 21.6051C19.4375 21.6738 19.3423 21.9598 19.0044 22.0992C18.3963 22.3502 17.8473 21.8801 17.5684 21.5712C17.3533 21.3358 17.2003 21.3266 17.2384 21.6912C17.4521 22.3513 17.7439 22.6062 18.2204 22.6392C18.6069 22.6033 18.6111 22.9017 18.3284 23.1032C17.6846 23.5488 17.2183 22.7899 17.0004 22.3311C16.8452 21.9174 16.6071 22.1141 16.5824 22.4551C16.5792 22.9109 16.7851 23.2829 17.3364 23.7492C16.9146 24.4213 16.4228 25.105 16.0004 25.7792L14.7201 11.5196L16.0001 9.2667C16.1334 9.14358 16.5843 8.61245 16.702 8.5387C16.7451 8.49283 16.7712 8.46039 16.7081 8.4367C16.6471 8.41383 16.5042 8.3882 16.4081 8.3707C16.6796 8.0987 16.9122 8.01152 17.4262 7.8627C17.3009 7.80933 17.1791 7.84039 16.8101 7.8227C16.9566 7.61477 17.2837 7.29633 17.7061 7.1427C17.4272 6.94439 17.3729 6.93108 17.0961 6.6987C17.5753 6.6647 17.9845 6.57339 18.3961 6.4487C18.6564 6.32695 19.018 6.2237 19.1943 6.2207L19.1944 6.22089ZM19.1484 6.77889C18.8953 6.77889 18.7384 6.86577 18.7384 6.97089C18.7384 7.07795 18.8953 7.16489 19.1484 7.16489C19.4006 7.16489 19.5604 7.07008 19.5604 6.96302C19.5604 6.85777 19.4005 6.77895 19.1483 6.77895L19.1484 6.77889Z" fill="black"/>
</g>
</g>
</g>
<rect x="-0.5" y="0.5" width="33" height="33" rx="16.5" stroke="black" stroke-opacity="0.04"/>
</g>
<defs>
<clipPath id="clip0_328_22933">
<rect width="32" height="32" rx="16" fill="white"/>
</clipPath>
<clipPath id="clip1_328_22933">
<rect width="32" height="32" fill="white"/>
</clipPath>
<clipPath id="clip2_328_22933">
<rect width="32" height="32" fill="white"/>
</clipPath>
<clipPath id="clip3_328_22933">
<rect width="32" height="32" fill="white"/>
</clipPath>
</defs>
</svg>
