<svg width="32" height="32" viewBox="0 0 32 32" fill="none" xmlns="http://www.w3.org/2000/svg">
<g clip-path="url(#clip0_328_26550)">
<g clip-path="url(#clip1_328_26550)">
<g clip-path="url(#clip2_328_26550)">
<g clip-path="url(#clip3_328_26550)">
<path d="M0 21.334H32V32.0007H0V21.334Z" fill="black"/>
<path d="M0 10.666H32V21.3327H0V10.666Z" fill="white"/>
<path d="M0 0H32V10.6667H0V0Z" fill="#CE1126"/>
<path d="M16.0432 16.1266L19.6959 19.5175L19.4358 13.3591C19.3976 12.4258 18.5865 12.6399 17.9974 12.9766C17.4005 13.3591 16.7196 13.3591 16.0002 13.1066C15.281 13.3591 14.6001 13.3591 14.0032 12.9766C13.4142 12.6399 12.6032 12.4258 12.5648 13.3591L12.3047 19.5175L16.0432 16.1266L16.0432 16.1266Z" fill="white" stroke="#C09300" stroke-width="0.0677331" stroke-linejoin="round"/>
<path d="M12.9847 13.1445L12.7322 19.1349L12.3037 19.5172L12.564 13.3588C12.6863 13.2747 12.9007 13.1446 12.9848 13.1446L12.9847 13.1445ZM13.4978 13.5733L13.2835 18.5842L12.8552 19.0226L13.1153 13.2365C13.1996 13.3206 13.4521 13.5272 13.4978 13.5731L13.4978 13.5733ZM13.9645 13.9557L13.7962 18.135L13.4519 18.4716L13.6662 13.7032C13.7502 13.7874 13.9185 13.9099 13.9645 13.9557ZM14.4695 14.1701L14.3012 17.7321L13.9645 18.0052L14.1329 14.0401C14.2171 14.0783 14.3854 14.1701 14.4696 14.1701H14.4695ZM14.9362 14.1701L14.8137 17.1385L14.4694 17.4752L14.5995 14.2084C14.6835 14.2084 14.8978 14.2084 14.9362 14.1701Z" fill="#C09300"/>
<path d="M19.0143 13.1445L19.2668 19.1349L19.6953 19.5172L19.435 13.3588C19.3127 13.2747 19.0984 13.1446 19.0142 13.1446L19.0143 13.1445ZM18.5012 13.5733L18.7155 18.5842L19.1438 19.0226L18.8837 13.2365C18.7994 13.3206 18.5469 13.5272 18.5012 13.5731L18.5012 13.5733ZM18.0346 13.9557L18.2028 18.135L18.5471 18.4716L18.3328 13.7032C18.2489 13.7874 18.0805 13.9099 18.0346 13.9557ZM17.5295 14.1701L17.6978 17.7321L18.0345 18.0052L17.8661 14.0401C17.7819 14.0783 17.6136 14.1701 17.5295 14.1701H17.5295ZM17.0628 14.1701L17.1853 17.1385L17.5296 17.4752L17.3995 14.2084C17.3155 14.2084 17.1012 14.2084 17.0628 14.1701Z" fill="#C09300"/>
<path d="M16.1678 16.8027L16.6805 19.1363L16.5121 19.3046L16.3361 19.1745L16.0454 17.0936L16.1677 19.1745L15.9994 19.3888L15.831 19.1746L15.9534 17.0937L15.6628 19.1746L15.4866 19.3048L15.3184 19.1365L15.8309 16.8029H16.1677L16.1678 16.8027Z" fill="#C09300" stroke="#C09300" stroke-width="0.0572798"/>
<path d="M14.8516 15.7774L13.834 19.3883L15.2342 19.6026L15.8309 16.8867L14.8516 15.7773V15.7774Z" fill="white" stroke="#C09300" stroke-width="0.0634131" stroke-linejoin="round"/>
<path d="M14.5146 17.0094L14.6371 17.3077L15.2987 16.6758" stroke="#C09300" stroke-width="0.0677331" stroke-linejoin="round"/>
<path d="M14.973 16.2617L15.1114 17.5602L15.5322 17.0093M15.3639 17.2233L15.5938 18.0166M15.6839 17.7252L15.2189 18.4313M15.364 19.1362L15.2152 18.4323L15.0852 17.7164L14.7738 18.1382L14.6371 17.6518L14.2012 18.099L14.4228 18.9125L14.7289 18.4093L14.8971 18.9219L15.2112 18.4332" stroke="#C09300" stroke-width="0.0677331" stroke-linejoin="round"/>
<path d="M14.1318 19.3052L14.4145 18.9082L14.5986 19.5192L14.8511 19.0909L15.0195 19.6037" stroke="#C09300" stroke-width="0.0677331" stroke-linejoin="round"/>
<path d="M17.1474 15.7774L18.165 19.3883L16.7648 19.6026L16.1681 16.8867L17.1474 15.7773V15.7774Z" fill="white" stroke="#C09300" stroke-width="0.0634131" stroke-linejoin="round"/>
<path d="M17.4844 17.0094L17.3619 17.3077L16.7003 16.6758" stroke="#C09300" stroke-width="0.0677331" stroke-linejoin="round"/>
<path d="M17.0261 16.2617L16.8876 17.5602L16.4668 17.0093M16.6351 17.2233L16.4053 18.0166M16.3151 17.7252L16.7801 18.4313M16.635 19.1362L16.7838 18.4323L16.9138 17.7164L17.2253 18.1382L17.3619 17.6518L17.7979 18.099L17.5762 18.9125L17.2702 18.4093L17.1019 18.9219L16.7878 18.4332" stroke="#C09300" stroke-width="0.0677331" stroke-linejoin="round"/>
<path d="M17.8672 19.3052L17.5845 18.9082L17.4004 19.5192L17.1479 19.0909L16.9795 19.6037" stroke="#C09300" stroke-width="0.0677331" stroke-linejoin="round"/>
<path d="M15.9993 21.0016C17.0629 21.0016 18.0806 20.9174 18.6773 20.7491C18.9298 20.7032 18.9298 20.5732 18.9298 20.4048C19.1824 20.3207 19.0522 20.0224 19.2282 20.0224C19.0522 20.0685 19.0141 19.7241 18.7998 19.7702C18.7998 19.4716 18.5014 19.4334 18.2489 19.5174C17.7438 19.6859 16.8486 19.7241 15.9993 19.7241C15.15 19.6859 14.2624 19.6859 13.7497 19.5174C13.4973 19.4335 13.199 19.4717 13.199 19.7702C12.9847 19.7241 12.9464 20.0685 12.7705 20.0225C12.9465 20.0225 12.8164 20.3208 13.0689 20.4049C13.0689 20.5733 13.0689 20.7034 13.329 20.7492C13.9181 20.9175 14.9358 21.0017 15.9993 21.0017V21.0016Z" fill="white" stroke="#C09300" stroke-width="0.126826" stroke-linecap="round" stroke-linejoin="round"/>
<path d="M14.5534 19.388C14.8976 19.4339 15.2802 19.4722 15.5787 19.4339C15.7469 19.4339 15.8694 19.7246 15.5327 19.7706C15.2344 19.8087 14.7676 19.7706 14.5151 19.7246C14.3009 19.6863 13.8341 19.6022 13.5357 19.5179C13.2373 19.388 13.4516 19.1356 13.6199 19.1738C13.8801 19.2579 14.2167 19.3422 14.5534 19.388ZM17.4456 19.388C17.1013 19.4339 16.7188 19.4722 16.4281 19.4339C16.2519 19.4339 16.1295 19.7246 16.4662 19.7706C16.7647 19.8087 17.2314 19.7706 17.4837 19.7246C17.6981 19.6863 18.1648 19.6022 18.4631 19.5179C18.7616 19.388 18.5474 19.1356 18.379 19.1738C18.1189 19.2579 17.7822 19.3422 17.4457 19.388H17.4456Z" fill="white" stroke="#C09300" stroke-width="0.0677331" stroke-linecap="round" stroke-linejoin="round"/>
<path d="M13.4975 19.2196C13.2374 19.1737 13.115 19.472 13.1992 19.6402C13.2374 19.5561 13.4134 19.5561 13.4517 19.472C13.4975 19.342 13.4134 19.342 13.4975 19.2196ZM14.5151 20.002C14.5151 19.8338 14.6834 19.8545 14.6834 19.6862C14.6834 19.602 14.6375 19.4718 14.5534 19.4718C14.4691 19.4718 14.385 19.5561 14.385 19.6402C14.3467 19.8085 14.5151 19.8338 14.5151 20.0019V20.002ZM15.7263 19.5177C15.9786 19.5177 15.9536 19.8545 15.8311 20.0228C15.8311 19.9004 15.6169 19.8545 15.6169 19.7704C15.6169 19.6402 15.8102 19.6402 15.7262 19.5177H15.7263ZM18.5012 19.2196C18.7614 19.1737 18.8838 19.472 18.7996 19.6402C18.7613 19.5561 18.5854 19.5561 18.5471 19.472C18.5013 19.342 18.5855 19.342 18.5013 19.2196H18.5012ZM17.4836 20.002C17.4836 19.8338 17.3155 19.8545 17.3155 19.6862C17.3155 19.602 17.3613 19.4718 17.4455 19.4718C17.5296 19.4718 17.6138 19.5561 17.6138 19.6402C17.6522 19.8085 17.4837 19.8338 17.4837 20.0019L17.4836 20.002ZM16.2724 19.5177C16.0201 19.5177 16.0451 19.8545 16.1675 20.0228C16.1675 19.9004 16.3817 19.8545 16.3817 19.7704C16.3817 19.6402 16.1883 19.6402 16.2724 19.5177Z" fill="white" stroke="#C09300" stroke-width="0.0677331" stroke-linecap="round" stroke-linejoin="round"/>
<path d="M13.5813 19.3048C13.6656 19.3048 13.7956 19.3431 13.8339 19.389L13.5811 19.3047L13.5813 19.3048ZM14.0016 19.435C14.0476 19.435 14.2159 19.4732 14.3 19.519L14.0014 19.4347L14.0016 19.435ZM15.5322 19.603C15.4481 19.603 15.2798 19.603 15.234 19.6411L15.5321 19.6027L15.5322 19.603ZM15.0656 19.603C15.0197 19.557 14.8514 19.557 14.7673 19.603H15.0654H15.0656ZM18.417 19.3048C18.3329 19.3048 18.2104 19.3431 18.1645 19.389L18.417 19.3048ZM17.9962 19.435C17.9504 19.435 17.782 19.4732 17.6978 19.519L17.9965 19.4347L17.9962 19.435ZM16.4656 19.603C16.5498 19.603 16.7181 19.603 16.764 19.6411L16.4653 19.6027L16.4656 19.603ZM16.9322 19.603C16.9781 19.557 17.1465 19.557 17.2306 19.603H16.932H16.9322Z" fill="white" stroke="#C09300" stroke-width="0.0475198" stroke-linecap="round" stroke-linejoin="round"/>
<path d="M13.5107 19.9761C13.4822 19.9707 13.4672 19.9481 13.4744 19.9214C13.4832 19.8889 13.5091 19.8704 13.5338 19.8791C13.5494 19.8847 13.578 19.9135 13.5781 19.9239C13.5783 19.9357 13.5632 19.964 13.5567 19.9641C13.5539 19.9641 13.5495 19.9666 13.547 19.9695C13.5416 19.9758 13.525 19.9789 13.5107 19.9762V19.9761ZM16.4403 20.1852C16.4296 20.1812 16.4128 20.1575 16.4128 20.1466C16.4129 20.1259 16.4434 20.0923 16.4624 20.0922C16.4717 20.0921 16.4973 20.1053 16.5069 20.1153C16.5242 20.1332 16.5204 20.1628 16.4986 20.1796C16.488 20.1879 16.456 20.1909 16.4403 20.1851V20.1852ZM16.4595 20.3174C16.4371 20.3099 16.4289 20.2989 16.4271 20.274C16.4252 20.2482 16.4277 20.2442 16.4551 20.2292L16.4745 20.2186L16.493 20.2268C16.5185 20.2383 16.53 20.2506 16.5309 20.2678C16.5318 20.2863 16.5181 20.3053 16.4968 20.3149C16.478 20.3234 16.4768 20.3234 16.4594 20.3175L16.4595 20.3174Z" fill="#C09300"/>
<path d="M13.7458 19.7365C13.7274 19.736 13.7021 19.7529 13.6875 19.7616C13.6528 19.7696 13.6126 19.7909 13.5792 19.7682C13.5463 19.7581 13.5024 19.7661 13.4975 19.8065C13.5059 19.8413 13.5546 19.8612 13.5842 19.8382C13.606 19.8096 13.6658 19.7927 13.6724 19.8416C13.6481 19.8784 13.6508 19.9273 13.6308 19.9665C13.6275 19.9909 13.6174 20.0141 13.6042 20.0348C13.5795 20.0373 13.5532 20.0344 13.5324 20.0498C13.4991 20.0516 13.465 20.0682 13.4458 20.0965C13.4243 20.1273 13.4036 20.1586 13.3975 20.1965C13.4031 20.2352 13.4474 20.2462 13.4807 20.2482C13.5163 20.2579 13.5519 20.2708 13.5873 20.2815C13.6453 20.2944 13.6995 20.3153 13.7575 20.3281C13.8419 20.3536 13.9306 20.3653 14.0157 20.3881C14.0247 20.391 14.033 20.3936 14.0424 20.3947C14.0777 20.402 14.0961 20.3636 14.0991 20.3347C14.1167 20.2729 14.13 20.2099 14.1474 20.1481C14.1594 20.1232 14.1739 20.0671 14.1258 20.0797C14.0983 20.0961 14.075 20.1209 14.0408 20.123C13.9942 20.1257 14.0208 20.1734 14.0392 20.193C14.0432 20.2243 14.0333 20.2617 14.0125 20.2864C13.9848 20.304 13.95 20.2833 13.9208 20.2763C13.8902 20.2769 13.8289 20.2612 13.8575 20.2197C13.8676 20.1889 13.8686 20.1552 13.8808 20.1246C13.8966 20.092 13.8988 20.0562 13.9059 20.0214C13.8867 19.98 13.8536 20.035 13.8275 20.0397C13.8095 20.0522 13.7419 20.0576 13.7776 20.0897C13.8082 20.113 13.7847 20.1536 13.7792 20.183C13.7772 20.2241 13.7345 20.2339 13.7009 20.2246C13.6674 20.223 13.6209 20.1982 13.6491 20.1614C13.6556 20.1307 13.6664 20.1006 13.6726 20.0697C13.6852 20.0324 13.6959 19.997 13.7092 19.9597C13.7151 19.9266 13.7268 19.8953 13.7425 19.8664C13.7435 19.8298 13.768 19.7983 13.7676 19.7613C13.765 19.7433 13.7569 19.7368 13.7459 19.7363L13.7458 19.7365ZM13.5542 20.1232C13.5581 20.1225 13.5623 20.123 13.5659 20.1248C13.5792 20.1305 13.5795 20.1413 13.5659 20.1532C13.5599 20.1584 13.5531 20.1633 13.5508 20.1632C13.5259 20.1611 13.5185 20.1573 13.5175 20.1483C13.5164 20.1402 13.5191 20.1378 13.5358 20.1299C13.5416 20.1269 13.5477 20.1246 13.5541 20.1232H13.5542ZM13.4989 20.3909C13.4724 20.3661 13.4767 20.348 13.5158 20.3188C13.5326 20.3063 13.5427 20.3077 13.5618 20.3252C13.5913 20.3521 13.5925 20.3691 13.5665 20.3921C13.5537 20.4035 13.548 20.4058 13.533 20.406C13.5174 20.4061 13.513 20.4042 13.4989 20.3909ZM13.6616 20.44C13.6555 20.4386 13.6497 20.4359 13.6447 20.4321C13.6397 20.4284 13.6355 20.4236 13.6324 20.4182C13.6293 20.4127 13.6273 20.4067 13.6266 20.4005C13.6259 20.3943 13.6265 20.388 13.6283 20.382C13.6353 20.3588 13.6392 20.3565 13.6731 20.3562C13.7113 20.3558 13.7187 20.3621 13.719 20.3957C13.7193 20.4146 13.7178 20.419 13.7083 20.4277C13.7019 20.433 13.6944 20.4369 13.6863 20.439C13.6782 20.4411 13.6698 20.4415 13.6616 20.44V20.44ZM18.4141 20.4443C18.402 20.4341 18.3995 20.4297 18.3994 20.4168C18.3993 20.3949 18.4118 20.3788 18.4392 20.3665C18.4756 20.3501 18.4904 20.3523 18.5041 20.3764C18.5223 20.4084 18.5214 20.4216 18.4996 20.4432C18.4876 20.4551 18.4853 20.4558 18.4578 20.456C18.4307 20.4562 18.4276 20.4555 18.4141 20.4443H18.4141ZM13.8776 20.5056C13.8582 20.5004 13.8481 20.4859 13.8479 20.4626C13.8476 20.4448 13.8489 20.4419 13.8614 20.4322C13.8695 20.4259 13.8822 20.4204 13.8923 20.4191C13.9065 20.4171 13.9116 20.4184 13.9231 20.4265C13.9524 20.4471 13.9587 20.4675 13.9418 20.4873C13.9236 20.5084 13.9064 20.5133 13.8776 20.5056ZM15.0466 20.5579C15.0424 20.5525 15.0328 20.5493 15.0318 20.5426C15.0335 20.513 15.035 20.483 15.0444 20.4547C15.0495 20.4268 15.045 20.3976 15.0547 20.3704C15.0647 20.321 15.0647 20.2701 15.0762 20.221C15.0767 20.1956 15.0791 20.1703 15.0865 20.146C15.0948 20.1075 15.0872 20.0673 15.0985 20.0292C15.0973 20.0149 15.1137 19.9768 15.1282 19.9993C15.1491 20.0301 15.1767 20.0551 15.2039 20.0802C15.2273 20.0937 15.2058 20.1135 15.1897 20.1202C15.1675 20.1289 15.1621 20.1533 15.1637 20.1747C15.1607 20.1968 15.1517 20.2177 15.1508 20.2403C15.1462 20.2735 15.1471 20.3072 15.1428 20.3404C15.1331 20.3729 15.1368 20.4076 15.1336 20.4411C15.1341 20.4623 15.124 20.4816 15.1253 20.5029C15.1227 20.5246 15.1218 20.5506 15.1036 20.5654C15.086 20.5743 15.0607 20.5728 15.0466 20.5579ZM16.6306 20.0352C16.6049 20.0547 16.5819 20.0776 16.5589 20.1003C16.5274 20.1242 16.5849 20.1381 16.5923 20.1586C16.6007 20.1898 16.6003 20.2231 16.6024 20.2552C16.6119 20.2846 16.6161 20.3159 16.614 20.3469C16.6113 20.38 16.568 20.3731 16.549 20.3919C16.5227 20.4029 16.5122 20.4287 16.4923 20.4468C16.4792 20.4726 16.4756 20.5043 16.4739 20.5336C16.4758 20.5574 16.4578 20.5842 16.4739 20.6052C16.4761 20.6082 16.4785 20.6123 16.4806 20.6152C16.486 20.6229 16.4989 20.6168 16.5073 20.6186C16.5341 20.617 16.5622 20.6211 16.5873 20.6102C16.6518 20.5991 16.717 20.5982 16.7823 20.5953C16.8223 20.5965 16.8607 20.5826 16.9006 20.5835C16.9319 20.5905 16.9459 20.5566 16.9456 20.532C16.9279 20.4971 16.9432 20.4557 16.929 20.4203C16.9164 20.3843 16.9213 20.344 16.9156 20.3069C16.9148 20.2776 16.8778 20.2668 16.8589 20.2885C16.8408 20.3069 16.8114 20.3106 16.7973 20.3336C16.7815 20.3657 16.8308 20.3657 16.8389 20.3902C16.8484 20.415 16.8453 20.4425 16.8473 20.4686C16.8534 20.5002 16.819 20.5019 16.7973 20.5052C16.7687 20.5159 16.7285 20.5232 16.7123 20.4885C16.7022 20.4629 16.7036 20.4356 16.7007 20.4085C16.7 20.361 16.6886 20.3142 16.6858 20.2669C16.683 20.2084 16.6729 20.1502 16.6691 20.092C16.6685 20.0676 16.6652 20.028 16.6307 20.0352H16.6306ZM16.5973 20.4752L16.614 20.4768L16.6156 20.4969L16.6173 20.5169L16.5956 20.5236C16.5885 20.5257 16.5813 20.5274 16.5739 20.5286C16.5705 20.5265 16.5672 20.5243 16.564 20.5219C16.5522 20.5134 16.5552 20.5014 16.5706 20.4852C16.5793 20.4762 16.5834 20.4744 16.5973 20.4753V20.4752ZM14.9992 19.9803C14.9789 19.9875 14.9532 20.0172 14.9325 20.017C14.8856 20.0203 14.8921 20.066 14.9258 20.0819C14.9303 20.0958 14.9261 20.1133 14.9274 20.1286C14.934 20.1707 14.9075 20.2046 14.9125 20.247C14.9101 20.2934 14.8961 20.3386 14.8941 20.3853C14.881 20.4335 14.8808 20.483 14.8725 20.532C14.867 20.5759 14.8352 20.5604 14.8075 20.5486C14.8073 20.5297 14.8061 20.511 14.8059 20.492C14.8174 20.4484 14.7824 20.4357 14.7475 20.4304C14.711 20.4338 14.693 20.4025 14.7009 20.3704C14.7167 20.3517 14.7562 20.3568 14.7809 20.3537C14.8332 20.3645 14.8312 20.2944 14.8043 20.2704C14.7859 20.2364 14.7403 20.2218 14.7276 20.187C14.7327 20.1408 14.702 20.0946 14.6643 20.072C14.6062 20.0679 14.5623 20.118 14.5409 20.1669C14.5168 20.1739 14.4927 20.1812 14.4692 20.1903C14.4313 20.1997 14.3775 20.2653 14.4292 20.2903C14.4583 20.2983 14.5465 20.3185 14.5076 20.3586C14.4856 20.3963 14.4435 20.397 14.4059 20.3869C14.3673 20.3869 14.3243 20.3682 14.3259 20.3236C14.318 20.2836 14.3193 20.2405 14.3008 20.2036C14.293 20.1588 14.2422 20.1693 14.2392 20.2103C14.2001 20.2388 14.2053 20.2848 14.2326 20.3186C14.2496 20.3575 14.2327 20.4027 14.2159 20.4386C14.2057 20.4853 14.1543 20.4869 14.1176 20.5019C14.0994 20.509 14.0306 20.4978 14.0558 20.537C14.096 20.5512 14.144 20.564 14.1858 20.5537C14.2297 20.5482 14.2679 20.5182 14.2892 20.4803C14.3186 20.4505 14.3693 20.4661 14.4075 20.4654C14.4487 20.4652 14.4908 20.4942 14.5308 20.4753C14.5424 20.4453 14.5959 20.3956 14.6124 20.447C14.6096 20.4931 14.6503 20.5178 14.6924 20.5121C14.7385 20.5094 14.7215 20.5446 14.7207 20.5721C14.7238 20.6219 14.7559 20.6481 14.7975 20.6687C14.8116 20.6725 14.8265 20.6713 14.8407 20.6687C14.8807 20.6562 14.9236 20.6384 14.9357 20.5937C14.952 20.5574 14.9523 20.5164 14.9641 20.4787C14.9736 20.4185 14.9858 20.3582 14.9874 20.2971C15.0022 20.2416 14.998 20.1832 15.0091 20.127C15.0162 20.0853 15.0214 20.0437 15.0258 20.002C15.0209 19.9798 15.0113 19.9761 14.9992 19.9804V19.9803ZM14.6376 20.2019C14.6456 20.203 14.65 20.2128 14.6509 20.2302C14.6517 20.2497 14.6618 20.2655 14.6742 20.2686C14.6839 20.271 14.6831 20.2814 14.6726 20.2886C14.6664 20.2929 14.6554 20.2954 14.6359 20.2953C14.605 20.2952 14.5859 20.2872 14.5692 20.2702L14.5592 20.2603L14.5741 20.2503C14.5817 20.2445 14.5954 20.2326 14.6042 20.2236C14.6194 20.2082 14.6294 20.201 14.6375 20.202L14.6376 20.2019ZM18.1591 19.7819C18.1293 19.7834 18.0997 19.7878 18.0708 19.7952C18.0154 19.7917 17.9875 19.85 18.0408 19.8786C18.073 19.9604 18.123 19.8617 18.1741 19.8685C18.2509 19.8835 18.2573 19.9662 18.2692 20.0285C18.2735 20.0902 18.2913 20.1502 18.3092 20.2085C18.3605 20.2656 18.2708 20.3013 18.2325 20.2569C18.2 20.2214 18.1301 20.1779 18.0909 20.2269C18.0426 20.2473 18.0406 20.3117 18.0008 20.3302C17.9363 20.3499 17.9282 20.2706 17.8941 20.2369C17.8628 20.193 17.8029 20.1891 17.7541 20.1736C17.7312 20.1272 17.7432 20.0485 17.6958 20.0169C17.6561 20.0331 17.5831 20.1077 17.6442 20.1419C17.7037 20.1931 17.6181 20.2166 17.5908 20.252C17.5518 20.2954 17.5455 20.3552 17.5391 20.4102C17.472 20.4474 17.4589 20.3683 17.4508 20.3187C17.4455 20.2594 17.3955 20.2768 17.3607 20.2987C17.31 20.3192 17.2846 20.3675 17.2491 20.4053C17.2449 20.4398 17.2511 20.4777 17.2507 20.5136C17.2623 20.5569 17.3149 20.5365 17.3474 20.5337C17.3997 20.5118 17.421 20.5671 17.3792 20.5987C17.3508 20.6347 17.2608 20.6158 17.2691 20.6737C17.2981 20.677 17.3283 20.6759 17.3575 20.6737C17.4156 20.6577 17.478 20.6166 17.4841 20.552C17.4917 20.4954 17.573 20.5058 17.6174 20.4936C17.6729 20.4776 17.7398 20.4735 17.7524 20.5436C17.7902 20.5834 17.8724 20.6281 17.9141 20.5737C17.9565 20.5478 17.9768 20.5023 17.9741 20.4537C17.9655 20.4118 18.0418 20.4103 18.0608 20.4337C18.0885 20.4794 18.1755 20.4659 18.2175 20.4403C18.2621 20.4074 18.2717 20.3493 18.3358 20.3485C18.4309 20.3201 18.5297 20.3037 18.6225 20.2685C18.6977 20.2522 18.6113 20.2047 18.5925 20.1769C18.5352 20.1486 18.4854 20.2645 18.4207 20.2069C18.3709 20.1687 18.3743 20.0961 18.3558 20.0402C18.3431 19.9678 18.3463 19.8843 18.2941 19.8269C18.2584 19.7888 18.2096 19.7796 18.1592 19.7819H18.1591ZM17.7958 20.2869C17.8025 20.2867 17.8101 20.29 17.8225 20.2969C17.8459 20.3098 17.8625 20.3312 17.8625 20.3486C17.8625 20.3599 17.8596 20.3606 17.8425 20.3685C17.832 20.3733 17.8201 20.3787 17.8158 20.3786C17.8062 20.3785 17.7825 20.3595 17.7825 20.3519C17.7825 20.3487 17.7794 20.3366 17.7758 20.3268C17.7696 20.3098 17.7705 20.31 17.7792 20.2986C17.7846 20.2912 17.7891 20.287 17.7958 20.2868L17.7958 20.2869ZM18.1442 20.3052C18.1639 20.3039 18.1757 20.31 18.1842 20.3252C18.1938 20.3428 18.1872 20.3562 18.1624 20.3668C18.1516 20.3716 18.1407 20.3754 18.1391 20.3752C18.1375 20.375 18.1285 20.3698 18.1191 20.3635C18.1047 20.3541 18.1026 20.3494 18.1024 20.3386C18.1022 20.3217 18.1211 20.3067 18.1441 20.3052H18.1442ZM17.6674 20.3102C17.6732 20.3093 17.6786 20.3123 17.6858 20.3185C17.6954 20.3268 17.6984 20.3334 17.7007 20.3502C17.7025 20.3619 17.7022 20.377 17.7007 20.3835C17.6982 20.3956 17.6979 20.3951 17.6708 20.3953C17.6366 20.3956 17.6335 20.3918 17.634 20.3603C17.6346 20.3402 17.6347 20.3348 17.6458 20.3236C17.6543 20.3149 17.6616 20.3112 17.6674 20.3102L17.6674 20.3102ZM17.374 20.3869C17.3798 20.3881 17.385 20.3909 17.3892 20.3951C17.3934 20.3992 17.3963 20.4045 17.3975 20.4102C17.4009 20.4273 17.3979 20.4349 17.3842 20.4419C17.3723 20.448 17.345 20.4499 17.3374 20.4453C17.3334 20.4427 17.33 20.4393 17.3274 20.4353C17.3238 20.4289 17.3245 20.4257 17.329 20.4219C17.3323 20.4193 17.3358 20.4155 17.3357 20.4136C17.3357 20.4116 17.3394 20.4049 17.3441 20.3987C17.3474 20.394 17.352 20.3904 17.3573 20.3883C17.3626 20.3862 17.3684 20.3857 17.374 20.3869L17.374 20.3869ZM17.8674 20.4502C17.877 20.4502 17.885 20.4535 17.8908 20.4586C17.9006 20.4673 17.9003 20.4799 17.8891 20.4886C17.8819 20.4941 17.8427 20.4937 17.8291 20.4886C17.8231 20.4864 17.8208 20.4833 17.8208 20.4769C17.8206 20.4694 17.8228 20.4648 17.8357 20.4586C17.8467 20.4534 17.8579 20.4503 17.8674 20.4502L17.8674 20.4502ZM16.9517 20.7072C16.9466 20.7038 16.939 20.701 16.9466 20.6954C16.9558 20.6793 16.9742 20.6737 16.9906 20.6676C17.0198 20.6545 17.0451 20.6339 17.0638 20.608C17.0665 20.5902 17.0865 20.5806 17.0864 20.5621C17.0865 20.5368 17.0881 20.5108 17.0819 20.486C17.075 20.4633 17.0579 20.4459 17.0378 20.4341C17.0242 20.4233 17.0019 20.4202 16.9969 20.4013C16.994 20.383 17.0104 20.3691 17.0161 20.3528C17.028 20.3304 17.0379 20.3067 17.0507 20.2848C17.0646 20.2694 17.0859 20.284 17.0931 20.2988C17.1032 20.3136 17.1121 20.3295 17.1171 20.3466C17.1332 20.3643 17.1475 20.385 17.1533 20.4086C17.1612 20.4251 17.1738 20.4407 17.1731 20.4601C17.1731 20.4823 17.1856 20.5021 17.1848 20.5244C17.1855 20.5543 17.1854 20.5855 17.1746 20.6137C17.1671 20.6294 17.1522 20.6388 17.1422 20.6528C17.1252 20.6686 17.1065 20.6837 17.0846 20.6921C17.0692 20.697 17.0603 20.7148 17.041 20.7105C17.0136 20.711 16.9857 20.7148 16.9585 20.7103C16.9602 20.7132 16.9501 20.7054 16.9518 20.7072H16.9517ZM16.5864 20.7312C16.5734 20.7179 16.5706 20.7123 16.5705 20.6992C16.5703 20.686 16.5729 20.6808 16.5855 20.668C16.609 20.6443 16.6203 20.6438 16.6607 20.6642C16.6992 20.6837 16.7123 20.6856 16.7157 20.6717C16.719 20.6584 16.7412 20.6461 16.7624 20.6461C16.7739 20.6454 16.7852 20.6492 16.7939 20.6569C16.8073 20.6673 16.808 20.669 16.8083 20.6931C16.8085 20.7178 16.8082 20.7187 16.7929 20.7324C16.778 20.7454 16.7756 20.7462 16.7573 20.7443C16.734 20.742 16.72 20.7313 16.7163 20.713C16.7135 20.6996 16.7088 20.6964 16.7053 20.7055C16.7042 20.7084 16.6984 20.712 16.6925 20.7135C16.6817 20.7162 16.6633 20.7278 16.6502 20.7402C16.6452 20.7448 16.6366 20.747 16.6225 20.7471C16.6036 20.7473 16.6009 20.7462 16.5864 20.7312ZM15.5293 20.2565C15.4938 20.2569 15.4557 20.2867 15.4509 20.3216C15.4591 20.3616 15.4924 20.401 15.4709 20.4432C15.4858 20.4972 15.4304 20.5177 15.3925 20.4866C15.3698 20.4347 15.3583 20.378 15.3243 20.3315C15.2814 20.3194 15.2627 20.3879 15.2325 20.4115C15.2475 20.4518 15.2911 20.488 15.296 20.5382C15.3064 20.587 15.2767 20.6412 15.2343 20.6666C15.1977 20.7015 15.1475 20.689 15.1026 20.6966C15.048 20.7286 15.1427 20.7402 15.1676 20.7416C15.2234 20.7473 15.2815 20.7399 15.3226 20.6982C15.3636 20.6787 15.3604 20.6078 15.4092 20.6C15.4939 20.5962 15.5779 20.613 15.6626 20.615C15.7079 20.6258 15.7779 20.6096 15.8092 20.6433C15.8093 20.7023 15.8594 20.7387 15.9076 20.7617C15.9341 20.769 15.9622 20.7361 15.9892 20.7299C16.0407 20.7135 16.0251 20.6498 16.0559 20.6249C16.1439 20.6202 16.2328 20.6211 16.3209 20.6199C16.3377 20.6203 16.3426 20.5964 16.3542 20.5866C16.3522 20.5525 16.351 20.5187 16.3458 20.4849C16.3289 20.442 16.3486 20.3866 16.3176 20.35C16.2733 20.3379 16.2356 20.3785 16.1908 20.3817C16.1415 20.4036 16.0999 20.4493 16.0975 20.505C16.0683 20.5528 16.0214 20.4964 16.0375 20.4566C16.0357 20.4393 16.0413 20.4191 16.0359 20.4033C16.0089 20.3709 15.9615 20.3814 15.9242 20.3766C15.8699 20.3788 15.8169 20.367 15.7626 20.3683C15.7149 20.3647 15.6654 20.3725 15.6193 20.36C15.5642 20.3584 15.5718 20.3045 15.5626 20.2667C15.5529 20.2598 15.5411 20.2562 15.5292 20.2566L15.5293 20.2565ZM15.636 20.4532C15.6543 20.4536 15.6715 20.4559 15.6893 20.4582C15.7122 20.462 15.7368 20.4504 15.7593 20.4582C15.8114 20.4671 15.8635 20.465 15.916 20.4699C15.9298 20.4697 15.9397 20.4798 15.9493 20.4883C15.9494 20.5247 15.9493 20.5619 15.9493 20.5982C15.9477 20.612 15.9533 20.6301 15.941 20.6398C15.937 20.643 15.9325 20.6452 15.9276 20.6466C15.9131 20.6428 15.8978 20.6334 15.8908 20.6199C15.8887 20.6009 15.8919 20.5824 15.8925 20.5633C15.8922 20.5583 15.8947 20.5506 15.8925 20.5466C15.8815 20.5382 15.8681 20.5336 15.8543 20.5332C15.8089 20.5316 15.7645 20.5284 15.7193 20.5266C15.6816 20.5242 15.6428 20.5298 15.6059 20.5199C15.5916 20.5147 15.573 20.5165 15.5643 20.5016C15.5517 20.487 15.5698 20.4698 15.5826 20.4632C15.5994 20.4559 15.6176 20.4525 15.6359 20.4532H15.636ZM16.2376 20.4666C16.2461 20.4664 16.2488 20.4692 16.2526 20.4849C16.2551 20.495 16.2579 20.5072 16.2593 20.5115C16.2612 20.5179 16.2581 20.5199 16.2493 20.5233C16.2229 20.5332 16.1967 20.5322 16.1876 20.5199C16.1835 20.5144 16.1883 20.4968 16.196 20.4899C16.2114 20.4761 16.2285 20.4666 16.2376 20.4666Z" fill="#C09300"/>
<path d="M15.9989 17.4523C17.7398 16.1133 17.5905 14.1519 17.5905 14.1519C17.5447 14.1611 17.5009 14.1656 17.4551 14.1656C17.0898 14.1656 16.2188 13.9567 16.0156 13.6914C15.798 13.9316 14.9079 14.1656 14.5451 14.1656C14.4992 14.1656 14.4532 14.1611 14.4096 14.1519C14.4096 14.1519 14.258 16.1133 15.9989 17.4523Z" fill="white" stroke="#C09300" stroke-width="0.0613331"/>
<path d="M17.4518 14.2941C17.4369 14.295 17.4218 14.2955 17.4066 14.2955C17.0756 14.2955 16.3068 14.1257 16.0106 13.8711C15.7002 14.1063 14.9188 14.2954 14.5932 14.2954C14.578 14.2953 14.5629 14.2937 14.548 14.2908C14.5472 14.365 14.551 14.4419 14.5556 14.5118C14.5729 14.7732 14.6187 15.0356 14.6883 15.2879C14.9074 16.0823 15.3558 16.7574 15.9988 17.2695C16.6423 16.757 17.0913 16.0813 17.3108 15.2863C17.3806 15.034 17.4266 14.7717 17.4439 14.5103C17.4485 14.4418 17.4523 14.3668 17.4518 14.2941H17.4518Z" fill="white" stroke="#C09300" stroke-width="0.0488531"/>
<path d="M15.4329 14.1337C15.1198 14.2321 14.7807 14.2953 14.5929 14.2953C14.5777 14.2953 14.5629 14.2932 14.5479 14.2903C14.5472 14.3645 14.5517 14.4421 14.5563 14.5121C14.5738 14.7742 14.618 15.0338 14.688 15.287C14.8354 15.8217 15.0883 16.3021 15.4329 16.7153V14.1337ZM16.5327 14.1289V16.7556C16.895 16.3332 17.1584 15.8379 17.311 15.2856C17.381 15.0324 17.4251 14.7728 17.4427 14.5107C17.4472 14.4421 17.4515 14.3667 17.451 14.2939C17.436 14.2949 17.4211 14.2956 17.4059 14.2956C17.207 14.2956 16.8502 14.2332 16.5326 14.129L16.5327 14.1289Z" fill="#C09300"/>
<path d="M16.6562 13.4974C16.6918 13.4996 16.6081 13.3071 16.6081 13.3071C16.7023 13.4034 17.0577 13.4263 17.0577 13.4263C16.8444 13.3322 16.6312 12.6212 16.6562 12.0546C16.6793 11.4858 16.5747 11.2621 16.4911 11.1784C16.3844 11.0717 16.0415 10.9777 15.8156 10.9651C15.688 10.9587 15.709 11.0612 15.709 11.0612C15.4727 11.0006 15.2364 10.9776 15.1297 11.0487C15.0293 11.1156 15.0084 11.4502 15.0817 11.3916C15.2593 11.2495 15.4141 11.3791 15.5207 11.5338C15.6148 11.6698 15.6085 12.0545 15.4726 12.5041C15.3304 12.9766 14.9414 13.4492 14.9414 13.4492C15.1526 13.4492 15.4497 13.2611 15.4497 13.2611L15.3785 13.5558C15.6023 13.4492 15.78 13.284 15.78 13.284L15.9933 13.5077C16.0644 13.4137 16.2066 13.284 16.2066 13.284C16.2066 13.284 16.3843 13.4723 16.6562 13.4973L16.6562 13.4974Z" fill="white" stroke="#C09300" stroke-width="0.0649597"/>
<path d="M15.7931 12.1362C15.7931 12.1362 15.6739 13.0124 15.4502 13.2612M15.9814 12.1133C15.9814 12.1133 15.9354 12.9998 15.7806 13.2843M16.1483 12.149C16.1483 12.149 16.1483 13.1193 16.2069 13.2845M16.3595 12.197C16.3595 12.197 16.4076 13.0125 16.6084 13.3074" stroke="#C09300" stroke-width="0.0677331"/>
<path d="M15.5776 11.7119C15.5671 11.6346 15.5483 11.5739 15.5211 11.5342C15.4145 11.3795 15.2597 11.2498 15.082 11.392C15.082 11.392 15.1427 11.2038 15.2723 11.1976C15.3727 11.1913 15.6006 11.2728 15.8014 11.6157C15.8014 11.6157 15.6529 11.5823 15.6174 11.6137C15.5504 11.6723 15.5776 11.7119 15.5776 11.7119Z" fill="#C09300" stroke="#C09300" stroke-width="0.0188799"/>
<path d="M15.0628 11.1596C15.0774 11.1115 15.1005 11.0676 15.1297 11.0487C15.2364 10.9777 15.4727 11.0006 15.7089 11.0613C15.7089 11.0613 15.688 10.9589 15.8156 10.9651C16.0414 10.9777 16.3843 11.0718 16.491 11.1785C16.516 11.2057 16.5454 11.2453 16.5704 11.3059H16.5663C16.514 11.2327 16.3655 11.237 16.33 11.2411C16.2735 11.2474 16.238 11.2452 16.1626 11.264C16.1271 11.2724 16.0727 11.2829 16.0434 11.3059C16.0205 11.3247 16.0016 11.3937 15.9661 11.3937C15.9096 11.3937 15.9138 11.3791 15.8992 11.3624C15.8804 11.3395 15.8698 11.3059 15.8511 11.308C15.7926 11.3185 15.6984 11.2725 15.5793 11.1784C15.4601 11.0843 15.4141 11.0613 15.2593 11.0717C15.1068 11.0843 15.0586 11.17 15.0586 11.17L15.0629 11.1596H15.0628Z" fill="#C09300" stroke="#C09300" stroke-width="0.0188799"/>
<path d="M15.9367 11.2973C15.9714 11.2973 15.9995 11.2692 15.9995 11.2346C15.9995 11.2 15.9714 11.1719 15.9367 11.1719C15.9021 11.1719 15.874 11.2 15.874 11.2346C15.874 11.2692 15.9021 11.2973 15.9367 11.2973Z" fill="white"/>
</g>
</g>
</g>
<rect x="-0.5" y="0.5" width="33" height="33" rx="16.5" stroke="black" stroke-opacity="0.04"/>
</g>
<defs>
<clipPath id="clip0_328_26550">
<rect width="32" height="32" rx="16" fill="white"/>
</clipPath>
<clipPath id="clip1_328_26550">
<rect width="32" height="32" fill="white"/>
</clipPath>
<clipPath id="clip2_328_26550">
<rect width="32" height="32" fill="white"/>
</clipPath>
<clipPath id="clip3_328_26550">
<rect width="32" height="32" fill="white"/>
</clipPath>
</defs>
</svg>
