<svg width="32" height="32" viewBox="0 0 32 32" fill="none" xmlns="http://www.w3.org/2000/svg">
<g clip-path="url(#clip0_328_22946)">
<g clip-path="url(#clip1_328_22946)">
<g clip-path="url(#clip2_328_22946)">
<g clip-path="url(#clip3_328_22946)">
<path d="M16 0H32V32H16V0Z" fill="white"/>
<path d="M0 0H16V32H0V0Z" fill="#006233"/>
<path d="M22.9321 12C22.0516 10.4749 20.6924 9.2829 19.0654 8.60897C17.4384 7.93503 15.6344 7.8168 13.9334 8.2726C12.2323 8.7284 10.7292 9.73276 9.65708 11.1299C8.58501 12.5271 8.00391 14.2389 8.00391 16C8.00391 17.7611 8.58501 19.4729 9.65708 20.8701C10.7292 22.2672 12.2323 23.2716 13.9334 23.7274C15.6344 24.1832 17.4384 24.065 19.0654 23.391C20.6924 22.7171 22.0516 21.5251 22.9321 20C22.1034 21.0351 20.9736 21.7872 19.6989 22.1524C18.4243 22.5177 17.0676 22.478 15.8165 22.0388C14.5654 21.5997 13.4815 20.7828 12.7147 19.701C11.948 18.6192 11.5361 17.326 11.5361 16C11.5361 14.674 11.948 13.3808 12.7147 12.299C13.4815 11.2173 14.5654 10.4003 15.8165 9.96119C17.0676 9.52205 18.4243 9.48234 19.6989 9.84757C20.9736 10.2128 22.1034 10.9649 22.9321 12ZM23.1988 16L15.9988 13.6533L20.4788 19.7867V12.2133L15.9988 18.3467L23.1988 16Z" fill="#D21034"/>
</g>
</g>
</g>
<rect x="-0.5" y="0.5" width="33" height="33" rx="16.5" stroke="black" stroke-opacity="0.04"/>
</g>
<defs>
<clipPath id="clip0_328_22946">
<rect width="32" height="32" rx="16" fill="white"/>
</clipPath>
<clipPath id="clip1_328_22946">
<rect width="32" height="32" fill="white"/>
</clipPath>
<clipPath id="clip2_328_22946">
<rect width="32" height="32" fill="white"/>
</clipPath>
<clipPath id="clip3_328_22946">
<rect width="32" height="32" fill="white"/>
</clipPath>
</defs>
</svg>
