<svg width="32" height="32" viewBox="0 0 32 32" fill="none" xmlns="http://www.w3.org/2000/svg">
<g clip-path="url(#clip0_328_22955)">
<g clip-path="url(#clip1_328_22955)">
<g clip-path="url(#clip2_328_22955)">
<g clip-path="url(#clip3_328_22955)">
<path d="M0 0H32V32H0V0Z" fill="white"/>
<path d="M10.2168 19.7474C10.2168 19.7474 10.1909 19.5721 10.524 19.4434C10.8571 19.3149 10.883 18.8354 10.8163 18.5159C10.8163 18.5159 10.6425 18.8199 10.4315 18.9212C10.4315 18.9212 10.0873 19.1006 10.0715 19.4431C10.0715 19.4431 10.0688 19.5682 10.0429 19.6657C10.0287 19.719 9.87641 19.2369 10.165 18.8783C10.4629 18.5083 10.5463 18.2079 10.3094 17.6233C10.3094 17.6233 10.2871 17.978 10.054 18.1806C9.82084 18.3833 9.79116 18.3989 9.79491 18.8822C9.79491 18.8822 9.79866 19.0499 9.70978 19.1044C9.70978 19.1044 9.52841 18.8394 9.48028 18.664C9.43216 18.4886 9.40997 18.4146 9.61716 18.2119C9.61716 18.2119 10.2812 17.7828 9.80228 16.8438C9.80228 16.8438 9.78747 17.1673 9.55803 17.3583C9.32866 17.5493 9.34709 17.6779 9.33597 18.0092C9.32484 18.3406 9.30266 18.3172 9.27678 18.3639C9.27678 18.3639 8.85491 17.5883 9.18053 17.1752C9.50616 16.7621 9.68759 16.6763 9.32866 15.9084C9.32866 15.9084 9.34453 16.3022 9.05709 16.497C8.76972 16.6919 8.83634 17.1479 8.83634 17.1479C8.83634 17.1479 8.85491 17.3193 8.79572 17.4441C8.79572 17.4441 8.38916 16.6511 8.77722 16.2241C9.10659 15.8616 9.12878 15.6083 8.95116 15.0938C8.95116 15.0938 8.92897 15.3315 8.74759 15.4601C8.56622 15.5888 8.42197 15.7174 8.45522 16.2124C8.45522 16.2124 8.47003 16.5592 8.42559 16.6567C8.42559 16.6567 8.25534 16.341 8.20728 16.1344C8.15916 15.9279 8.14066 15.8069 8.26647 15.6004C8.39228 15.3939 8.89191 14.8015 8.29609 13.9479C8.29609 13.9479 8.27759 14.2246 8.12584 14.4742C7.97409 14.7236 8.04441 15.0198 8.07772 15.2458C8.11103 15.4719 8.00003 15.6902 8.00003 15.6902C8.00003 15.6902 7.74091 15.2146 7.79641 14.6689C7.85191 14.1233 7.62984 13.6751 7.12653 13.3516C7.12653 13.3516 6.76009 14.2013 7.25966 14.6339C7.25966 14.6339 7.68528 15.0549 7.79266 15.5654C7.79266 15.5654 7.47078 15.5342 7.17828 14.9652C6.88597 14.3961 6.27891 14.4858 6.23828 14.4819C6.23828 14.4819 6.33828 15.3628 7.27078 15.6122C7.27078 15.6122 7.86672 15.7136 7.97766 16.1501C7.97766 16.1501 8.07766 16.4502 8.11828 16.6101C8.11828 16.6101 7.92953 16.5359 7.75566 16.2787C7.58172 16.0214 7.60391 15.9903 7.01547 15.9318C7.01547 15.9318 6.77859 15.9045 6.65278 15.7369C6.65278 15.7369 6.90072 16.6685 7.53728 16.6607C7.53728 16.6607 8.11834 16.5983 8.44403 17.3623C8.44403 17.3623 8.38109 17.3232 8.29603 17.2647C8.21091 17.2063 7.99622 17.0971 7.57059 17.1479C7.14497 17.1985 7.02653 17.1283 6.91916 17.0933C6.91916 17.0933 7.34853 17.8806 7.95541 17.6468C8.56241 17.4129 8.85559 18.2656 8.86228 18.2821C8.86228 18.2821 8.78078 18.2197 8.67353 18.1144C8.56603 18.0092 8.34328 17.8794 7.92216 18.0132C7.92216 18.0132 7.61866 18.1301 7.31153 18.0365C7.31153 18.0365 7.60759 18.6094 8.29966 18.512C8.99172 18.4145 9.16566 19.0226 9.16566 19.0226C9.16566 19.0226 9.07316 18.9681 9.01028 18.9174C8.94741 18.8668 8.71422 18.7343 8.21466 18.8824C7.71497 19.0304 7.53359 18.8589 7.53359 18.8589C7.53359 18.8589 7.81109 19.3656 8.34409 19.4241C8.34409 19.4241 8.64022 19.4201 8.76597 19.3733C8.89184 19.3266 9.22497 19.2525 9.45441 19.5838C9.45441 19.5838 9.39147 19.5955 9.29528 19.5526C9.29528 19.5526 8.93997 19.424 8.66978 19.6501C8.66978 19.6501 8.42916 19.8957 8.08872 19.8488C8.08872 19.8488 8.52909 20.2776 9.22859 19.9151C9.22859 19.9151 9.46547 19.7436 9.63941 19.8761C9.81341 20.0086 10.2168 19.7475 10.2168 19.7475V19.7474Z" fill="#369443" stroke="#010002" stroke-width="0.07525" stroke-miterlimit="10"/>
<path d="M14.1133 9.18477C14.1133 9.18477 14.032 8.45939 14.6116 8.38964C15.2161 8.31689 15.5146 8.4442 15.5146 8.4442L15.786 8.97689L15.6923 9.33545L15.3173 9.50695C15.3173 9.50695 15.3814 8.95608 14.8765 8.94464C14.7485 8.94177 14.6733 8.99252 14.471 8.96039C14.2674 8.92808 14.1585 9.1517 14.1132 9.18477H14.1133Z" fill="#F4C53D" stroke="#010002" stroke-width="0.075275" stroke-miterlimit="10"/>
<path d="M18.19 10.9794C18.1036 11.0911 17.7582 11.13 17.7582 11.13C17.7582 11.13 18.1135 11.4029 18.2665 11.7926C18.4194 12.1824 14.1486 11.7953 14.1486 11.7953C14.1486 11.7953 14.3337 11.6628 14.4595 11.4134C14.4595 11.4134 14.2708 11.4834 14.082 11.2964C14.082 11.2964 14.2227 11.3431 14.4077 11.0625C14.4077 11.0625 14.6816 10.7118 14.874 10.6181C14.874 10.6181 14.7853 10.6728 14.5706 10.5558C14.5706 10.5558 14.9406 10.5091 15.0739 9.8777C15.0739 9.8777 15.0961 9.73732 15.2367 9.53457C15.3773 9.33195 15.3478 9.57364 15.6068 9.26182C15.6068 9.26182 15.7253 9.04089 15.6217 8.90576C15.5179 8.77064 15.4069 8.82001 15.1898 8.69014C14.9727 8.56014 14.8765 8.48745 14.9504 8.28739C15.0245 8.08726 15.217 8.11839 15.2442 8.11839C15.2712 8.11839 15.286 7.94432 15.5229 7.82482C15.7598 7.7052 16.3889 7.7572 16.4827 7.8092C16.5764 7.86107 16.9564 7.97282 17.1784 8.53407C17.4005 9.09532 17.1192 9.30582 17.7237 10.1528C17.7237 10.1528 17.4819 10.2049 17.3265 10.1581C17.3265 10.1581 17.6398 10.7141 18.19 10.9792V10.9794Z" fill="#F4C53D" stroke="#010002" stroke-width="0.07525" stroke-miterlimit="10"/>
<path d="M15.546 8.61164C15.0538 8.58826 15.2426 8.11914 15.2426 8.11914" stroke="#010002" stroke-width="0.07525" stroke-miterlimit="10"/>
<path d="M16.4019 8.67612C16.4019 8.67612 16.3149 8.63518 16.2413 8.53774C16.1381 8.40099 15.9078 8.33505 15.7838 8.46368C15.7838 8.46368 15.6579 8.60399 15.5469 8.6118C15.5469 8.6118 15.6728 8.65074 15.7598 8.73068C15.8466 8.81055 15.9372 8.86905 16.0669 8.85149C16.1964 8.83399 16.2167 8.76574 16.2778 8.7248C16.3388 8.68387 16.4017 8.67605 16.4017 8.67605L16.4019 8.67612Z" fill="#F4C53D" stroke="#010002" stroke-width="0.07525" stroke-miterlimit="10"/>
<path d="M10.1407 20.8234C10.1407 20.8234 10.1296 20.5078 10.5293 20.4844L11.7062 22.1212C11.7062 22.1212 11.6618 22.2265 11.1288 22.2148C11.1288 22.2148 11.0723 22.2144 11.0428 22.2768C10.9973 22.3724 10.1407 20.8233 10.1407 20.8233L10.1407 20.8234Z" fill="#369443" stroke="#010002" stroke-width="0.07525" stroke-miterlimit="10"/>
<path d="M11.4338 18.9176C11.4338 18.9176 11.0588 19.562 10.6048 19.5724C10.6048 19.5724 9.8239 19.4774 9.60309 19.6816C9.44913 19.824 9.29221 19.9414 9.22807 20.3052C9.16392 20.669 9.35143 20.7469 9.39584 20.7625C9.39584 20.7625 9.43039 21.0224 9.68697 20.9548C9.68697 20.9548 9.70178 21.225 10.1558 21.0951C10.6097 20.9652 10.7972 21.0068 10.8861 20.5546C10.9749 20.1025 11.0569 20.1099 11.1377 20.0557C11.2463 19.983 11.4502 19.9142 11.6016 19.8271C11.7375 19.7488 12.2579 19.4841 12.4355 19.4633C12.6132 19.4425 12.5737 18.8449 12.5737 18.8449H12.1148L11.8927 18.5175L11.4338 18.9176L11.4338 18.9176ZM12.8792 15.6853C12.8792 15.6853 12.4202 16.0594 12.0354 15.6853C12.0354 15.6853 11.8799 15.8724 11.569 15.8178C11.2582 15.7632 11.2064 15.5995 11.1767 15.506C11.1767 15.506 10.9078 15.6629 10.6808 15.539C10.4538 15.415 10.4538 15.228 10.4538 15.228C10.4538 15.228 10.0591 15.3058 9.85675 15.0382C9.65444 14.7706 9.7778 14.5056 9.88636 14.4744C9.88636 14.4744 9.45955 14.5862 9.34355 14.2198C9.24487 13.908 9.46693 13.7469 9.46693 13.7469C9.46693 13.7469 8.56762 13.7426 8.19875 13.4611C8.19875 13.4611 7.89281 13.2688 8.07539 13.0661C8.07539 13.0661 7.26613 12.9362 7.06381 12.614C7.06381 12.614 6.97499 12.5256 7.0046 12.3697C7.0046 12.3697 7.00954 12.2814 7.09835 12.2762C7.09835 12.2762 6.17548 12.1336 5.90915 11.8293C5.90915 11.8293 5.78085 11.689 5.845 11.5019C5.845 11.5019 5.85857 11.4525 5.88077 11.4194C5.88077 11.4194 5.04067 11.242 4.62617 10.8679C4.62617 10.8679 4.38689 10.6547 4.51024 10.3689C4.51024 10.3689 3.10633 9.98442 3.432 9.366C3.432 9.366 2.77572 9.15294 2.98297 8.5605C2.98297 8.5605 2.44016 8.28507 2.67703 7.84855C2.90371 7.43077 3.59978 7.92129 4.42401 8.14935C4.42401 8.14935 6.65425 8.85151 7.75258 9.03839L10.8733 13.6845L12.6941 14.3861L12.8791 15.6853L12.8792 15.6853Z" fill="#F4C53D" stroke="#010002" stroke-width="0.075275"/>
<path d="M12.9004 12.264C12.9004 12.264 12.6079 12.0444 12.0862 12.3029C12.0862 12.3029 11.9106 12.4239 11.7724 12.2914C11.657 12.1807 11.6461 11.9765 11.8049 11.8586C12.1935 11.5702 12.3379 10.7049 11.7457 10.3464C11.7457 10.3464 10.8871 9.83709 7.73869 9.03587C7.73869 9.03587 7.4749 8.96272 7.33426 8.9978C7.1794 9.03642 7.07273 9.16929 7.05085 9.28299C7.05085 9.28299 6.90997 9.68336 7.38361 9.91244C7.38361 9.91244 7.59745 10.0103 7.81785 10.0735C7.81785 10.0735 7.57576 10.0212 7.47243 10.2606C7.37375 10.4893 7.51685 10.7231 7.96095 10.8738C7.96095 10.8738 8.08108 10.9206 8.2521 10.9622C8.2521 10.9622 7.87214 11.0713 8.05472 11.3779C8.05472 11.3779 8.21756 11.7001 8.79242 11.7573C8.79242 11.7573 8.36313 11.804 8.6666 12.212C8.6666 12.212 8.79983 12.4355 9.21927 12.5186C9.21927 12.5186 8.90099 12.529 9.06136 12.8148C9.22173 13.1007 9.59913 13.2617 9.9705 13.2877C9.9705 13.2877 10.1716 13.2981 10.3123 13.267C10.3123 13.267 9.95945 13.4436 10.1667 13.7399C10.1667 13.7399 10.3197 13.9503 10.7021 13.9399C10.7021 13.9399 10.6028 14.2707 10.8834 14.396C11.1018 14.4934 11.2831 14.3375 11.2831 14.3375C11.2831 14.3375 11.2091 14.6922 11.5274 14.8169C11.5274 14.8169 11.6865 14.8987 11.9234 14.8169C11.9234 14.8169 12.1047 15.2222 12.7487 14.9377C13.3926 14.6532 12.9004 12.264 12.9004 12.264L12.9004 12.264ZM12.9386 15.9479C12.9386 15.9479 12.8441 16.4552 12.0948 17.0937C12.0948 17.0937 11.5167 17.6036 11.5315 18.1909C11.5466 18.7889 11.4279 18.8561 11.2009 19.0587C11.2009 19.0587 11.6697 19.0951 11.8967 18.7833C11.8967 18.7833 11.8868 19.303 11.8177 19.3497C11.8177 19.3497 11.9647 19.3591 12.1779 19.1263C12.1779 19.1263 12.3062 18.9912 12.4247 18.9392C12.4247 18.9392 12.2865 19.2978 12.3951 19.6304C12.3951 19.6304 12.4296 19.5005 12.6122 19.4433C12.6122 19.4433 12.9428 19.3757 13.0711 18.8976C13.0711 18.8976 13.155 18.5806 13.6731 18.3C13.6731 18.3 14.2603 18.0785 14.2455 17.7891C14.2307 17.4997 12.9386 15.9479 12.9386 15.9479L12.9386 15.9479Z" fill="#F4C53D" stroke="#010002" stroke-width="0.075275"/>
<path d="M15.6605 22.488C15.6605 22.488 15.526 23.0816 15.0585 23.0337C15.0585 23.0337 14.7278 23.0025 14.7525 22.4516C14.7525 22.4516 14.264 22.7115 14.1851 22.0671C14.1851 22.0671 13.7409 22.171 13.7459 21.5682C13.7459 21.5682 13.3314 21.6409 13.3807 21.1056C13.3807 21.1056 12.9317 21.2252 12.9317 20.7211C12.9317 20.7211 11.8806 20.5468 14.0716 18.5488L16.0256 19.7129L15.6605 22.488L15.6605 22.488Z" fill="#F4C53D" stroke="#010002" stroke-width="0.075275" stroke-miterlimit="10"/>
<path d="M15.8797 19.8249C15.8797 19.8249 15.554 20.1139 15.3221 19.6825C15.3221 19.6825 15.0063 19.6669 14.9569 19.4279C14.9569 19.4279 14.7003 19.4019 14.651 19.1577C14.651 19.1577 14.3006 19.1213 14.3105 18.8251C14.3105 18.8251 13.6735 18.7759 14.3103 18.0548C14.947 17.3336 16.0277 19.2512 16.0277 19.2512L15.8797 19.8249L15.8797 19.8249ZM16.2431 19.6462C16.5588 19.6462 16.9165 21.6183 16.8237 22.8065C16.7899 23.238 16.5588 23.5905 16.2431 23.5905C15.9274 23.5905 15.6962 23.238 15.6625 22.8065C15.5696 21.6183 15.9274 19.6461 16.2431 19.6461" fill="#F4C53D"/>
<path d="M16.2431 19.6462C16.5588 19.6462 16.9165 21.6183 16.8237 22.8065C16.7899 23.238 16.5588 23.5905 16.2431 23.5905C15.9274 23.5905 15.6962 23.238 15.6625 22.8065C15.5696 21.6183 15.9274 19.6461 16.2431 19.6461M15.8797 19.8249C15.8797 19.8249 15.554 20.1139 15.3221 19.6825C15.3221 19.6825 15.0063 19.6669 14.9569 19.4279C14.9569 19.4279 14.7003 19.4019 14.651 19.1577C14.651 19.1577 14.3006 19.1213 14.3105 18.8251C14.3105 18.8251 13.6735 18.7759 14.3103 18.0548C14.947 17.3336 16.0277 19.2512 16.0277 19.2512L15.8797 19.8249L15.8797 19.8249Z" stroke="#010002" stroke-width="0.075275"/>
<path d="M16.2415 20.2764C16.4828 20.2764 16.6784 19.9867 16.6784 19.6294C16.6784 19.2721 16.4828 18.9824 16.2415 18.9824C16.0003 18.9824 15.8047 19.2721 15.8047 19.6294C15.8047 19.9867 16.0003 20.2764 16.2415 20.2764Z" fill="#F4C53D" stroke="#010002" stroke-width="0.075275"/>
<path d="M14.7544 22.4515C14.7544 22.4515 14.8038 21.407 15.7091 19.9103M14.187 22.067C14.187 22.067 14.0463 21.4642 15.3219 19.6817C15.3219 19.6817 15.1739 19.2555 15.6279 18.9827M13.7478 21.5681C13.7478 21.5681 13.7083 20.9159 14.9568 19.427C14.9568 19.427 14.8465 19.0425 15.2988 18.7358M13.3826 21.1056C13.3826 21.1056 13.4295 20.4456 14.6508 19.1568C14.6508 19.1568 14.5897 18.7618 15.0274 18.5176M12.9336 20.721C12.9336 20.721 13.0224 19.9675 14.3103 18.8242C14.3103 18.8242 14.2659 18.528 14.6952 18.2266" stroke="#010002" stroke-width="0.075275" stroke-miterlimit="10"/>
<path d="M2.98438 8.56055C2.98438 8.56055 3.99595 9.14623 7.14629 9.73192M3.43341 9.36605C3.43341 9.36605 6.17129 10.2592 7.44632 10.3689M4.51165 10.3689C4.51165 10.3689 6.11779 10.8731 7.99868 11.1913M5.88217 11.4194C5.88217 11.4194 7.69684 11.8553 8.56319 11.9276M7.09977 12.2762C7.09977 12.2762 8.63469 12.5964 9.02359 12.6349M8.0768 13.0662C8.0768 13.0662 9.19694 13.2364 9.64275 13.2272M9.46834 13.7469C9.46834 13.7469 9.92124 13.7257 10.1389 13.6895M9.88777 14.4745C9.88777 14.4745 10.2727 14.3705 10.4997 14.225M10.4552 15.228C10.4552 15.228 10.7513 15.1137 10.8944 14.8019M11.1781 15.506C11.1781 15.506 11.4076 15.3008 11.4224 15.0721M12.0368 15.6853C12.0368 15.6853 11.9508 15.6112 12.0096 15.2891M11.9257 14.8162C11.9257 14.8162 11.8813 14.7239 11.8961 14.5784M10.3072 10.2027C10.3072 10.2027 10.8253 10.4106 10.998 10.6964C11.1707 10.9822 11.057 11.26 10.998 11.4194C10.9684 11.4995 10.6033 12.2035 11.0326 12.7127M10.3146 13.2662C10.3146 13.2662 10.3171 13.2636 10.4997 13.2064M9.2216 12.5179C9.2216 12.5179 9.53042 12.5801 9.83348 12.5828M8.79476 11.7565C8.79476 11.7565 9.15746 11.7929 9.49794 11.7877M8.25444 10.9614C8.25444 10.9614 8.77749 11.0654 9.05877 11.0706M7.82019 10.0728C7.82019 10.0728 8.4653 10.2569 8.94527 10.3222M10.0111 10.7016C10.0111 10.7016 9.54729 11.1329 10.1049 11.5331C10.1049 11.5331 9.87297 11.8968 10.3368 12.2762M10.2135 12.4555C10.2135 12.4555 10.1444 13.1492 10.9931 13.1493C10.9931 13.1493 10.8303 13.7677 11.6494 13.7469C11.6494 13.7469 11.7432 14.2406 12.3353 14.1419M11.0306 19.5725C11.0306 19.5725 10.8963 19.6024 10.605 19.5725M9.78586 19.9363C9.78586 19.9363 9.37628 19.8739 9.39603 20.7626M10.0326 20.1389C10.0326 20.1389 9.6625 20.0922 9.68718 20.9548M13.6064 18.0602C13.6064 18.0602 13.4288 18.0966 13.3054 18.2369C13.182 18.3772 12.9452 18.3513 12.9452 18.3513C12.9452 18.3513 13.0735 18.2473 13.1179 17.9875C13.1623 17.7276 13.3054 17.6497 13.3054 17.6497M12.8816 17.4036C12.8816 17.4036 12.704 17.44 12.5806 17.5803C12.4572 17.7206 12.2204 17.6946 12.2204 17.6946C12.2204 17.6946 12.3487 17.5907 12.3931 17.3309C12.4375 17.071 12.5806 16.9931 12.5806 16.9931M12.7595 18.4123C12.7595 18.4123 12.6044 18.4441 12.4966 18.5666C12.3889 18.6891 12.1821 18.6664 12.1821 18.6664C12.1821 18.6664 12.2941 18.5756 12.3329 18.3488C12.3717 18.1219 12.4966 18.0538 12.4966 18.0538" stroke="#010002" stroke-width="0.075275"/>
<path d="M20.9256 18.9176C20.9256 18.9176 21.3006 19.562 21.7546 19.5724C21.7546 19.5724 22.5355 19.4774 22.7563 19.6816C22.9102 19.824 23.0672 19.9414 23.1313 20.3052C23.1955 20.669 23.0079 20.7469 22.9635 20.7625C22.9635 20.7625 22.929 21.0224 22.6724 20.9548C22.6724 20.9548 22.6576 21.225 22.2036 21.0951C21.7496 20.9652 21.5621 21.0068 21.4733 20.5546C21.3845 20.1025 21.3025 20.1099 21.2217 20.0557C21.1131 19.983 20.9091 19.9142 20.7578 19.8271C20.6219 19.7488 20.1015 19.4841 19.9239 19.4633C19.7462 19.4425 19.7857 18.8449 19.7857 18.8449H20.2446L20.4667 18.5175L20.9256 18.9176L20.9256 18.9176ZM19.4802 15.6853C19.4802 15.6853 19.9391 16.0594 20.324 15.6853C20.324 15.6853 20.4795 15.8724 20.7903 15.8178C21.1012 15.7632 21.153 15.5995 21.1826 15.506C21.1826 15.506 21.4516 15.6629 21.6786 15.539C21.9055 15.415 21.9055 15.228 21.9055 15.228C21.9055 15.228 22.3003 15.3058 22.5026 15.0382C22.7049 14.7706 22.5816 14.5056 22.473 14.4744C22.473 14.4744 22.8998 14.5862 23.0158 14.2198C23.1145 13.908 22.8924 13.7469 22.8924 13.7469C22.8924 13.7469 23.7918 13.7426 24.1606 13.4611C24.1606 13.4611 24.4666 13.2688 24.284 13.0661C24.284 13.0661 25.0932 12.9362 25.2956 12.614C25.2956 12.614 25.3844 12.5256 25.3548 12.3697C25.3548 12.3697 25.3498 12.2814 25.261 12.2762C25.261 12.2762 26.1839 12.1336 26.4502 11.8293C26.4502 11.8293 26.5785 11.689 26.5144 11.5019C26.5144 11.5019 26.5008 11.4525 26.4786 11.4194C26.4786 11.4194 27.3187 11.242 27.7332 10.8679C27.7332 10.8679 27.9725 10.6547 27.8491 10.3689C27.8491 10.3689 29.253 9.98442 28.9274 9.366C28.9274 9.366 29.5837 9.15294 29.3764 8.5605C29.3764 8.5605 29.9192 8.28507 29.6823 7.84855C29.4557 7.43077 28.7596 7.92129 27.9354 8.14935C27.9354 8.14935 25.7051 8.85151 24.6068 9.03839L21.4861 13.6845L19.6653 14.3861L19.4802 15.6853L19.4802 15.6853Z" fill="#F4C53D" stroke="#010002" stroke-width="0.075275"/>
<path d="M19.459 12.264C19.459 12.264 19.7515 12.0444 20.2732 12.3029C20.2732 12.3029 20.4488 12.4239 20.587 12.2914C20.7024 12.1807 20.7132 11.9765 20.5544 11.8586C20.1658 11.5702 20.0215 10.7049 20.6136 10.3464C20.6136 10.3464 21.4723 9.83709 24.6207 9.03587C24.6207 9.03587 24.8845 8.96272 25.0251 8.9978C25.18 9.03642 25.2866 9.16929 25.3085 9.28299C25.3085 9.28299 25.4494 9.68336 24.9758 9.91244C24.9758 9.91244 24.7619 10.0103 24.5415 10.0735C24.5415 10.0735 24.7836 10.0212 24.8869 10.2606C24.9856 10.4893 24.8425 10.7231 24.3984 10.8738C24.3984 10.8738 24.2783 10.9206 24.1073 10.9622C24.1073 10.9622 24.4872 11.0713 24.3047 11.3779C24.3047 11.3779 24.1418 11.7001 23.567 11.7573C23.567 11.7573 23.9962 11.804 23.6928 12.212C23.6928 12.212 23.5595 12.4355 23.1401 12.5186C23.1401 12.5186 23.4584 12.529 23.298 12.8148C23.1376 13.1007 22.7602 13.2617 22.3889 13.2877C22.3889 13.2877 22.1877 13.2981 22.0471 13.267C22.0471 13.267 22.3999 13.4436 22.1927 13.7399C22.1927 13.7399 22.0397 13.9503 21.6573 13.9399C21.6573 13.9399 21.7565 14.2707 21.4759 14.396C21.2576 14.4934 21.0762 14.3375 21.0762 14.3375C21.0762 14.3375 21.1503 14.6922 20.832 14.8169C20.832 14.8169 20.6729 14.8987 20.436 14.8169C20.436 14.8169 20.2547 15.2222 19.6107 14.9377C18.9667 14.6532 19.459 12.264 19.459 12.264L19.459 12.264ZM19.4208 15.9479C19.4208 15.9479 19.5153 16.4552 20.2645 17.0937C20.2645 17.0937 20.8426 17.6036 20.8278 18.1909C20.8128 18.7889 20.9315 18.8561 21.1585 19.0587C21.1585 19.0587 20.6897 19.0951 20.4627 18.7833C20.4627 18.7833 20.4726 19.303 20.5417 19.3497C20.5417 19.3497 20.3946 19.3591 20.1814 19.1263C20.1814 19.1263 20.0531 18.9912 19.9347 18.9392C19.9347 18.9392 20.0729 19.2978 19.9643 19.6304C19.9643 19.6304 19.9298 19.5005 19.7472 19.4433C19.7472 19.4433 19.4166 19.3757 19.2883 18.8976C19.2883 18.8976 19.2044 18.5806 18.6863 18.3C18.6863 18.3 18.0991 18.0785 18.1139 17.7891C18.1287 17.4997 19.4208 15.9479 19.4208 15.9479L19.4208 15.9479Z" fill="#F4C53D" stroke="#010002" stroke-width="0.075275"/>
<path d="M16.6989 22.488C16.6989 22.488 16.8334 23.0816 17.3009 23.0337C17.3009 23.0337 17.6315 23.0025 17.6069 22.4516C17.6069 22.4516 18.0954 22.7115 18.1743 22.0671C18.1743 22.0671 18.6184 22.171 18.6135 21.5682C18.6135 21.5682 19.028 21.6409 18.9786 21.1056C18.9786 21.1056 19.4277 21.2252 19.4277 20.7211C19.4277 20.7211 20.4787 20.5468 18.2878 18.5488L16.3337 19.7129L16.6989 22.488L16.6989 22.488Z" fill="#F4C53D" stroke="#010002" stroke-width="0.075275" stroke-miterlimit="10"/>
<path d="M16.4797 19.8249C16.4797 19.8249 16.8054 20.1139 17.0373 19.6825C17.0373 19.6825 17.3531 19.6669 17.4025 19.4279C17.4025 19.4279 17.6591 19.4019 17.7084 19.1577C17.7084 19.1577 18.0587 19.1213 18.0489 18.8251C18.0489 18.8251 18.6858 18.7759 18.0491 18.0548C17.4123 17.3336 16.3317 19.2512 16.3317 19.2512L16.4797 19.8249L16.4797 19.8249ZM16.1163 19.6462C15.8006 19.6462 15.4429 21.6183 15.5357 22.8065C15.5694 23.238 15.8006 23.5905 16.1163 23.5905C16.432 23.5905 16.6632 23.238 16.6969 22.8065C16.7898 21.6183 16.432 19.6461 16.1163 19.6461" fill="#F4C53D"/>
<path d="M16.1163 19.6462C15.8006 19.6462 15.4429 21.6183 15.5357 22.8065C15.5694 23.238 15.8006 23.5905 16.1163 23.5905C16.432 23.5905 16.6632 23.238 16.6969 22.8065C16.7898 21.6183 16.432 19.6461 16.1163 19.6461M16.4797 19.8249C16.4797 19.8249 16.8054 20.1139 17.0373 19.6825C17.0373 19.6825 17.3531 19.6669 17.4025 19.4279C17.4025 19.4279 17.6591 19.4019 17.7084 19.1577C17.7084 19.1577 18.0587 19.1213 18.0489 18.8251C18.0489 18.8251 18.6858 18.7759 18.0491 18.0548C17.4123 17.3336 16.3317 19.2512 16.3317 19.2512L16.4797 19.8249L16.4797 19.8249Z" stroke="#010002" stroke-width="0.075275"/>
<path d="M16.1179 20.2764C15.8766 20.2764 15.681 19.9867 15.681 19.6294C15.681 19.2721 15.8766 18.9824 16.1179 18.9824C16.3591 18.9824 16.5547 19.2721 16.5547 19.6294C16.5547 19.9867 16.3591 20.2764 16.1179 20.2764Z" fill="#F4C53D" stroke="#010002" stroke-width="0.075275"/>
<path d="M17.6049 22.4515C17.6049 22.4515 17.5556 21.407 16.6503 19.9103M18.1724 22.067C18.1724 22.067 18.313 21.4642 17.0375 19.6817C17.0375 19.6817 17.1855 19.2555 16.7315 18.9827M18.6116 21.5681C18.6116 21.5681 18.6511 20.9159 17.4026 19.427C17.4026 19.427 17.5129 19.0425 17.0605 18.7358M18.9767 21.1056C18.9767 21.1056 18.9298 20.4456 17.7086 19.1568C17.7086 19.1568 17.7697 18.7618 17.332 18.5176M19.4258 20.721C19.4258 20.721 19.337 19.9675 18.049 18.8242C18.049 18.8242 18.0935 18.528 17.6641 18.2266" stroke="#010002" stroke-width="0.075275" stroke-miterlimit="10"/>
<path d="M29.375 8.56055C29.375 8.56055 28.3634 9.14623 25.2131 9.73192M28.926 9.36605C28.926 9.36605 26.1881 10.2592 24.9131 10.3689M27.8477 10.3689C27.8477 10.3689 26.2416 10.8731 24.3607 11.1913M26.4772 11.4194C26.4772 11.4194 24.6625 11.8553 23.7962 11.9276M25.2596 12.2762C25.2596 12.2762 23.7247 12.5964 23.3358 12.6349M24.2826 13.0662C24.2826 13.0662 23.1624 13.2364 22.7166 13.2272M22.891 13.7469C22.891 13.7469 22.4381 13.7257 22.2205 13.6895M22.4716 14.4745C22.4716 14.4745 22.0867 14.3705 21.8597 14.225M21.9041 15.228C21.9041 15.228 21.6081 15.1137 21.465 14.8019M21.1812 15.506C21.1812 15.506 20.9518 15.3008 20.937 15.0721M20.3226 15.6853C20.3226 15.6853 20.4085 15.6112 20.3498 15.2891M20.4337 14.8162C20.4337 14.8162 20.4781 14.7239 20.4633 14.5784M22.0522 10.2027C22.0522 10.2027 21.5341 10.4106 21.3613 10.6964C21.1886 10.9822 21.3024 11.26 21.3613 11.4194C21.391 11.4995 21.7561 12.2035 21.3268 12.7127M22.0448 13.2662C22.0448 13.2662 22.0423 13.2636 21.8597 13.2064M23.1378 12.5179C23.1378 12.5179 22.829 12.5801 22.5259 12.5828M23.5646 11.7565C23.5646 11.7565 23.2019 11.7929 22.8614 11.7877M24.1049 10.9614C24.1049 10.9614 23.5819 11.0654 23.3006 11.0706M24.5392 10.0728C24.5392 10.0728 23.8941 10.2569 23.4141 10.3222M22.3482 10.7016C22.3482 10.7016 22.8121 11.1329 22.2545 11.5331C22.2545 11.5331 22.4864 11.8968 22.0226 12.2762M22.1459 12.4555C22.1459 12.4555 22.215 13.1492 21.3663 13.1493C21.3663 13.1493 21.5291 13.7677 20.71 13.7469C20.71 13.7469 20.6162 14.2406 20.0241 14.1419M21.3288 19.5725C21.3288 19.5725 21.4631 19.6024 21.7544 19.5725M22.5735 19.9363C22.5735 19.9363 22.9831 19.8739 22.9633 20.7626M22.3268 20.1389C22.3268 20.1389 22.6969 20.0922 22.6722 20.9548M18.753 18.0602C18.753 18.0602 18.9306 18.0966 19.054 18.2369C19.1774 18.3772 19.4142 18.3513 19.4142 18.3513C19.4142 18.3513 19.2859 18.2473 19.2415 17.9875C19.1971 17.7276 19.054 17.6497 19.054 17.6497M19.4778 17.4036C19.4778 17.4036 19.6554 17.44 19.7788 17.5803C19.9021 17.7206 20.139 17.6946 20.139 17.6946C20.139 17.6946 20.0107 17.5907 19.9663 17.3309C19.9219 17.071 19.7788 16.9931 19.7788 16.9931M19.5999 18.4123C19.5999 18.4123 19.755 18.4441 19.8627 18.5666C19.9704 18.6891 20.1773 18.6664 20.1773 18.6664C20.1773 18.6664 20.0652 18.5756 20.0265 18.3488C19.9877 18.1219 19.8627 18.0538 19.8627 18.0538" stroke="#010002" stroke-width="0.075275"/>
<path d="M23.7344 17.0469L23.3044 16.7974L22.5884 19.8882L22.293 19.676L22.9899 16.7148L22.504 16.7238L23.6575 14.6113L23.7344 17.0469ZM25.4213 17.8828L25.1528 17.4499L23.0039 19.9891L22.7712 19.7286L24.912 17.2216L24.479 16.9891L26.4392 15.6944L25.4213 17.8828Z" fill="#0081C6" stroke="#010002" stroke-width="0.075275" stroke-miterlimit="10"/>
<path d="M24.984 16.4614L24.6299 16.1033L22.7065 19.8014L22.4102 19.6285L24.3464 15.9378L23.8748 15.814L25.5083 14.0879L24.984 16.4614Z" fill="#0081C6" stroke="#010002" stroke-width="0.075275" stroke-miterlimit="10"/>
<path d="M22.2329 20.9289L22.0888 21.5179L22.4832 21.9109L21.9257 24.2655L21.4299 23.5995L20.6953 23.9424L21.2527 21.5878L21.7696 21.4437L21.9037 20.8557C21.9037 20.8557 22.0599 20.7945 22.2328 20.929L22.2329 20.9289Z" fill="#0081C6" stroke="#010002" stroke-width="0.07525" stroke-miterlimit="10"/>
<path d="M22.3625 20.5394L22.0786 21.0691L22.363 21.5562L21.2459 23.6787L20.9307 22.9002L20.1367 23.0311L21.2538 20.9086L21.7885 20.9103L22.0626 20.3789C22.0626 20.3789 22.262 20.3785 22.3626 20.5393L22.3625 20.5394Z" fill="#0081C6" stroke="#010002" stroke-width="0.07525" stroke-miterlimit="10"/>
<path d="M22.4108 20.6945L21.6556 21.6539L21.8288 22.1957L20.2869 23.9992L20.146 23.166L19.3444 23.1055L20.8863 21.3021L21.4069 21.4304L22.2079 20.4119C22.2079 20.4119 22.4228 20.5185 22.4108 20.6944V20.6945ZM3.27581 18.4453C3.45581 18.3717 3.58544 18.3008 3.58488 18.1087C3.58475 18.0629 3.55925 17.9615 3.50825 17.8047L2.29931 14.1102C2.22769 13.8908 2.17356 13.7602 2.1485 13.7122C2.09412 13.608 1.98744 13.5657 1.84375 13.5059H3.38025C3.21337 13.5847 3.06112 13.6473 3.06256 13.8243C3.06306 13.8918 3.08206 13.9871 3.12131 14.1101L4.04737 17.0093L4.9725 14.1101C5.01163 13.9871 5.03188 13.8919 5.03125 13.8243C5.02938 13.6424 4.871 13.5768 4.71531 13.5059H6.20425C6.06819 13.5604 5.95719 13.603 5.90019 13.7121C5.87506 13.7601 5.821 13.8906 5.74944 14.11L4.54081 17.8047C4.48956 17.9615 4.47112 18.0647 4.46406 18.1123C4.46406 18.1123 4.40844 18.3459 4.77325 18.4452H3.27581V18.4453ZM29.0373 18.0653V13.8822C29.0373 13.8098 29.0254 13.7544 29.0016 13.7157C28.9777 13.6772 28.8739 13.5659 28.7257 13.5059H30.1101C29.9619 13.5549 29.8581 13.674 29.8343 13.7139C29.8104 13.7537 29.7984 13.8097 29.7984 13.8821V18.0652C29.7984 18.14 29.8108 18.1973 29.8355 18.2371C29.8602 18.2769 29.9619 18.374 30.1101 18.4452H28.7256C28.8738 18.3777 28.9776 18.274 29.0015 18.2352C29.0253 18.1967 29.0373 18.14 29.0373 18.0652L29.0373 18.0653Z" fill="#0081C6" stroke="#010002" stroke-width="0.07525" stroke-miterlimit="10"/>
<path d="M16.2418 19.489C16.2418 19.489 19.9468 17.8471 19.9561 14.0488H12.5273C12.5367 17.8471 16.2417 19.489 16.2417 19.489L16.2418 19.489Z" fill="white" stroke="#010002" stroke-width="0.07525"/>
<path d="M13.0977 14.0488V16.4757C13.0977 16.4757 13.3814 17.0385 13.6691 17.3915V14.0488H13.0977Z" fill="#A60032" stroke="#010002" stroke-width="0.075275"/>
<path d="M14.2422 14.0489V18.0493C14.2422 18.0493 14.5996 18.3997 14.8136 18.5687V14.0488H14.2422V14.0489ZM15.3851 14.0489V18.9938C15.3851 18.9938 15.7928 19.2571 15.9565 19.3435V14.0489H15.3851ZM19.3851 14.0489V16.4756C19.3851 16.4756 19.1013 17.0385 18.8136 17.3915V14.0489H19.3851ZM18.2422 14.0489V18.0493C18.2422 18.0493 17.8848 18.3997 17.6707 18.5687V14.0488H18.2423L18.2422 14.0489ZM17.0993 14.0489V18.9938C17.0993 18.9938 16.6916 19.2571 16.5279 19.3435V14.0489H17.0993Z" fill="#A60032" stroke="#010002" stroke-width="0.07525"/>
<path d="M19.9561 11.2891C19.9561 11.2891 18.138 12.24 16.2417 11.2109C14.3455 12.24 12.5273 11.2891 12.5273 11.2891V14.0484H19.9561V11.2891Z" fill="#162667" stroke="#010002" stroke-width="0.07525" stroke-miterlimit="10"/>
</g>
</g>
</g>
<rect x="-0.5" y="0.5" width="33" height="33" rx="16.5" stroke="black" stroke-opacity="0.04"/>
</g>
<defs>
<clipPath id="clip0_328_22955">
<rect width="32" height="32" rx="16" fill="white"/>
</clipPath>
<clipPath id="clip1_328_22955">
<rect width="32" height="32" fill="white"/>
</clipPath>
<clipPath id="clip2_328_22955">
<rect width="32" height="32" fill="white"/>
</clipPath>
<clipPath id="clip3_328_22955">
<rect width="32" height="32" fill="white"/>
</clipPath>
</defs>
</svg>
