<svg width="32" height="32" viewBox="0 0 32 32" fill="none" xmlns="http://www.w3.org/2000/svg">
<g clip-path="url(#clip0_328_2980)">
<g clip-path="url(#clip1_328_2980)">
<g clip-path="url(#clip2_328_2980)">
<g clip-path="url(#clip3_328_2980)">
<path fill-rule="evenodd" clip-rule="evenodd" d="M0 0H60.8006V2.46156H0V0ZM0 4.92312H60.8006V7.38469H0V4.92312ZM0 9.84625H60.8006V12.3078H0V9.84625ZM0 14.7694H60.8006V17.2309H0V14.7694ZM0 19.6925H60.8006V22.1541H0V19.6925ZM0 24.6156H60.8006V27.0772H0V24.6156ZM0 29.5387H60.8006V32.0003H0V29.5387Z" fill="#BD3D44"/>
<path fill-rule="evenodd" clip-rule="evenodd" d="M0 2.46094H60.8006V4.9225H0V2.46094ZM0 7.38406H60.8006V9.84562H0V7.38406ZM0 12.3072H60.8006V14.7688H0V12.3072ZM0 17.2303H60.8006V19.6919H0V17.2303ZM0 22.1534H60.8006V24.615H0V22.1534ZM0 27.0766H60.8006V29.5381H0V27.0766Z" fill="white"/>
<path fill-rule="evenodd" clip-rule="evenodd" d="M0 0H24.3202V17.2309H0V0Z" fill="#192F5D"/>
<path fill-rule="evenodd" clip-rule="evenodd" d="M2.02721 0.738281L2.24875 1.4194H2.96457L2.38536 1.84032L2.60666 2.52119L2.02721 2.10026L1.448 2.52119L1.6693 1.84032L1.08984 1.4194H1.80616L2.02721 0.738281ZM6.08066 0.738281L6.30196 1.4194H7.01802L6.43882 1.84032L6.65987 2.52119L6.08066 2.10051L5.50146 2.52144L5.7225 1.84057L5.1433 1.41964H5.85937L6.08066 0.738281ZM10.1341 0.738281L10.3554 1.4194H11.0715L10.4923 1.84032L10.7136 2.52119L10.1341 2.10026L9.55491 2.52119L9.77621 1.84032L9.19675 1.4194H9.91307L10.1341 0.738281ZM14.1873 0.738281L14.4086 1.4194H15.1247L14.5455 1.84032L14.7668 2.52119L14.1873 2.10026L13.6081 2.52119L13.8294 1.84032L13.25 1.4194H13.9663L14.1873 0.738281ZM18.2408 0.738281L18.4621 1.4194H19.1781L18.5987 1.84032L18.8202 2.52119L18.2408 2.10051L17.6616 2.52144L17.8826 1.84057L17.3034 1.41964H18.0195L18.2408 0.738281ZM22.2942 0.738281L22.5155 1.4194H23.2316L22.6521 1.84032L22.8737 2.52119L22.2942 2.10026L21.715 2.52119L21.9361 1.84032L21.3569 1.4194H22.0729L22.2942 0.738281ZM4.05406 2.46137L4.27535 3.14249H4.99142L4.41221 3.56342L4.63326 4.24428L4.05406 3.82336L3.47485 4.24428L3.6959 3.56342L3.11669 3.14249H3.83276L4.05406 2.46137ZM8.10727 2.46137L8.32856 3.14249H9.04463L8.46542 3.56342L8.68672 4.24428L8.10727 3.82336L7.52806 4.24428L7.74935 3.56342L7.1699 3.14249H7.88622L8.10727 2.46137ZM12.1607 2.46137L12.382 3.14249H13.0981L12.5189 3.56342L12.7402 4.24428L12.1607 3.82336L11.5815 4.24428L11.8028 3.56342L11.2234 3.14249H11.9397L12.1607 2.46137ZM16.2142 2.46137L16.4355 3.14249H17.1515L16.5723 3.56342L16.7934 4.24428L16.2142 3.82336L15.635 4.24428L15.8563 3.56342L15.2768 3.14249H15.9931L16.2142 2.46137ZM20.2674 2.46137L20.4887 3.14249H21.2047L20.6253 3.56342L20.8468 4.24428L20.2674 3.82336L19.6882 4.24428L19.9092 3.56342L19.33 3.14249H20.0461L20.2674 2.46137ZM2.02721 4.18447L2.24875 4.86558H2.96457L2.38536 5.28651L2.60666 5.96738L2.02721 5.54645L1.448 5.96738L1.6693 5.28651L1.08984 4.86558H1.80616L2.02721 4.18447ZM6.08066 4.18447L6.30196 4.86558H7.01802L6.43882 5.28651L6.65987 5.96738L6.08066 5.54645L5.50146 5.96738L5.7225 5.28651L5.1433 4.86558H5.85937L6.08066 4.18447ZM10.1341 4.18447L10.3554 4.86558H11.0715L10.4923 5.28651L10.7136 5.96738L10.1341 5.54645L9.55491 5.96738L9.77621 5.28651L9.19675 4.86558H9.91307L10.1341 4.18447ZM14.1873 4.18447L14.4086 4.86558H15.1247L14.5455 5.28651L14.7668 5.96738L14.1873 5.54645L13.6081 5.96738L13.8294 5.28651L13.25 4.86558H13.9663L14.1873 4.18447ZM18.2408 4.18447L18.4621 4.86558H19.1781L18.5987 5.28651L18.8202 5.96738L18.2408 5.54645L17.6616 5.96738L17.8826 5.28651L17.3034 4.86558H18.0195L18.2408 4.18447ZM22.2942 4.18447L22.5155 4.86558H23.2316L22.6521 5.28651L22.8737 5.96738L22.2942 5.54645L21.715 5.96738L21.9361 5.28651L21.3569 4.86558H22.0729L22.2942 4.18447ZM4.05406 5.90756L4.27535 6.58868H4.99142L4.41221 7.0096L4.63326 7.69047L4.05406 7.26954L3.47485 7.69047L3.6959 7.0096L3.11669 6.58868H3.83276L4.05406 5.90756ZM8.10727 5.90756L8.32856 6.58868H9.04463L8.46542 7.0096L8.68672 7.69047L8.10727 7.26954L7.52806 7.69047L7.74935 7.0096L7.1699 6.58868H7.88622L8.10727 5.90756ZM12.1607 5.90756L12.382 6.58868H13.0981L12.5189 7.0096L12.7402 7.69047L12.1607 7.26954L11.5815 7.69047L11.8028 7.0096L11.2234 6.58868H11.9397L12.1607 5.90756ZM16.2142 5.90756L16.4355 6.58868H17.1515L16.5723 7.0096L16.7934 7.69047L16.2142 7.26954L15.635 7.69047L15.8563 7.0096L15.2768 6.58868H15.9931L16.2142 5.90756ZM20.2674 5.90756L20.4887 6.58868H21.2047L20.6253 7.0096L20.8468 7.69047L20.2674 7.26954L19.6882 7.69047L19.9092 7.0096L19.33 6.58868H20.0461L20.2674 5.90756ZM2.02721 7.63066L2.24875 8.31177H2.96457L2.38536 8.7327L2.60666 9.41357L2.02721 8.99264L1.448 9.41357L1.6693 8.7327L1.08984 8.31177H1.80616L2.02721 7.63066ZM6.08066 7.63066L6.30196 8.31177H7.01802L6.43882 8.7327L6.65987 9.41357L6.08066 8.99264L5.50146 9.41357L5.7225 8.7327L5.1433 8.31177H5.85937L6.08066 7.63066ZM10.1341 7.63066L10.3554 8.31177H11.0715L10.4923 8.7327L10.7136 9.41357L10.1341 8.99264L9.55491 9.41357L9.77621 8.7327L9.19675 8.31177H9.91307L10.1341 7.63066ZM14.1873 7.63066L14.4086 8.31177H15.1247L14.5455 8.7327L14.7668 9.41357L14.1873 8.99264L13.6081 9.41357L13.8294 8.7327L13.25 8.31177H13.9663L14.1873 7.63066ZM18.2408 7.63066L18.4621 8.31177H19.1781L18.5987 8.7327L18.8202 9.41357L18.2408 8.99264L17.6616 9.41357L17.8826 8.7327L17.3034 8.31177H18.0195L18.2408 7.63066ZM22.2942 7.63066L22.5155 8.31177H23.2316L22.6521 8.7327L22.8737 9.41357L22.2942 8.99264L21.715 9.41357L21.9361 8.7327L21.3569 8.31177H22.0729L22.2942 7.63066ZM4.05406 9.35375L4.27535 10.0349H4.99142L4.41221 10.4558L4.63326 11.1367L4.05406 10.7157L3.47485 11.1367L3.6959 10.4558L3.11669 10.0349H3.83276L4.05406 9.35375ZM8.10727 9.35375L8.32856 10.0349H9.04463L8.46542 10.4558L8.68672 11.1367L8.10727 10.7157L7.52806 11.1367L7.74935 10.4558L7.1699 10.0349H7.88622L8.10727 9.35375ZM12.1607 9.35375L12.382 10.0349H13.0981L12.5189 10.4558L12.7402 11.1367L12.1607 10.7157L11.5815 11.1367L11.8028 10.4558L11.2234 10.0349H11.9397L12.1607 9.35375ZM16.2142 9.35375L16.4355 10.0349H17.1515L16.5723 10.4558L16.7934 11.1367L16.2142 10.7157L15.635 11.1367L15.8563 10.4558L15.2768 10.0349H15.9931L16.2142 9.35375ZM20.2674 9.35375L20.4887 10.0349H21.2047L20.6253 10.4558L20.8468 11.1367L20.2674 10.7157L19.6882 11.1367L19.9092 10.4558L19.33 10.0349H20.0461L20.2674 9.35375Z" fill="white"/>
<path fill-rule="evenodd" clip-rule="evenodd" d="M2.02721 11.0781L2.24875 11.7592H2.96457L2.38536 12.1802L2.60666 12.861L2.02721 12.4401L1.448 12.861L1.6693 12.1802L1.08984 11.7592H1.80616L2.02721 11.0781ZM6.08066 11.0781L6.30196 11.7592H7.01802L6.43882 12.1802L6.65987 12.861L6.08066 12.4401L5.50146 12.861L5.7225 12.1802L5.1433 11.7592H5.85937L6.08066 11.0781ZM10.1341 11.0781L10.3554 11.7592H11.0715L10.4923 12.1802L10.7136 12.861L10.1341 12.4401L9.55491 12.861L9.77621 12.1802L9.19675 11.7592H9.91307L10.1341 11.0781ZM14.1873 11.0781L14.4086 11.7592H15.1247L14.5455 12.1802L14.7668 12.861L14.1873 12.4401L13.6081 12.861L13.8294 12.1802L13.25 11.7592H13.9663L14.1873 11.0781ZM18.2408 11.0781L18.4621 11.7592H19.1781L18.5987 12.1802L18.8202 12.861L18.2408 12.4401L17.6616 12.861L17.8826 12.1802L17.3034 11.7592H18.0195L18.2408 11.0781ZM22.2942 11.0781L22.5155 11.7592H23.2316L22.6521 12.1802L22.8737 12.861L22.2942 12.4401L21.715 12.861L21.9361 12.1802L21.3569 11.7592H22.0729L22.2942 11.0781ZM4.05406 12.8012L4.27535 13.4823H4.99142L4.41221 13.9033L4.63326 14.5841L4.05406 14.1632L3.47485 14.5841L3.6959 13.9033L3.11669 13.4823H3.83276L4.05406 12.8012ZM8.10727 12.8012L8.32856 13.4823H9.04463L8.46542 13.9033L8.68672 14.5841L8.10727 14.1632L7.52806 14.5841L7.74935 13.9033L7.1699 13.4823H7.88622L8.10727 12.8012ZM12.1607 12.8012L12.382 13.4823H13.0981L12.5189 13.9033L12.7402 14.5841L12.1607 14.1632L11.5815 14.5841L11.8028 13.9033L11.2234 13.4823H11.9397L12.1607 12.8012ZM16.2142 12.8012L16.4355 13.4823H17.1515L16.5723 13.9033L16.7934 14.5841L16.2142 14.1632L15.635 14.5841L15.8563 13.9033L15.2768 13.4823H15.9931L16.2142 12.8012ZM20.2674 12.8012L20.4887 13.4823H21.2047L20.6253 13.9033L20.8468 14.5841L20.2674 14.1632L19.6882 14.5841L19.9092 13.9033L19.33 13.4823H20.0461L20.2674 12.8012Z" fill="white"/>
<path fill-rule="evenodd" clip-rule="evenodd" d="M2.02721 14.5234L2.24875 15.2046H2.96457L2.38536 15.6255L2.60666 16.3063L2.02721 15.8854L1.448 16.3063L1.6693 15.6255L1.08984 15.2046H1.80616L2.02721 14.5234ZM6.08066 14.5234L6.30196 15.2046H7.01802L6.43882 15.6255L6.65987 16.3063L6.08066 15.8854L5.50146 16.3063L5.7225 15.6255L5.1433 15.2046H5.85937L6.08066 14.5234ZM10.1341 14.5234L10.3554 15.2046H11.0715L10.4923 15.6255L10.7136 16.3063L10.1341 15.8854L9.55491 16.3063L9.77621 15.6255L9.19675 15.2046H9.91307L10.1341 14.5234ZM14.1873 14.5234L14.4086 15.2046H15.1247L14.5455 15.6255L14.7668 16.3063L14.1873 15.8854L13.6081 16.3063L13.8294 15.6255L13.25 15.2046H13.9663L14.1873 14.5234ZM18.2408 14.5234L18.4621 15.2046H19.1781L18.5987 15.6255L18.8202 16.3063L18.2408 15.8854L17.6616 16.3063L17.8826 15.6255L17.3034 15.2046H18.0195L18.2408 14.5234ZM22.2942 14.5234L22.5155 15.2046H23.2316L22.6521 15.6255L22.8737 16.3063L22.2942 15.8854L21.715 16.3063L21.9361 15.6255L21.3569 15.2046H22.0729L22.2942 14.5234Z" fill="white"/>
</g>
</g>
</g>
<rect x="-0.5" y="0.5" width="33" height="33" rx="16.5" stroke="black" stroke-opacity="0.04"/>
</g>
<defs>
<clipPath id="clip0_328_2980">
<rect width="32" height="32" rx="16" fill="white"/>
</clipPath>
<clipPath id="clip1_328_2980">
<rect width="32" height="32" fill="white"/>
</clipPath>
<clipPath id="clip2_328_2980">
<rect width="32" height="32" fill="white"/>
</clipPath>
<clipPath id="clip3_328_2980">
<rect width="32" height="32" fill="white"/>
</clipPath>
</defs>
</svg>
