<svg width="20" height="20" viewBox="0 0 20 20" fill="none" xmlns="http://www.w3.org/2000/svg">
<g clip-path="url(#clip0_328_19370)">
<g clip-path="url(#clip1_328_19370)">
<g clip-path="url(#clip2_328_19370)">
<g clip-path="url(#clip3_328_19370)">
<path fill-rule="evenodd" clip-rule="evenodd" d="M0 0H38.0004V1.53848H0V0ZM0 3.07695H38.0004V4.61543H0V3.07695ZM0 6.15391H38.0004V7.69238H0V6.15391ZM0 9.23086H38.0004V10.7693H0V9.23086ZM0 12.3078H38.0004V13.8463H0V12.3078ZM0 15.3848H38.0004V16.9232H0V15.3848ZM0 18.4617H38.0004V20.0002H0V18.4617Z" fill="#BD3D44"/>
<path fill-rule="evenodd" clip-rule="evenodd" d="M0 1.53906H38.0004V3.07754H0V1.53906ZM0 4.61602H38.0004V6.15449H0V4.61602ZM0 7.69297H38.0004V9.23144H0V7.69297ZM0 10.7699H38.0004V12.3084H0V10.7699ZM0 13.8469H38.0004V15.3854H0V13.8469ZM0 16.9238H38.0004V18.4623H0V16.9238Z" fill="white"/>
<path fill-rule="evenodd" clip-rule="evenodd" d="M0 0H15.2001V10.7693H0V0Z" fill="#192F5D"/>
<path fill-rule="evenodd" clip-rule="evenodd" d="M1.26652 0.460938L1.40498 0.886634H1.85237L1.49036 1.14971L1.62867 1.57526L1.26652 1.31218L0.904512 1.57526L1.04282 1.14971L0.680664 0.886634H1.12836L1.26652 0.460938ZM3.79993 0.460938L3.93823 0.886634H4.38578L4.02377 1.14971L4.16193 1.57526L3.79993 1.31233L3.43792 1.57541L3.57608 1.14987L3.21407 0.886788H3.66162L3.79993 0.460938ZM6.33333 0.460938L6.47164 0.886634H6.91919L6.55718 1.14971L6.69549 1.57526L6.33333 1.31218L5.97133 1.57526L6.10964 1.14971L5.74748 0.886634H6.19518L6.33333 0.460938ZM8.86659 0.460938L9.0049 0.886634H9.45244L9.09044 1.14971L9.22875 1.57526L8.86659 1.31218L8.50459 1.57526L8.6429 1.14971L8.28074 0.886634H8.72844L8.86659 0.460938ZM11.4 0.460938L11.5383 0.886634H11.9859L11.6237 1.14971L11.7622 1.57526L11.4 1.31233L11.038 1.57541L11.1762 1.14987L10.8141 0.886788H11.2617L11.4 0.460938ZM13.9334 0.460938L14.0717 0.886634H14.5193L14.1571 1.14971L14.2956 1.57526L13.9334 1.31218L13.5714 1.57526L13.7096 1.14971L13.3476 0.886634H13.7951L13.9334 0.460938ZM2.5333 1.53787L2.67161 1.96357H3.11915L2.75715 2.22665L2.8953 2.65219L2.5333 2.38911L2.17129 2.65219L2.30945 2.22665L1.94745 1.96357H2.39499L2.5333 1.53787ZM5.06655 1.53787L5.20486 1.96357H5.65241L5.2904 2.22665L5.42871 2.65219L5.06655 2.38911L4.70455 2.65219L4.84286 2.22665L4.4807 1.96357H4.9284L5.06655 1.53787ZM7.59996 1.53787L7.73827 1.96357H8.18581L7.82381 2.22665L7.96212 2.65219L7.59996 2.38911L7.23796 2.65219L7.37627 2.22665L7.01411 1.96357H7.46181L7.59996 1.53787ZM10.1334 1.53787L10.2717 1.96357H10.7192L10.3572 2.22665L10.4954 2.65219L10.1334 2.38911L9.77137 2.65219L9.90968 2.22665L9.54752 1.96357H9.99522L10.1334 1.53787ZM12.6666 1.53787L12.8049 1.96357H13.2525L12.8903 2.22665L13.0288 2.65219L12.6666 2.38911L12.3046 2.65219L12.4428 2.22665L12.0808 1.96357H12.5283L12.6666 1.53787ZM1.26652 2.6148L1.40498 3.0405H1.85237L1.49036 3.30358L1.62867 3.72912L1.26652 3.46604L0.904512 3.72912L1.04282 3.30358L0.680664 3.0405H1.12836L1.26652 2.6148ZM3.79993 2.6148L3.93823 3.0405H4.38578L4.02377 3.30358L4.16193 3.72912L3.79993 3.46604L3.43792 3.72912L3.57608 3.30358L3.21407 3.0405H3.66162L3.79993 2.6148ZM6.33333 2.6148L6.47164 3.0405H6.91919L6.55718 3.30358L6.69549 3.72912L6.33333 3.46604L5.97133 3.72912L6.10964 3.30358L5.74748 3.0405H6.19518L6.33333 2.6148ZM8.86659 2.6148L9.0049 3.0405H9.45244L9.09044 3.30358L9.22875 3.72912L8.86659 3.46604L8.50459 3.72912L8.6429 3.30358L8.28074 3.0405H8.72844L8.86659 2.6148ZM11.4 2.6148L11.5383 3.0405H11.9859L11.6237 3.30358L11.7622 3.72912L11.4 3.46604L11.038 3.72912L11.1762 3.30358L10.8141 3.0405H11.2617L11.4 2.6148ZM13.9334 2.6148L14.0717 3.0405H14.5193L14.1571 3.30358L14.2956 3.72912L13.9334 3.46604L13.5714 3.72912L13.7096 3.30358L13.3476 3.0405H13.7951L13.9334 2.6148ZM2.5333 3.69174L2.67161 4.11743H3.11915L2.75715 4.38051L2.8953 4.80606L2.5333 4.54298L2.17129 4.80606L2.30945 4.38051L1.94745 4.11743H2.39499L2.5333 3.69174ZM5.06655 3.69174L5.20486 4.11743H5.65241L5.2904 4.38051L5.42871 4.80606L5.06655 4.54298L4.70455 4.80606L4.84286 4.38051L4.4807 4.11743H4.9284L5.06655 3.69174ZM7.59996 3.69174L7.73827 4.11743H8.18581L7.82381 4.38051L7.96212 4.80606L7.59996 4.54298L7.23796 4.80606L7.37627 4.38051L7.01411 4.11743H7.46181L7.59996 3.69174ZM10.1334 3.69174L10.2717 4.11743H10.7192L10.3572 4.38051L10.4954 4.80606L10.1334 4.54298L9.77137 4.80606L9.90968 4.38051L9.54752 4.11743H9.99522L10.1334 3.69174ZM12.6666 3.69174L12.8049 4.11743H13.2525L12.8903 4.38051L13.0288 4.80606L12.6666 4.54298L12.3046 4.80606L12.4428 4.38051L12.0808 4.11743H12.5283L12.6666 3.69174ZM1.26652 4.76867L1.40498 5.19437H1.85237L1.49036 5.45745L1.62867 5.88299L1.26652 5.61991L0.904512 5.88299L1.04282 5.45745L0.680664 5.19437H1.12836L1.26652 4.76867ZM3.79993 4.76867L3.93823 5.19437H4.38578L4.02377 5.45745L4.16193 5.88299L3.79993 5.61991L3.43792 5.88299L3.57608 5.45745L3.21407 5.19437H3.66162L3.79993 4.76867ZM6.33333 4.76867L6.47164 5.19437H6.91919L6.55718 5.45745L6.69549 5.88299L6.33333 5.61991L5.97133 5.88299L6.10964 5.45745L5.74748 5.19437H6.19518L6.33333 4.76867ZM8.86659 4.76867L9.0049 5.19437H9.45244L9.09044 5.45745L9.22875 5.88299L8.86659 5.61991L8.50459 5.88299L8.6429 5.45745L8.28074 5.19437H8.72844L8.86659 4.76867ZM11.4 4.76867L11.5383 5.19437H11.9859L11.6237 5.45745L11.7622 5.88299L11.4 5.61991L11.038 5.88299L11.1762 5.45745L10.8141 5.19437H11.2617L11.4 4.76867ZM13.9334 4.76867L14.0717 5.19437H14.5193L14.1571 5.45745L14.2956 5.88299L13.9334 5.61991L13.5714 5.88299L13.7096 5.45745L13.3476 5.19437H13.7951L13.9334 4.76867ZM2.5333 5.84561L2.67161 6.2713H3.11915L2.75715 6.53438L2.8953 6.95992L2.5333 6.69684L2.17129 6.95992L2.30945 6.53438L1.94745 6.2713H2.39499L2.5333 5.84561ZM5.06655 5.84561L5.20486 6.2713H5.65241L5.2904 6.53438L5.42871 6.95992L5.06655 6.69684L4.70455 6.95992L4.84286 6.53438L4.4807 6.2713H4.9284L5.06655 5.84561ZM7.59996 5.84561L7.73827 6.2713H8.18581L7.82381 6.53438L7.96212 6.95992L7.59996 6.69684L7.23796 6.95992L7.37627 6.53438L7.01411 6.2713H7.46181L7.59996 5.84561ZM10.1334 5.84561L10.2717 6.2713H10.7192L10.3572 6.53438L10.4954 6.95992L10.1334 6.69684L9.77137 6.95992L9.90968 6.53438L9.54752 6.2713H9.99522L10.1334 5.84561ZM12.6666 5.84561L12.8049 6.2713H13.2525L12.8903 6.53438L13.0288 6.95992L12.6666 6.69684L12.3046 6.95992L12.4428 6.53438L12.0808 6.2713H12.5283L12.6666 5.84561Z" fill="white"/>
<path fill-rule="evenodd" clip-rule="evenodd" d="M1.26652 6.92188L1.40498 7.34757H1.85237L1.49036 7.61065L1.62867 8.03619L1.26652 7.77311L0.904512 8.03619L1.04282 7.61065L0.680664 7.34757H1.12836L1.26652 6.92188ZM3.79993 6.92188L3.93823 7.34757H4.38578L4.02377 7.61065L4.16193 8.03619L3.79993 7.77311L3.43792 8.03619L3.57608 7.61065L3.21407 7.34757H3.66162L3.79993 6.92188ZM6.33333 6.92188L6.47164 7.34757H6.91919L6.55718 7.61065L6.69549 8.03619L6.33333 7.77311L5.97133 8.03619L6.10964 7.61065L5.74748 7.34757H6.19518L6.33333 6.92188ZM8.86659 6.92188L9.0049 7.34757H9.45244L9.09044 7.61065L9.22875 8.03619L8.86659 7.77311L8.50459 8.03619L8.6429 7.61065L8.28074 7.34757H8.72844L8.86659 6.92188ZM11.4 6.92188L11.5383 7.34757H11.9859L11.6237 7.61065L11.7622 8.03619L11.4 7.77311L11.038 8.03619L11.1762 7.61065L10.8141 7.34757H11.2617L11.4 6.92188ZM13.9334 6.92188L14.0717 7.34757H14.5193L14.1571 7.61065L14.2956 8.03619L13.9334 7.77311L13.5714 8.03619L13.7096 7.61065L13.3476 7.34757H13.7951L13.9334 6.92188ZM2.5333 7.99881L2.67161 8.42451H3.11915L2.75715 8.68758L2.8953 9.11313L2.5333 8.85005L2.17129 9.11313L2.30945 8.68758L1.94745 8.42451H2.39499L2.5333 7.99881ZM5.06655 7.99881L5.20486 8.42451H5.65241L5.2904 8.68758L5.42871 9.11313L5.06655 8.85005L4.70455 9.11313L4.84286 8.68758L4.4807 8.42451H4.9284L5.06655 7.99881ZM7.59996 7.99881L7.73827 8.42451H8.18581L7.82381 8.68758L7.96212 9.11313L7.59996 8.85005L7.23796 9.11313L7.37627 8.68758L7.01411 8.42451H7.46181L7.59996 7.99881ZM10.1334 7.99881L10.2717 8.42451H10.7192L10.3572 8.68758L10.4954 9.11313L10.1334 8.85005L9.77137 9.11313L9.90968 8.68758L9.54752 8.42451H9.99522L10.1334 7.99881ZM12.6666 7.99881L12.8049 8.42451H13.2525L12.8903 8.68758L13.0288 9.11313L12.6666 8.85005L12.3046 9.11313L12.4428 8.68758L12.0808 8.42451H12.5283L12.6666 7.99881Z" fill="white"/>
<path fill-rule="evenodd" clip-rule="evenodd" d="M1.26652 9.07617L1.40498 9.50187H1.85237L1.49036 9.76495L1.62867 10.1905L1.26652 9.92741L0.904512 10.1905L1.04282 9.76495L0.680664 9.50187H1.12836L1.26652 9.07617ZM3.79993 9.07617L3.93823 9.50187H4.38578L4.02377 9.76495L4.16193 10.1905L3.79993 9.92741L3.43792 10.1905L3.57608 9.76495L3.21407 9.50187H3.66162L3.79993 9.07617ZM6.33333 9.07617L6.47164 9.50187H6.91919L6.55718 9.76495L6.69549 10.1905L6.33333 9.92741L5.97133 10.1905L6.10964 9.76495L5.74748 9.50187H6.19518L6.33333 9.07617ZM8.86659 9.07617L9.0049 9.50187H9.45244L9.09044 9.76495L9.22875 10.1905L8.86659 9.92741L8.50459 10.1905L8.6429 9.76495L8.28074 9.50187H8.72844L8.86659 9.07617ZM11.4 9.07617L11.5383 9.50187H11.9859L11.6237 9.76495L11.7622 10.1905L11.4 9.92741L11.038 10.1905L11.1762 9.76495L10.8141 9.50187H11.2617L11.4 9.07617ZM13.9334 9.07617L14.0717 9.50187H14.5193L14.1571 9.76495L14.2956 10.1905L13.9334 9.92741L13.5714 10.1905L13.7096 9.76495L13.3476 9.50187H13.7951L13.9334 9.07617Z" fill="white"/>
</g>
</g>
</g>
</g>
<defs>
<clipPath id="clip0_328_19370">
<rect width="20" height="20" rx="10" fill="white"/>
</clipPath>
<clipPath id="clip1_328_19370">
<rect width="20" height="20" fill="white"/>
</clipPath>
<clipPath id="clip2_328_19370">
<rect width="20" height="20" fill="white"/>
</clipPath>
<clipPath id="clip3_328_19370">
<rect width="20" height="20" fill="white"/>
</clipPath>
</defs>
</svg>
