<svg width="16" height="16" viewBox="0 0 16 16" fill="none" xmlns="http://www.w3.org/2000/svg">
<g clip-path="url(#clip0_328_26186)">
<path d="M9.69052 6.31328L6.31719 9.68661C5.88385 9.25328 5.61719 8.65995 5.61719 7.99995C5.61719 6.67995 6.68385 5.61328 8.00385 5.61328C8.66385 5.61328 9.25719 5.87995 9.69052 6.31328Z" stroke="#171717" stroke-linecap="round" stroke-linejoin="round"/>
<path d="M11.8799 3.84633C10.7132 2.96633 9.3799 2.48633 7.9999 2.48633C5.64656 2.48633 3.45323 3.87299 1.92656 6.27299C1.32656 7.21299 1.32656 8.793 1.92656 9.733C2.45323 10.5597 3.06656 11.273 3.73323 11.8463" stroke="#171717" stroke-linecap="round" stroke-linejoin="round"/>
<path d="M5.61719 13.0204C6.37719 13.3404 7.18385 13.5138 8.00385 13.5138C10.3572 13.5138 12.5505 12.1271 14.0772 9.72711C14.6772 8.78711 14.6772 7.20711 14.0772 6.26711C13.8572 5.92044 13.6172 5.59378 13.3705 5.28711" stroke="#171717" stroke-linecap="round" stroke-linejoin="round"/>
<path d="M10.3409 8.4668C10.1676 9.4068 9.40094 10.1735 8.46094 10.3468" stroke="#171717" stroke-linecap="round" stroke-linejoin="round"/>
<path d="M6.31594 9.6875L1.33594 14.6675" stroke="#171717" stroke-linecap="round" stroke-linejoin="round"/>
<path d="M14.6675 1.33398L9.6875 6.31398" stroke="#171717" stroke-linecap="round" stroke-linejoin="round"/>
</g>
<defs>
<clipPath id="clip0_328_26186">
<rect width="16" height="16" fill="white"/>
</clipPath>
</defs>
</svg>
