<svg width="45" height="45" viewBox="0 0 45 45" fill="none" xmlns="http://www.w3.org/2000/svg">
<rect width="45" height="45" rx="15" fill="#ADE2A9"/>
<g clip-path="url(#clip0_328_26191)">
<path d="M32.2431 22.07C32.1931 21.56 31.7631 21.18 31.2531 21.18H23.7031C23.1531 21.18 22.7031 21.63 22.7031 22.18V23.89C22.7031 24.44 23.1531 24.89 23.7031 24.89H28.2131C28.1031 25.81 27.5031 27.2 26.1731 28.13C25.3231 28.72 24.1931 29.13 22.7031 29.13C22.6331 29.13 22.5731 29.13 22.5031 29.12C19.9531 29.04 17.7931 27.33 17.0131 24.98C16.8031 24.35 16.6831 23.69 16.6831 23C16.6831 22.31 16.8031 21.64 17.0031 21.02C17.0631 20.84 17.1331 20.66 17.2131 20.48C18.1331 18.41 20.1431 16.95 22.5031 16.88C22.5631 16.87 22.6331 16.87 22.7031 16.87C24.1331 16.87 25.2031 17.34 25.9531 17.86C26.3431 18.13 26.8631 18.07 27.2031 17.74L28.5931 16.38C29.0331 15.95 28.9931 15.22 28.4931 14.86C26.9031 13.69 24.9631 13 22.7031 13C22.6331 13 22.5731 13 22.5031 13.01C18.6731 13.08 15.3831 15.3 13.7731 18.51C13.0931 19.87 12.7031 21.39 12.7031 23C12.7031 24.61 13.0931 26.13 13.7731 27.49H13.7831C15.3931 30.7 18.6831 32.92 22.5031 32.99C22.5731 33 22.6331 33 22.7031 33C25.4031 33 27.6731 32.11 29.3231 30.58C31.2131 28.83 32.3031 26.27 32.3031 23.22C32.3031 22.79 32.2831 22.42 32.2431 22.07Z" fill="white"/>
</g>
<defs>
<clipPath id="clip0_328_26191">
<rect width="24" height="24" fill="white" transform="translate(11 11)"/>
</clipPath>
</defs>
</svg>
