<svg width="16" height="16" viewBox="0 0 16 16" fill="none" xmlns="http://www.w3.org/2000/svg">
<path d="M12.668 7.33268H8.66797V3.33268C8.66797 3.15587 8.59773 2.9863 8.47271 2.86128C8.34768 2.73625 8.17811 2.66602 8.0013 2.66602C7.82449 2.66602 7.65492 2.73625 7.5299 2.86128C7.40487 2.9863 7.33464 3.15587 7.33464 3.33268V7.33268H3.33464C3.15782 7.33268 2.98826 7.40292 2.86323 7.52794C2.73821 7.65297 2.66797 7.82254 2.66797 7.99935C2.66797 8.17616 2.73821 8.34573 2.86323 8.47075C2.98826 8.59578 3.15782 8.66602 3.33464 8.66602H7.33464V12.666C7.33464 12.8428 7.40487 13.0124 7.5299 13.1374C7.65492 13.2624 7.82449 13.3327 8.0013 13.3327C8.17811 13.3327 8.34768 13.2624 8.47271 13.1374C8.59773 13.0124 8.66797 12.8428 8.66797 12.666V8.66602H12.668C12.8448 8.66602 13.0143 8.59578 13.1394 8.47075C13.2644 8.34573 13.3346 8.17616 13.3346 7.99935C13.3346 7.82254 13.2644 7.65297 13.1394 7.52794C13.0143 7.40292 12.8448 7.33268 12.668 7.33268Z" fill="#010007"/>
</svg>
