<svg width="42" height="42" viewBox="0 0 42 42" fill="none" xmlns="http://www.w3.org/2000/svg">
<g clip-path="url(#clip0_328_5345)">
<g clip-path="url(#clip1_328_5345)">
<path d="M0 19.2C0 12.4794 0 9.11905 1.30792 6.55212C2.4584 4.29417 4.29417 2.4584 6.55212 1.30792C9.11905 0 12.4794 0 19.2 0H22.8C29.5206 0 32.8809 0 35.4479 1.30792C37.7058 2.4584 39.5416 4.29417 40.6922 6.55212C42 9.11905 42 12.4794 42 19.2V22.8C42 29.5206 42 32.8809 40.6922 35.4479C39.5416 37.7058 37.7058 39.5416 35.4479 40.6922C32.8809 42 29.5206 42 22.8 42H19.2C12.4794 42 9.11905 42 6.55212 40.6922C4.29417 39.5416 2.4584 37.7058 1.30792 35.4479C0 32.8809 0 29.5206 0 22.8V19.2Z" fill="black" fill-opacity="0.26"/>
<path fill-rule="evenodd" clip-rule="evenodd" d="M7.85612 20.1862C15.1038 17.0109 19.9368 14.9176 22.355 13.9062C29.2595 11.0185 30.694 10.5169 31.6292 10.5002C31.8348 10.4967 32.2947 10.5479 32.5926 10.791C32.8441 10.9962 32.9133 11.2734 32.9464 11.468C32.9796 11.6626 33.0209 12.1058 32.988 12.4522C32.6139 16.4052 30.995 25.9983 30.1713 30.4258C29.8227 32.2992 29.1366 32.9274 28.4723 32.9889C27.0284 33.1224 25.932 32.0293 24.5337 31.1077C22.3455 29.6653 21.1094 28.7674 18.9854 27.36C16.5308 25.7335 18.122 24.8395 19.5209 23.3785C19.887 22.9962 26.2482 17.178 26.3714 16.6501C26.3868 16.5841 26.4011 16.338 26.2557 16.2081C26.1103 16.0782 25.8959 16.1226 25.7409 16.158C25.5215 16.2081 22.0259 18.5313 15.2541 23.1279C14.2619 23.8129 13.3631 24.1468 12.5579 24.1293C11.6702 24.1101 9.96263 23.6245 8.69322 23.2096C7.13624 22.7007 5.89878 22.4317 6.00654 21.5674C6.06267 21.1171 6.67919 20.6568 7.85612 20.1862Z" fill="white"/>
</g>
</g>
<defs>
<clipPath id="clip0_328_5345">
<rect width="42" height="42" fill="white"/>
</clipPath>
<clipPath id="clip1_328_5345">
<rect width="42" height="42" fill="white"/>
</clipPath>
</defs>
</svg>
