<svg width="42" height="42" viewBox="0 0 42 42" fill="none" xmlns="http://www.w3.org/2000/svg">
<g clip-path="url(#clip0_328_5355)">
<g clip-path="url(#clip1_328_5355)">
<path d="M0 19.2C0 12.4794 0 9.11905 1.30792 6.55212C2.4584 4.29417 4.29417 2.4584 6.55212 1.30792C9.11905 0 12.4794 0 19.2 0H22.8C29.5206 0 32.8809 0 35.4479 1.30792C37.7058 2.4584 39.5416 4.29417 40.6922 6.55212C42 9.11905 42 12.4794 42 19.2V22.8C42 29.5206 42 32.8809 40.6922 35.4479C39.5416 37.7058 37.7058 39.5416 35.4479 40.6922C32.8809 42 29.5206 42 22.8 42H19.2C12.4794 42 9.11905 42 6.55212 40.6922C4.29417 39.5416 2.4584 37.7058 1.30792 35.4479C0 32.8809 0 29.5206 0 22.8V19.2Z" fill="black" fill-opacity="0.26"/>
<path d="M31.8468 25.4947C34.3143 25.4947 36.3147 23.4756 36.3147 20.9847C36.3147 18.4939 34.3143 16.4746 31.8468 16.4746C29.3792 16.4746 27.3789 18.4939 27.3789 20.9847C27.3789 23.4756 29.3792 25.4947 31.8468 25.4947Z" fill="url(#paint0_radial_328_5355)"/>
<path d="M10.1515 25.4947C12.6191 25.4947 14.6194 23.4756 14.6194 20.9847C14.6194 18.4939 12.6191 16.4746 10.1515 16.4746C7.68395 16.4746 5.68359 18.4939 5.68359 20.9847C5.68359 23.4756 7.68395 25.4947 10.1515 25.4947Z" fill="url(#paint1_radial_328_5355)"/>
<path d="M21.0157 34.5006C28.0554 34.5006 33.762 30.1785 33.762 24.8469C33.762 19.5155 28.0554 15.1934 21.0157 15.1934C13.9762 15.1934 8.26953 19.5155 8.26953 24.8469C8.26953 30.1785 13.9762 34.5006 21.0157 34.5006Z" fill="url(#paint2_radial_328_5355)"/>
<path d="M17.2342 23.9116C17.1595 25.5406 16.0837 26.144 14.8284 26.144C13.5732 26.144 12.6169 25.2992 12.6916 23.6702C12.7663 22.0412 13.8422 20.9551 15.0974 20.9551C16.3526 20.9551 17.3089 22.2826 17.2342 23.9116ZM29.308 23.6702C29.3828 25.2992 28.4264 26.144 27.1712 26.144C25.916 26.144 24.8401 25.5557 24.7654 23.9116C24.6907 22.2826 25.6471 20.9551 26.9023 20.9551C28.1575 20.9551 29.2332 22.0261 29.308 23.6702Z" fill="#5D5D5D"/>
<path d="M24.7816 24.0629C24.8563 25.5863 25.8576 26.1445 27.0231 26.1445C28.1886 26.1445 29.0851 25.3148 29.0254 23.7763C28.9507 22.2529 27.9495 21.2422 26.784 21.2422C25.6185 21.2422 24.7069 22.5244 24.7816 24.0629Z" fill="url(#paint3_radial_328_5355)"/>
<path d="M17.2332 24.0629C17.1585 25.5863 16.1574 26.1445 14.9917 26.1445C13.8262 26.1445 12.9296 25.3148 13.0044 23.7763C13.0791 22.2529 14.0802 21.2422 15.2458 21.2422C16.4113 21.2422 17.3079 22.5244 17.2332 24.0629Z" fill="url(#paint4_radial_328_5355)"/>
<path d="M21.0144 27.2305C19.4304 27.2305 17.9213 27.3059 16.5165 27.4417C16.2776 27.4718 16.128 27.7132 16.2177 27.9242C16.9947 29.7796 18.8477 31.0919 21.0144 31.0919C23.1812 31.0919 25.0191 29.7947 25.811 27.9242C25.9007 27.698 25.7513 27.4567 25.5122 27.4417C24.1076 27.3059 22.5983 27.2305 21.0144 27.2305Z" fill="#D6D6D6"/>
<path d="M21.0151 27.5918C19.4311 27.5918 17.9219 27.6672 16.5322 27.818C16.2931 27.8483 16.1437 28.0896 16.2334 28.3158C17.0104 30.2013 18.8633 31.5287 21.0151 31.5287C23.1668 31.5287 25.0198 30.2013 25.7968 28.3158C25.8865 28.0896 25.7371 27.8483 25.498 27.818C24.0934 27.6672 22.5841 27.5918 21.0151 27.5918Z" fill="white"/>
<path d="M21.0146 27.3965C19.4606 27.3965 17.9811 27.4719 16.6064 27.6077C16.3674 27.6378 16.2179 27.8792 16.3076 28.0904C17.0846 29.9457 18.8927 31.2579 21.0146 31.2579C23.1365 31.2579 24.9446 29.9607 25.7216 28.0904C25.8113 27.8642 25.6617 27.6228 25.4228 27.6077C24.048 27.4871 22.5686 27.3965 21.0146 27.3965Z" fill="url(#paint5_radial_328_5355)" fill-opacity="0.3"/>
<path d="M27.9921 13.8955C29.7417 13.8955 31.1599 12.4638 31.1599 10.6978C31.1599 8.93169 29.7417 7.5 27.9921 7.5C26.2425 7.5 24.8242 8.93169 24.8242 10.6978C24.8242 12.4638 26.2425 13.8955 27.9921 13.8955Z" fill="url(#paint6_radial_328_5355)"/>
<path d="M20.9685 15.6C20.595 15.6 20.2812 15.4341 20.2812 15.1928C20.2812 12.3268 22.5824 10.0039 25.4214 10.0039C25.7951 10.0039 26.1089 10.3207 26.1089 10.6978C26.1089 11.0749 25.7951 11.3916 25.4214 11.3916C23.3444 11.3916 21.6558 13.0961 21.6558 15.1928C21.6558 15.4491 21.342 15.6 20.9685 15.6Z" fill="url(#paint7_radial_328_5355)"/>
<path d="M16.4122 24.8171C16.4122 25.4054 15.7846 25.6769 15.0225 25.6769C14.2604 25.6769 13.6328 25.4054 13.6328 24.8171C13.6328 24.2288 14.2604 23.7461 15.0225 23.7461C15.7846 23.7461 16.4122 24.2138 16.4122 24.8171ZM28.3963 24.8171C28.3963 25.4054 27.7687 25.6769 27.0066 25.6769C26.2446 25.6769 25.617 25.4054 25.617 24.8171C25.617 24.2288 26.2446 23.7461 27.0066 23.7461C27.7687 23.7461 28.3963 24.2138 28.3963 24.8171Z" fill="#E4E4E4"/>
<path d="M15.9774 23.2014C16.2498 23.2014 16.4706 22.9582 16.4706 22.6584C16.4706 22.3584 16.2498 22.1152 15.9774 22.1152C15.7052 22.1152 15.4844 22.3584 15.4844 22.6584C15.4844 22.9582 15.7052 23.2014 15.9774 23.2014Z" fill="white"/>
<path d="M27.7704 23.2014C28.0428 23.2014 28.2634 22.9582 28.2634 22.6584C28.2634 22.3584 28.0428 22.1152 27.7704 22.1152C27.498 22.1152 27.2773 22.3584 27.2773 22.6584C27.2773 22.9582 27.498 23.2014 27.7704 23.2014Z" fill="white"/>
</g>
</g>
<defs>
<radialGradient id="paint0_radial_328_5355" cx="0" cy="0" r="1" gradientUnits="userSpaceOnUse" gradientTransform="translate(31.9083 18.5497) scale(8.95098 7.88196)">
<stop stop-color="#FEFFFF"/>
<stop offset="0.4" stop-color="#FEFFFF"/>
<stop offset="0.51" stop-color="#F9FCFC"/>
<stop offset="0.62" stop-color="white"/>
<stop offset="0.7" stop-color="#F1F1F1"/>
<stop offset="0.72" stop-color="#EAEAEA"/>
<stop offset="0.76" stop-color="#D5D5D5"/>
<stop offset="0.8" stop-color="#E1E1E1"/>
<stop offset="0.83" stop-color="#CFCFCF"/>
<stop offset="0.85" stop-color="#D5D5D5"/>
<stop offset="0.88" stop-color="#E9E9E9"/>
<stop offset="0.9" stop-color="white"/>
<stop offset="1" stop-color="white"/>
</radialGradient>
<radialGradient id="paint1_radial_328_5355" cx="0" cy="0" r="1" gradientUnits="userSpaceOnUse" gradientTransform="translate(10.225 18.5497) scale(8.95098 7.88196)">
<stop stop-color="#FEFFFF"/>
<stop offset="0.4" stop-color="#FEFFFF"/>
<stop offset="0.51" stop-color="white"/>
<stop offset="0.62" stop-color="#F7F7F7"/>
<stop offset="0.7" stop-color="#EAEAEA"/>
<stop offset="0.72" stop-color="#EDEDED"/>
<stop offset="0.76" stop-color="#E2E2E2"/>
<stop offset="0.8" stop-color="#E4E4E4"/>
<stop offset="0.83" stop-color="#E7E7E7"/>
<stop offset="0.85" stop-color="#E7E7E7"/>
<stop offset="0.88" stop-color="#F3F3F3"/>
<stop offset="0.9" stop-color="white"/>
<stop offset="1" stop-color="white"/>
</radialGradient>
<radialGradient id="paint2_radial_328_5355" cx="0" cy="0" r="1" gradientUnits="userSpaceOnUse" gradientTransform="translate(21.3516 17.2863) scale(26.9997 19.1361)">
<stop stop-color="#FEFFFF"/>
<stop offset="0.31" stop-color="#FEFFFF"/>
<stop offset="0.7" stop-color="#F5F5F5"/>
<stop offset="0.83" stop-color="#F1F1F1"/>
<stop offset="1" stop-color="#F6F6F6"/>
</radialGradient>
<radialGradient id="paint3_radial_328_5355" cx="0" cy="0" r="1" gradientUnits="userSpaceOnUse" gradientTransform="translate(26.5717 25.0993) rotate(180) scale(2.25584 3.34299)">
<stop stop-color="#CACACA"/>
<stop offset="0.5" stop-color="#CACACA"/>
<stop offset="0.7" stop-color="#CBC9C8"/>
<stop offset="0.82" stop-color="#B5B5B5"/>
<stop offset="0.92" stop-color="#B5B5B5"/>
<stop offset="1" stop-color="#8F8F8F"/>
</radialGradient>
<radialGradient id="paint4_radial_328_5355" cx="0" cy="0" r="1" gradientUnits="userSpaceOnUse" gradientTransform="translate(15.3489 25.0993) scale(2.25584 3.34299)">
<stop stop-color="#CACACA"/>
<stop offset="0.5" stop-color="#CACACA"/>
<stop offset="0.7" stop-color="#CBC9C8"/>
<stop offset="0.82" stop-color="#B5B5B5"/>
<stop offset="0.92" stop-color="#B5B5B5"/>
<stop offset="1" stop-color="#8F8F8F"/>
</radialGradient>
<radialGradient id="paint5_radial_328_5355" cx="0" cy="0" r="1" gradientUnits="userSpaceOnUse" gradientTransform="translate(21.0548 31.7268) scale(7.95439 5.29602)">
<stop stop-color="#333333"/>
<stop offset="0.29" stop-color="#2B2B2B"/>
<stop offset="0.73" stop-color="#030708"/>
<stop offset="1"/>
</radialGradient>
<radialGradient id="paint6_radial_328_5355" cx="0" cy="0" r="1" gradientUnits="userSpaceOnUse" gradientTransform="translate(28.0686 7.47074) scale(6.98239 7.04826)">
<stop stop-color="#FEFFFF"/>
<stop offset="0.4" stop-color="#FEFFFF"/>
<stop offset="0.51" stop-color="white"/>
<stop offset="0.62" stop-color="#F3F3F3"/>
<stop offset="0.7" stop-color="#E1E1E1"/>
<stop offset="0.72" stop-color="#E7E7E7"/>
<stop offset="0.76" stop-color="#E5E5E5"/>
<stop offset="0.8" stop-color="#E3E3E3"/>
<stop offset="0.83" stop-color="#E5E5E5"/>
<stop offset="0.85" stop-color="#E0E0E0"/>
<stop offset="0.88" stop-color="#F2F2F2"/>
<stop offset="0.9" stop-color="white"/>
<stop offset="1" stop-color="white"/>
</radialGradient>
<radialGradient id="paint7_radial_328_5355" cx="0" cy="0" r="1" gradientUnits="userSpaceOnUse" gradientTransform="translate(25.1585 15.1544) scale(5.72314 5.77714)">
<stop stop-color="#A0A2A2"/>
<stop offset="0.48" stop-color="#929393"/>
<stop offset="0.67" stop-color="#AAAAAA"/>
<stop offset="0.82" stop-color="#8C8C8C"/>
<stop offset="1" stop-color="#A1A1A1"/>
</radialGradient>
<clipPath id="clip0_328_5355">
<rect width="42" height="42" fill="white"/>
</clipPath>
<clipPath id="clip1_328_5355">
<rect width="42" height="42" fill="white"/>
</clipPath>
</defs>
</svg>
