<svg width="42" height="42" viewBox="0 0 42 42" fill="none" xmlns="http://www.w3.org/2000/svg">
<g clip-path="url(#clip0_328_5327)">
<g clip-path="url(#clip1_328_5327)">
<path d="M0 19.2C0 12.4794 0 9.11905 1.30792 6.55212C2.4584 4.29417 4.29417 2.4584 6.55212 1.30792C9.11905 0 12.4794 0 19.2 0H22.8C29.5206 0 32.8809 0 35.4479 1.30792C37.7058 2.4584 39.5416 4.29417 40.6922 6.55212C42 9.11905 42 12.4794 42 19.2V22.8C42 29.5206 42 32.8809 40.6922 35.4479C39.5416 37.7058 37.7058 39.5416 35.4479 40.6922C32.8809 42 29.5206 42 22.8 42H19.2C12.4794 42 9.11905 42 6.55212 40.6922C4.29417 39.5416 2.4584 37.7058 1.30792 35.4479C0 32.8809 0 29.5206 0 22.8V19.2Z" fill="black" fill-opacity="0.26"/>
<path fill-rule="evenodd" clip-rule="evenodd" d="M21 12C16.0294 12 12 16.0294 12 21C12 25.9705 16.0294 30 21 30C25.9705 30 30 25.9705 30 21C30 16.0294 25.9705 12 21 12ZM15 21C15 24.3137 17.6863 27 21 27C24.3137 27 27 24.3137 27 21C27 17.6863 24.3137 15 21 15C17.6863 15 15 17.6863 15 21Z" fill="white"/>
<path d="M29.625 9.75C28.5894 9.75 27.75 10.5895 27.75 11.625C27.75 12.6605 28.5894 13.5 29.625 13.5C30.6606 13.5 31.5 12.6605 31.5 11.625C31.5 10.5895 30.6606 9.75 29.625 9.75Z" fill="white"/>
<path fill-rule="evenodd" clip-rule="evenodd" d="M6.35982 8.02115C4.5 10.4449 4.5 13.9633 4.5 21C4.5 28.0366 4.5 31.555 6.35982 33.9789C6.83862 34.6029 7.39716 35.1613 8.02115 35.6401C10.4449 37.5 13.9633 37.5 21 37.5C28.0368 37.5 31.555 37.5 33.9789 35.6401C34.6029 35.1613 35.1613 34.6029 35.6401 33.9789C37.5 31.555 37.5 28.0366 37.5 21C37.5 13.9633 37.5 10.4449 35.6401 8.02115C35.1613 7.39716 34.6029 6.83862 33.9789 6.35982C31.555 4.5 28.0368 4.5 21 4.5C13.9633 4.5 10.4449 4.5 8.02115 6.35982C7.39716 6.83862 6.83862 7.39716 6.35982 8.02115ZM13.1168 34.2864C14.9719 34.4955 17.4118 34.5 21 34.5C24.5882 34.5 27.0282 34.4955 28.8833 34.2864C30.6779 34.084 31.5499 33.7226 32.1525 33.2601C32.5686 32.9409 32.9409 32.5686 33.2601 32.1525C33.7226 31.5499 34.084 30.6779 34.2864 28.8833C34.4955 27.0282 34.5 24.5882 34.5 21C34.5 17.4118 34.4955 14.9719 34.2864 13.1168C34.084 11.3222 33.7226 10.45 33.2601 9.84742C32.9409 9.43143 32.5686 9.05908 32.1525 8.73989C31.5499 8.2775 30.6779 7.9159 28.8833 7.71358C27.0282 7.50445 24.5882 7.5 21 7.5C17.4118 7.5 14.9719 7.50445 13.1168 7.71358C11.3222 7.9159 10.45 8.2775 9.84742 8.73989C9.43145 9.05908 9.05908 9.43143 8.73989 9.84742C8.2775 10.45 7.9159 11.3222 7.7136 13.1168C7.50445 14.9719 7.5 17.4118 7.5 21C7.5 24.5882 7.50445 27.0282 7.7136 28.8833C7.9159 30.6779 8.2775 31.5499 8.73989 32.1525C9.05908 32.5686 9.43145 32.9409 9.84742 33.2601C10.45 33.7226 11.3222 34.084 13.1168 34.2864Z" fill="white"/>
</g>
</g>
<defs>
<clipPath id="clip0_328_5327">
<rect width="42" height="42" fill="white"/>
</clipPath>
<clipPath id="clip1_328_5327">
<rect width="42" height="42" fill="white"/>
</clipPath>
</defs>
</svg>
