<svg width="42" height="42" viewBox="0 0 42 42" fill="none" xmlns="http://www.w3.org/2000/svg">
<g clip-path="url(#clip0_328_5340)">
<g clip-path="url(#clip1_328_5340)">
<path d="M0 19.2C0 12.4794 0 9.11905 1.30792 6.55212C2.4584 4.29417 4.29417 2.4584 6.55212 1.30792C9.11905 0 12.4794 0 19.2 0H22.8C29.5206 0 32.8809 0 35.4479 1.30792C37.7058 2.4584 39.5416 4.29417 40.6922 6.55212C42 9.11905 42 12.4794 42 19.2V22.8C42 29.5206 42 32.8809 40.6922 35.4479C39.5416 37.7058 37.7058 39.5416 35.4479 40.6922C32.8809 42 29.5206 42 22.8 42H19.2C12.4794 42 9.11905 42 6.55212 40.6922C4.29417 39.5416 2.4584 37.7058 1.30792 35.4479C0 32.8809 0 29.5206 0 22.8V19.2Z" fill="black" fill-opacity="0.26"/>
<path d="M28.205 9.67578H32.046L23.6543 19.267L33.5265 32.3187H25.7966L19.7423 24.403L12.8147 32.3187H8.97122L17.9471 22.0597L8.47656 9.67578H16.4027L21.8754 16.9111L28.205 9.67578ZM26.8568 30.0196H28.9853L15.2462 11.8541H12.9622L26.8568 30.0196Z" fill="white"/>
</g>
</g>
<defs>
<clipPath id="clip0_328_5340">
<rect width="42" height="42" fill="white"/>
</clipPath>
<clipPath id="clip1_328_5340">
<rect width="42" height="42" fill="white"/>
</clipPath>
</defs>
</svg>
