<svg width="42" height="42" viewBox="0 0 42 42" fill="none" xmlns="http://www.w3.org/2000/svg">
<g clip-path="url(#clip0_328_5350)">
<g clip-path="url(#clip1_328_5350)">
<path d="M0 19.2C0 12.4794 0 9.11905 1.30792 6.55212C2.4584 4.29417 4.29417 2.4584 6.55212 1.30792C9.11905 0 12.4794 0 19.2 0H22.8C29.5206 0 32.8809 0 35.4479 1.30792C37.7058 2.4584 39.5416 4.29417 40.6922 6.55212C42 9.11905 42 12.4794 42 19.2V22.8C42 29.5206 42 32.8809 40.6922 35.4479C39.5416 37.7058 37.7058 39.5416 35.4479 40.6922C32.8809 42 29.5206 42 22.8 42H19.2C12.4794 42 9.11905 42 6.55212 40.6922C4.29417 39.5416 2.4584 37.7058 1.30792 35.4479C0 32.8809 0 29.5206 0 22.8V19.2Z" fill="black" fill-opacity="0.26"/>
<path fill-rule="evenodd" clip-rule="evenodd" d="M32.688 11.1354C33.9781 11.482 34.9987 12.5026 35.3452 13.7927C35.9808 16.1418 36 21.0135 36 21.0135C36 21.0135 36 25.9044 35.3646 28.2342C35.018 29.5244 33.9975 30.545 32.7073 30.8915C30.3774 31.527 21 31.527 21 31.527C21 31.527 11.6226 31.527 9.29268 30.8915C8.00256 30.545 6.98204 29.5244 6.63543 28.2342C6 25.8851 6 21.0135 6 21.0135C6 21.0135 6 16.1418 6.61617 13.8119C6.96277 12.5218 7.98332 11.5013 9.27344 11.1547C11.6033 10.5193 20.9808 10.5 20.9808 10.5C20.9808 10.5 30.3582 10.5 32.688 11.1354ZM25.7756 21.0135L17.9964 25.5192V16.5077L25.7756 21.0135Z" fill="white"/>
</g>
</g>
<defs>
<clipPath id="clip0_328_5350">
<rect width="42" height="42" fill="white"/>
</clipPath>
<clipPath id="clip1_328_5350">
<rect width="42" height="42" fill="white"/>
</clipPath>
</defs>
</svg>
