<svg width="42" height="42" viewBox="0 0 42 42" fill="none" xmlns="http://www.w3.org/2000/svg">
<g clip-path="url(#clip0_328_5334)">
<g clip-path="url(#clip1_328_5334)">
<path d="M0 19.2C0 12.4794 0 9.11905 1.30792 6.55212C2.4584 4.29417 4.29417 2.4584 6.55212 1.30792C9.11905 0 12.4794 0 19.2 0H22.8C29.5206 0 32.8809 0 35.4479 1.30792C37.7058 2.4584 39.5416 4.29417 40.6922 6.55212C42 9.11905 42 12.4794 42 19.2V22.8C42 29.5206 42 32.8809 40.6922 35.4479C39.5416 37.7058 37.7058 39.5416 35.4479 40.6922C32.8809 42 29.5206 42 22.8 42H19.2C12.4794 42 9.11905 42 6.55212 40.6922C4.29417 39.5416 2.4584 37.7058 1.30792 35.4479C0 32.8809 0 29.5206 0 22.8V19.2Z" fill="black" fill-opacity="0.26"/>
<path d="M9.26172 16.7949H14.3899V33H9.26172V16.7949ZM33.8771 33H28.7489V24.8985C28.7489 22.6442 27.4925 21.1058 25.475 21.1058C23.9355 21.1058 23.1027 22.1436 22.6986 23.1468C22.5509 23.5058 22.595 24.4986 22.595 25.0001V33H17.4668V16.7949H22.595V19.4781C23.3345 18.3335 24.4925 16.7949 27.4545 16.7949C31.1243 16.7949 33.876 19.1027 33.876 24.2555L33.8771 33Z" fill="white"/>
<path d="M11.7216 14.5384H11.7526C13.4695 14.5384 14.5384 13.3056 14.5384 11.7681C14.5074 10.1963 13.4695 9 11.7847 9C10.1022 9 9 10.1963 9 11.7681C9 13.3067 10.0689 14.5384 11.7216 14.5384Z" fill="white"/>
</g>
</g>
<defs>
<clipPath id="clip0_328_5334">
<rect width="42" height="42" fill="white"/>
</clipPath>
<clipPath id="clip1_328_5334">
<rect width="42" height="42" fill="white"/>
</clipPath>
</defs>
</svg>
