<svg width="40" height="40" viewBox="0 0 40 40" fill="none" xmlns="http://www.w3.org/2000/svg">
<rect width="40" height="40" rx="8" fill="#907F6F" fill-opacity="0.1"/>
<path fill-rule="evenodd" clip-rule="evenodd" d="M16.9389 13.1691L16.9284 13.1808L17.8784 13.4327L19.1212 14.0841L21.5491 15.9515L23.0232 16.0239L23.7457 16.1108L23.9914 16.5595L24.555 16.5305L24.9452 17.3412L25.3643 17.5439L25.5377 17.8768L26.1158 18.2676L26.217 18.644L26.1591 18.9625L26.2892 19.2665L26.5494 19.527L26.6794 19.831L26.8239 20.0626L27.084 20.2508L27.3008 20.1785L27.4887 20.5403L27.532 20.743L27.9222 21.6984L30.3646 22.1616L30.4024 22.1087L27.9935 21.6575L27.6077 20.7245L27.5649 20.5266L27.6934 20.4701L27.7506 20.7245L28.3508 20.5832L29.0081 20.6114L29.4939 20.6397L29.9655 20.0177L30.4942 19.4382L30.8859 18.9215L30.8722 18.9011L31.1068 18.5918L31.2241 18.6654L31.1906 19.0631L31.1108 19.1918L31.2945 19.9046H30.8943V19.9282H31.2951L31.7254 20.5637L32.1988 20.896L32.7869 21.026L33.2746 21.1849L33.6906 21.7193L33.9344 22.0227L34.2213 22.1527L34.25 22.355L34.0062 22.9039L33.9058 23.1639L33.5902 23.4672L33.3463 24.1028L32.9878 24.045L32.8443 24.2762L32.7438 24.7384L32.9017 25.3595L32.83 25.4751H32.4713L31.998 25.8218L31.9549 26.2696L31.7828 26.4718L31.2808 26.4574L30.9939 26.6885L31.0226 27.0641L30.6496 27.3241L30.205 27.2374L29.6886 27.5552L29.33 27.5985L29.0144 26.9485L28.2685 25.4173L30.6066 24.4928L30.9795 22.6439L30.5492 21.9794V21.9149L30.5131 21.965L30.9426 22.6248L30.5669 24.4778L28.2113 25.4042L25.9135 25.7661L25.1909 26.1859L24.6851 27.1558L24.3093 27.315L24.0926 27.011L23.7891 27.0545L22.9942 26.9531L22.8353 26.8662L21.9104 26.8807L21.6936 26.9676L21.3468 26.7359L21.1589 27.1847L21.2745 27.5756L20.9277 27.8795L20.7976 27.4742L20.5375 27.1992L20.4652 26.8228L20.0173 26.4899L19.5403 25.7082L19.2657 24.9554L18.6733 24.3185L18.312 24.1593L17.7194 23.2763L17.5894 22.6393V22.0892L17.0691 21.047L16.6644 20.6851L16.2309 20.4969L15.9274 19.9613L15.9563 19.7586L15.6962 19.2665L15.4505 19.0638L15.0892 18.3689L14.5401 17.6307L14.0921 16.9937H13.7019L13.7742 16.4871L13.7886 16.1542L13.8464 15.7778L14.7424 15.937L14.7663 15.9143L13.8861 15.7589L13.8427 15.6295L14.1031 14.1619L14.0452 13.8022L14.132 13.5288L14.0742 12.9533L14.1754 12.6656L15.087 13.0397L16.4904 12.0469L16.9389 13.1691ZM15.7974 15.1843L15.2424 15.3063L15.2461 15.2986L15.7995 15.1778L15.7974 15.1843ZM14.1412 12.1182L14.1945 12.4962L14.1146 12.6416H14.1279L14.0347 12.9324L13.7551 12.8161L13.662 13.4267L13.8617 13.5285L13.6886 13.6594L13.6753 13.9065L14.0081 13.7903L14.0613 14.1537L13.8217 15.6367L13.7285 15.4041L13.2093 14.0374L13.3957 13.7321L13.3425 13.6739L13.4889 13.2377L13.5688 12.5399L13.6486 12.2927H13.662H13.9016L13.9549 12.1327L14.1412 12.1182ZM13.7181 15.434L13.1551 14.081L12.7942 14.3113L12.1736 14.2537L11.5384 14.0378L11.3796 14.3401L11.1198 13.8794L10.5568 13.7643L9.8784 13.8506L9.57526 14.1098L8.99787 14.3976L8.62255 14.2537L7.82862 13.9802L7.04914 13.7355L6.00982 13.7499L5.76443 14.1961L5.90878 14.5991L5.75 15.1605L6.0387 15.909L6.22634 19.1908L6.37069 22.6022H9.58969H12.6932H15.8833L15.7246 22.415L14.7429 21.5802L14.6852 20.9756L14.8296 20.8173L14.0501 19.7954L13.7614 19.2772L13.4294 18.7734L12.7221 17.334L12.1591 16.3984L11.7549 15.434L11.8271 15.3476L12.5055 16.6718L12.8953 17.0749L13.184 17.3772L13.3572 17.2188L13.5304 16.7294L13.6315 16.0385L13.8191 15.6643L13.7181 15.434ZM31.0225 20.6411L30.7086 20.8094L30.7117 20.8501L31.0513 20.6648L31.0225 20.6411ZM30.7325 21.1862L30.5514 21.5444V21.5994L30.7357 21.2282L30.7325 21.1862ZM24.0835 15.227L24.3025 15.6251L24.2587 15.8384L24.6093 16.5207L24.0396 16.5491L23.7914 16.1084L23.0611 16.0232L23.5431 15.1418L24.0835 15.227ZM27.1642 20.2103L27.3795 20.1399L27.4944 19.6051L27.4227 19.0844L27.1642 18.8029L26.9487 18.9014L26.7907 19.3658L26.9056 20.0273L27.1642 20.2103ZM26.5657 18.6762L26.5234 18.6617L26.5093 18.6908V18.749L26.5375 18.851L26.5234 18.9092L26.6079 19.0256L26.622 19.0839L26.6501 19.0256V18.9238L26.636 18.7927L26.6501 18.7636L26.5938 18.6617L26.5657 18.6762Z" fill="#0C0C0D" fill-opacity="0.88"/>
</svg>
