<svg width="40" height="40" viewBox="0 0 40 40" fill="none" xmlns="http://www.w3.org/2000/svg">
<rect width="40" height="40" rx="8" fill="#907F6F" fill-opacity="0.1"/>
<path fill-rule="evenodd" clip-rule="evenodd" d="M10.9482 6.87751L11.3793 6.51936L10.988 6.40661L10.7824 6.23417L10.8023 5.98877L10.4508 5.90918L10.2452 5.75L9.97324 5.9755L9.62172 6.02857L9.32989 6.02193L9.15082 6.12805L9.41612 6.4663L9.64825 6.85098H10.0993L10.2982 7.22239L10.0794 7.33515L9.99976 7.48769L10.4839 7.74636L10.862 8.25042L11.1538 8.62183L11.4788 8.92029L11.6114 9.21875L11.5982 9.64322L11.7176 9.92841L11.7242 10.4391L11.1273 10.7707L11.313 11.0228L10.9217 11.0559L10.6166 11.2284L10.9084 11.4671L10.8288 11.759L10.9814 12.0309L11.4191 11.6329L11.6977 11.2814L12.1022 11.0029L12.3874 10.7243L12.3609 9.97484L12.0956 9.18559L11.8237 8.84733L11.4456 8.58204L11.0145 8.02491L10.663 7.58055L10.7028 7.28208L10.9482 6.87751ZM10.431 9.55755L10.7826 9.61725L10.882 9.4249L10.8555 9.06675L10.504 8.69534L10.4178 8.27087L10.0862 7.92598L9.80095 7.89946L9.7479 8.04537L9.53566 8.05863L9.40965 7.98568L9.05813 8.2377L8.99181 7.85302L9.01834 7.40865L8.7663 7.38876L8.70661 7.1301L8.52754 6.99744L8.32857 7.09693L8.14285 7.28264L7.88419 7.30254L7.78471 7.76017L7.63879 7.83976L7.87093 8.21118L8.14285 8.5229L8.3352 8.80809L8.24234 9.17287L8.12296 9.25246L8.24234 9.4647L8.52754 9.80296L8.59386 10.0417L8.60713 10.2407L8.7862 10.632L8.61376 11.0299L8.46784 11.4677L8.38826 11.8723L8.36173 12.1376L8.44795 12.3763L8.49438 12.1243L8.68672 12.3299L8.89895 12.5687L8.97854 12.7809L9.13108 12.9401L9.22396 13.1185L9.19743 13.4302L9.34335 13.6623L9.40967 14.0139L9.63517 14.299L9.68823 14.5179L10.1392 14.8561L10.504 15.1745L10.7693 15.1413V15.0021L10.6168 14.624L10.4775 14.5047L10.4443 14.2526L10.4045 14.1067L10.4377 13.9144L10.3979 13.6292L10.2321 13.344L9.99995 13.0853L9.9071 13.0455L9.70147 12.8207L9.47597 12.7743L9.25047 12.5289L9.16425 12.1641L8.98518 11.7728L8.73977 11.7595L8.69335 11.4544L8.7862 11.0764L8.93212 10.4529L8.91885 9.98203H9.24384L9.22394 10.3203L9.5423 10.307L9.89381 10.506L9.75453 9.98866L9.96013 9.63715L10.431 9.55755ZM16.4996 7.81243L16.7517 7.93844L16.8445 7.82569L16.8976 7.93181L16.8711 8.11088L17.0435 8.41597L17.0037 8.76749L16.8114 8.90677L16.8047 9.25166L16.9374 9.58991L17.1364 9.63633L17.2955 9.58991L17.793 9.82204L17.7863 10.0542L17.9256 10.1603L17.9057 10.3526L17.594 10.147L17.4282 9.92153L17.3486 10.0807L17.0833 9.82204L16.7517 9.88836L16.5527 9.79552L16.546 9.61644L16.6522 9.51032L16.5262 9.41083L16.4996 9.56338L16.2808 9.31798L16.1946 9.13227L16.1216 8.72769L16.294 8.86698L16.2211 8.1971L16.2742 7.81243H16.4996ZM16.8711 10.4991L16.9308 10.1277L16.7782 9.97518L16.4599 9.96192L16.692 10.2869L16.8711 10.4991ZM18.4562 10.5117L18.6154 10.9892L18.3169 10.8764L18.3368 11.0224L18.4562 11.281L18.2838 11.3805L18.244 11.0754L18.1246 11.0555L18.045 10.7969L18.2638 10.83L18.244 10.6708L17.9787 10.3458L18.3368 10.3525L18.4562 10.5117ZM17.3619 10.764L17.1231 10.6313L17.2027 10.8303L17.1961 11.0491L17.2292 11.2481L17.4547 11.1221L17.6073 10.9364L17.594 10.764H17.3619ZM15.9625 11.7266L15.4915 12.1312L15.6507 11.8327L15.9028 11.5674L16.1017 11.2756L16.2543 10.8511L16.3604 11.2026L16.1283 11.4348L15.9625 11.7266ZM17.8526 11.4549L17.972 11.3156V10.9111L17.7333 11.3223L17.7664 11.0371L17.5608 11.0636L17.5476 11.3223L17.4613 11.4417L17.395 11.561L17.6536 11.8529L17.7598 11.7268L17.8526 11.4549ZM18.9403 12.1109L19 12.3961L19.0398 12.6349L18.9337 13.0195L18.7678 12.5884L18.6087 12.8073L18.748 13.119L18.6551 13.318L18.1975 13.0725L18.0715 12.7608L18.171 12.5619L17.9189 12.3563L17.8128 12.5353L17.6404 12.5155L17.3751 12.7542L17.3087 12.6282L17.4281 12.2701L17.6536 12.1507L17.8459 11.9915L17.9919 12.1838L18.2704 12.0711L18.3169 11.8787L18.5821 11.8655L18.5291 11.5405L18.8541 11.7395L18.9005 11.9517L18.9403 12.1109ZM15.8628 13.9347L16.1281 13.7887L16.0552 13.5766L16.3072 13.5566L16.3205 13.3908L16.0021 13.2648L15.7501 13.1454L15.7236 12.9597L15.5179 12.7408L15.3654 12.7475L15.193 13.0791L14.921 13.3709L14.9144 13.5831L14.9077 13.8551L14.7287 13.8418L14.6557 13.9877L14.47 13.7689L14.2976 14.0341L14.0455 14.3724L13.5946 14.4652L13.4354 14.5449L13.369 14.903L13.0839 14.9826L12.8056 14.8369L12.5866 15.1214L12.5468 15.5194L12.5998 15.8907L12.7789 16.2555L12.9646 16.375L13.0044 16.9453L13.3095 16.9918L13.5616 16.9652L13.6876 17.1775L14.1385 17.0183L14.3243 17.1576L14.5896 17.184L14.7289 17.4427L15.1666 17.2504L15.213 17.403L15.3788 16.7529L15.4054 16.3285L15.7702 16.0367L15.7569 15.652L15.8763 15.3602L16.3207 15.3071L15.8962 14.9158L15.9559 14.7169L15.664 14.3189L15.8628 13.9347ZM10.882 18.1924L11.2932 18.1858L11.3396 17.5292L11.4523 16.9986L11.2799 16.7267L11.008 16.6869L10.882 16.4548L10.8223 16.1563L10.6896 16.1431L10.4707 15.9971L10.6233 15.6523L10.3381 15.4533L10.1126 15.0951L9.79423 14.8033L9.40956 14.7966L9.04478 14.339L8.83254 14.1666L8.52745 13.8748L8.18257 13.4569L7.59228 13.3773L7.35352 13.3574L7.39331 13.5763L7.80451 14.0472L8.09634 14.286L8.30194 14.6508L8.64683 14.916L8.79274 15.2476L8.90549 15.6124L9.23048 15.9706L9.50905 16.5675L9.68812 16.8858L9.96004 17.2308L10.1126 17.4894L10.5835 17.8409L10.882 18.1924ZM19.9485 15.5863L19.9683 15.2148L19.9285 15.0357L19.7031 15.0026L19.6699 14.7704L19.5505 14.923L19.4841 15.2612L19.597 15.8051L19.7428 16.077L19.849 16.0239L19.6964 15.7984L19.7561 15.5398L19.9485 15.5863ZM18.6684 15.0873L18.3699 15.5119L18.0847 15.5914L17.7265 15.5119L17.0965 15.5317L16.7715 15.5914L16.7185 15.9164L17.05 16.2945L17.2557 16.1021L17.9587 15.9562L17.9255 16.1485L17.7597 16.0889L17.5939 16.3409L17.2557 16.5067L17.5939 17.0506L17.521 17.1965L17.8393 17.6873L17.8194 17.9658L17.6138 18.0918L17.4745 17.9393L17.6735 17.5944L17.2954 17.7602L17.2093 17.6409L17.2623 17.475L17.0036 17.223L17.05 16.8118L16.7914 16.9378L16.8046 17.4352L16.7914 18.0454L16.546 18.1051L16.3934 17.9857L16.5195 17.5944L16.4797 17.1832L16.3205 17.1765L16.2144 16.8847L16.3802 16.6062L16.4399 16.2679L16.6388 15.6246L16.7118 15.4522L17.0302 15.1338L17.3286 15.2598L17.7995 15.3195L18.2306 15.2996L18.602 14.9945L18.6684 15.0873ZM24.5115 18.1855L24.5779 16.7993L24.1733 16.7197L23.9014 16.5672L23.583 16.4213H23.2514L22.8136 16.6733L22.482 17.1243L22.104 16.8723L22.0177 16.1825L21.9581 16.0233L21.3545 15.8509L21.1622 15.9902L20.6581 16.0896L20.8107 16.3019L21.1423 16.3815L21.2882 16.6335H21.8387L21.8652 16.7463L21.5999 16.7396L21.1887 16.8921L21.4673 17.1044L21.4606 17.2901L21.5336 17.4426L21.6795 17.4095L21.7989 17.1973L22.3494 17.5952L22.6545 17.6283L23.3641 17.9931L23.5167 18.3447L23.583 18.8089L23.3376 18.9283L23.1519 19.2732L23.6294 19.26L23.7289 19.1406L24.1003 19.2267L24.4054 19.5783L24.5115 18.1855ZM20.6118 17.0117L20.7312 17.3367L20.4261 17.1576L20.1143 17.1244L19.8955 17.151L19.6368 17.1377L19.7363 16.9056L20.2006 16.8857L20.6118 17.0117ZM19.2454 17.3107L19.3914 17.1649L19.3051 17.0256L18.9271 17.0455L18.9934 17.2312L19.2454 17.3107ZM22.1371 18.3382L21.9249 18.6301L21.9116 18.3117L21.9846 18.1591L22.0708 18.0133L22.1504 18.1392L22.1371 18.3382ZM13.0441 18.6238L12.3278 18.5773L12.288 18.4314L12.1288 18.3982L11.837 18.2324L11.386 18.2059L11.1074 18.6105L11.4457 18.6436L11.4988 18.8227L12.1753 19.0018L12.3344 18.9487L12.6064 18.9886L13.0309 19.1543L13.3757 19.2273L13.7604 19.2604L14.0986 19.2472L14.5033 19.4197L14.941 19.2604L14.4966 19.0084L13.9395 18.9289L13.8201 18.6503L13.137 18.4447L13.0441 18.6238ZM15.8961 19.2535L15.7701 19.1408L15.664 19.2934H15.4517L15.3058 19.5387L15.5114 19.5454L15.7701 19.4856L16.2145 19.3995L16.1349 19.2204L15.8961 19.2535ZM18.0119 19.6515L18.3966 19.4791L18.4495 19.3794L18.7746 19.2865L19.0399 19.2666L19.1593 19.2136L19.2985 19.2666L19.1526 19.386L18.748 19.5718L18.423 19.6911L18.1512 20.0096L17.8195 20.1025L17.7797 20.056L17.8261 19.9101L18.0119 19.6515ZM16.5925 20.0621L16.7517 20.0555L16.7848 19.9361L16.6654 19.8101L16.4797 19.6774L16.1216 19.7637L16.5925 20.0621ZM25.1085 21.5553L25.188 21.887L25.4533 21.7278L25.5462 21.9069L25.6987 22.0727L25.6258 22.265L25.6391 22.6298L25.6523 22.8421L25.7386 22.8951L25.7651 23.2599L25.6855 23.4787L25.7386 23.764L26.0967 23.9895L26.3089 24.1884L26.5212 24.3741L26.4482 24.4803L26.6007 24.7456L26.6339 25.2098L26.8064 25.1169L26.9058 25.296L27.012 25.2364L26.9655 25.6873L27.1579 25.946L27.2839 26.1052L27.4696 26.4501V26.7949L27.4032 27.0403L27.2839 27.299L27.3303 27.6638L27.1645 28.0419L27.0252 28.2409L26.7732 28.6189L26.6737 28.8643L26.4682 29.1693L26.1365 29.554L25.7717 29.7663L25.4799 30.0913L25.261 30.3035L24.9692 30.6683L24.7238 30.8805L24.4651 31.1989L24.2596 31.4907L24.2064 31.6299L23.9213 31.7759L23.5167 31.7892L23.0989 31.9682L22.8469 32.1274L22.5285 32.3131L22.3494 32.1208L22.177 32.0479L22.3494 31.8289L22.1172 31.9085L21.6397 32.2136L21.4009 32.1009L21.2418 32.0346L21.0561 32.0014L20.7841 31.882L20.698 31.6167L20.7974 31.2984L20.8239 31.0794L20.7311 30.907L20.4194 30.8606L20.6316 30.6483L20.6913 30.3367L20.3796 30.6285L20.0281 30.708L20.3265 30.4759L20.4923 30.2305L20.7244 30.0183L20.8306 29.7066L20.3796 30.0647L20.0944 30.2107L19.8092 30.5489L19.6102 30.3765L19.7229 30.1509L19.6301 29.8392L19.5107 29.68L19.6168 29.5806L19.2653 29.3219L19.0133 29.3153L18.748 29.1031L18.0914 29.1428L17.5675 29.2953L17.1098 29.4413L16.7782 29.4148L16.3139 29.6336L15.9624 29.7265L15.8098 29.952L15.6109 30.1244L15.2992 30.1377L15.0604 30.1708L14.7818 30.0979L14.5033 30.1443L14.2513 30.1642L13.9528 30.3898L13.8533 30.3698L13.6278 30.4892L13.4023 30.6219L13.1503 30.6086H12.9181L12.6462 30.3367L12.487 30.2571L12.5865 30.0117L12.7789 29.952L12.8783 29.8591L12.9181 29.7066L13.0707 29.4081L13.1171 29.1561L13.0707 28.725L13.084 28.4796L13.1768 28.2409L13.1171 27.9622L13.137 27.8362L13.0243 27.6638L13.0707 27.3321L12.9447 26.9939L12.938 26.8149L13.0574 27.0006L13.0243 26.6026L13.1768 26.7286L13.2497 26.8945L13.2895 26.6756L13.1834 26.3374L13.1768 26.2047L13.1237 26.0787L13.21 25.8333L13.3094 25.7271L13.3957 25.5149L13.4023 25.2629L13.6079 24.9578L13.5814 25.2828L13.787 24.9909L14.112 24.845L14.3242 24.666L14.6359 24.5068L14.8084 24.4736L14.9012 24.5267L15.2196 24.3675L15.4517 24.3211L15.5247 24.2282L15.6241 24.1884L15.8298 24.2016L16.2409 24.0756L16.4731 23.8834L16.6057 23.6578L16.8644 23.4456L16.9108 23.2732L16.9573 23.041L17.2822 22.6762L17.3751 23.0476L17.5475 22.9615L17.4481 22.7625L17.6006 22.5568L17.7465 22.6497L17.846 22.3247L18.0781 22.1124L18.1975 21.9466L18.3898 21.8737L18.4164 21.7543L18.5689 21.8007L18.5955 21.6946L18.7679 21.6349L18.9536 21.5752L19.199 21.7742L19.3714 22.0263H19.6035L19.8357 22.066L19.7893 21.8339L20.0215 21.4956L20.2005 21.3829L20.1607 21.2768L20.353 21.0314L20.5984 20.8789L20.7775 20.9319L21.1025 20.8523L21.1224 20.6335L20.8638 20.4942L21.0693 20.4345L21.3081 20.5406L21.4872 20.713L21.7857 20.8191L21.8984 20.7793L22.1172 20.912L22.3494 20.786L22.482 20.8258L22.5815 20.7396L22.7274 20.9518L22.5948 21.184L22.429 21.3564L22.3029 21.3696L22.3229 21.5355L22.177 21.7477L22.0111 21.9599L22.0244 22.0793L22.2765 22.3181L22.5417 22.4507L22.7076 22.5966L22.9264 22.8486H23.0326L23.205 22.9615L23.2381 23.0941L23.5631 23.2333L23.8351 23.0875L23.9544 22.8619L24.0672 22.6696L24.1534 22.4374L24.3259 22.0992L24.3126 21.8936L24.359 21.7676L24.3524 21.5288L24.4452 21.2038L24.5314 21.1176L24.4917 20.9783L24.6111 20.7528L24.7105 20.5207L24.7371 20.3946L24.8896 20.2355L24.9758 20.4478L24.9692 20.713L25.0555 20.7661L25.0488 20.9452L25.1549 21.1574L25.1483 21.4028L25.1085 21.5553ZM21.7591 33.0566L22.0045 33.2026L22.2234 33.1428L22.5483 33.0633L22.7341 33.0897L22.4356 33.5938L22.2168 33.7331L21.9514 34.078L21.9117 33.9586L21.4739 34.2505L21.4209 34.2306L21.2219 34.2173L21.2551 33.8592L21.3877 33.5805L21.4275 33.2092L21.5602 33.0168L21.7591 33.0566ZM17.647 19.1408L17.574 19.3795L17.0037 19.4989L16.5063 19.4459L16.5195 19.2867L16.8246 19.2005L17.0501 19.3265L17.3021 19.2934L17.647 19.1408ZM31.2568 30.123L31.2037 30.2954L31.5751 30.123L31.542 30.302L31.4027 30.4811L31.1241 30.6735L30.6532 30.9852L30.3414 31.1576L30.3017 31.3566L30.0364 31.3633L29.6185 31.5224L29.3068 31.7943L28.763 32.2188L28.3451 32.4045L28.0798 32.5239L27.7747 32.5173L27.6753 32.378L27.337 32.3515L27.4033 32.1923L27.8344 31.8872L28.5905 31.4694L28.8757 31.3897L29.2471 31.2306L29.7114 31.0117L30.0895 30.7928L30.4874 30.4811L30.693 30.375L30.9251 30.1362L31.3098 29.9439L31.2568 30.123ZM33.1536 28.5516L33.1801 28.1006L33.3128 27.7225L33.1006 27.6164L33.0409 27.3776L32.8949 27.4108L32.8684 27.7159L32.9149 28.0873L32.9746 28.2663L32.9215 28.3393L32.8817 28.6245L32.7159 28.8964L32.4373 29.2281L32.0858 29.374L31.9664 29.5265L32.2184 29.6923L32.1588 29.9311L31.7011 30.276L31.8006 30.3357L31.7674 30.4484L32.1654 30.276L32.5567 29.9908L32.8618 29.7587L32.9679 29.6857L33.0674 29.5L33.2531 29.374L33.5118 29.3806L33.7903 29.1352L34.1352 28.7572L33.9893 28.7107L33.6775 28.8699L33.4654 28.8367L33.273 28.6974L33.4321 28.3792L33.346 28.2598L33.1536 28.5516Z" fill="#0C0C0D" fill-opacity="0.88"/>
</svg>
