<svg width="40" height="40" viewBox="0 0 40 40" fill="none" xmlns="http://www.w3.org/2000/svg">
<rect width="40" height="40" rx="8" fill="#907F6F" fill-opacity="0.1"/>
<path d="M11.5769 13.8559L11.992 14.3585L13.1282 14.2056L13.5215 14.5333L14.4392 15.4073L15.1384 16.041L15.5317 16.0191L16.2309 16.3032L16.0998 16.6965L16.9738 16.762L17.826 17.3301L17.6511 17.6578L16.8208 17.8326L15.9906 17.8982L15.1821 17.7889L13.4122 17.92L14.33 17.1553L13.8711 16.7838L13.0845 16.6965L12.7131 16.2813L12.5382 15.4947L11.8391 15.5384L10.7466 15.1669L10.4188 14.8611L8.86746 14.6425L8.47414 14.3803L8.97671 14.0307L7.7968 13.9652L6.83539 14.6862L6.33285 14.7081L6.11434 15.0577L5.50255 15.2106L5 15.0577L5.6992 14.6425L6.02695 14.1181L6.61689 13.8123L7.2724 13.5501L8.21196 13.419L8.51785 13.2441L9.54481 13.3534L10.5062 13.3752L11.5769 13.8559Z" fill="#0C0C0D" fill-opacity="0.88"/>
<path d="M20.5134 20.4767L20.5789 20.0834L20.2949 19.6683L20.6227 19.4279L20.7756 18.8817L20.7538 18.1387L20.9285 17.8984H21.8681L22.5673 18.248L22.895 18.2262L23.048 18.7287L23.7253 18.685L23.638 19.1002L24.1842 19.1657L24.7304 19.6683L24.2279 20.2363L23.6598 19.9305L23.0917 19.996L22.6984 19.9305L22.4581 20.1927L21.9773 20.2801L21.8244 19.9305L21.4093 20.1271L20.8193 21.0885L20.5352 20.87L20.5134 20.4767Z" fill="#0C0C0D" fill-opacity="0.88"/>
<path d="M20.753 18.1376L20.7748 18.8805L20.6219 19.4267L20.2942 19.6671L20.5782 20.0822L20.5126 20.4755L19.726 20.2352L19.1361 20.3226L18.3932 20.2352L17.8033 20.4974L17.1914 20.0604L17.3444 19.6015L18.4588 19.7982L19.3546 19.9075L19.8353 19.6015L19.3327 18.9898L19.4202 18.4435L18.6554 18.225L18.9832 17.8535L19.726 17.8972L20.753 18.1376Z" fill="#0C0C0D" fill-opacity="0.88"/>
<path d="M14.1337 20.7165L13.7404 20.9569L13.0849 20.7165L12.4512 20.214L12.626 19.8862L13.1504 19.7988L13.4344 19.8426L14.2429 19.9737L14.8328 20.3014L15.0076 20.6947L14.1337 20.7165Z" fill="#0C0C0D" fill-opacity="0.88"/>
<path d="M22.0857 28.3426L21.9765 28.2989L21.8672 28.1897L21.8891 28.0586L21.9327 28.1241L22.0202 28.2115L22.0857 28.3208V28.3426Z" fill="#0C0C0D" fill-opacity="0.88"/>
<path d="M31.1101 20.2358H31.0664L31.132 20.1484H31.1975L31.1539 20.214L31.1101 20.2358Z" fill="#0C0C0D" fill-opacity="0.88"/>
<path d="M32.5319 21.7648L32.663 21.8303L32.6193 21.8959H32.5756L32.4226 21.9178L32.3789 21.8959V21.7867L32.4445 21.7648L32.4664 21.6992H32.51L32.5319 21.7648Z" fill="#0C0C0D" fill-opacity="0.88"/>
<path d="M32.5301 20.957H32.5738L32.6174 21.0007L32.6393 21.0881L32.6174 21.1537L32.5738 21.1755L32.5519 21.1318L32.4863 21.0881V20.9789L32.5301 20.957Z" fill="#0C0C0D" fill-opacity="0.88"/>
<path d="M19.3557 16.1056L19.2683 16.2149L19.2246 16.3241L19.0935 16.3896H18.9842L18.9624 16.3678L18.875 16.4115L18.7658 16.4334L18.6347 16.3896L18.5473 16.4115L18.5254 16.3023L18.5909 16.2585L18.6347 16.193L18.722 16.1493L18.7876 16.0619H18.875L18.9405 16.0182L18.9842 16.0838L19.0935 16.1274L19.2028 16.0838L19.3557 15.8652H19.4213V15.909L19.3557 16.1056Z" fill="#0C0C0D" fill-opacity="0.88"/>
<path d="M19.3991 15.7357L19.3555 15.6046L19.4866 15.5391L19.5521 15.6046V15.6483L19.4866 15.6702L19.3991 15.7357Z" fill="#0C0C0D" fill-opacity="0.88"/>
<path d="M19.4858 14.3152L19.5295 14.2934L19.6387 14.3589H19.7262L19.8136 14.3808L19.8791 14.4245V14.49L19.8354 14.5119L19.7262 14.4245H19.6387L19.6169 14.4026L19.5076 14.4463L19.3984 14.4026V14.3808L19.4421 14.2715L19.4858 14.3152Z" fill="#0C0C0D" fill-opacity="0.88"/>
<path d="M18.6334 13.9219L18.5897 14.0093V14.1622L18.5679 14.2496L18.4805 14.3152L18.4368 14.4026L18.3494 14.4682L18.1964 14.5337L18.1746 14.5774L18.1309 14.5337L18.1528 14.49L18.2401 14.4682L18.2839 14.4244V14.3807L18.3712 14.3589L18.415 14.2715L18.5023 14.2496L18.5679 14.1622L18.5242 14.0967H18.4368L18.3931 14.053L18.4805 13.9438L18.5023 13.9219H18.6334Z" fill="#0C0C0D" fill-opacity="0.88"/>
<path d="M18.2201 13.8554L18.242 13.8772H18.3294L18.4167 13.9209L18.3294 14.0083L18.3075 13.9646H18.2638L18.1764 13.9427L18.089 13.8991L18.0234 13.768L18.089 13.7461L18.1764 13.768L18.2201 13.8554Z" fill="#0C0C0D" fill-opacity="0.88"/>
<path d="M16.2081 12.5664L16.3392 12.7193L16.4048 12.7631L16.4703 12.8723L16.4048 12.8504L16.383 12.8068L16.3174 12.7849L16.23 12.6975L16.1863 12.6757L16.1426 12.5882L16.2081 12.5664Z" fill="#0C0C0D" fill-opacity="0.88"/>
<path d="M17.0179 12.5664L17.0835 12.6975L17.1272 12.8068V12.8942L17.1709 12.9379L17.2146 13.0908V13.2875L17.2583 13.353L17.3676 13.3967L17.4549 13.5278V13.7026L17.3676 13.5497V13.5059L17.302 13.4186L17.1709 13.3748L17.2146 13.3312L17.149 13.2656V13.2001L17.1927 13.1345L17.1709 13.0253L17.1054 12.9379L17.1272 12.916L17.0616 12.8286L17.0398 12.6975L16.9961 12.7193L17.0179 12.5664Z" fill="#0C0C0D" fill-opacity="0.88"/>
<path d="M17.651 12.5656L17.5854 12.6093L17.5199 12.5875L17.498 12.5437L17.6291 12.5L17.651 12.5656Z" fill="#0C0C0D" fill-opacity="0.88"/>
<path d="M15.8589 12.1514L15.837 12.1295L15.7715 11.9766H15.8151L15.8589 12.1514Z" fill="#0C0C0D" fill-opacity="0.88"/>
<path d="M18.1533 12.0432L18.0659 12.1743H17.9785L18.0222 12.1088L18.0441 11.9777L18.1314 11.9121L18.1533 11.9995V12.0432Z" fill="#0C0C0D" fill-opacity="0.88"/>
<path d="M14.1123 11.7797L14.0468 11.8015L14.0031 11.8671L13.9375 11.8452L14.0686 11.7578L14.1123 11.7797Z" fill="#0C0C0D" fill-opacity="0.88"/>
<path d="M14.1556 11.9337L14.243 11.9774L14.2867 11.9337L14.3086 11.8245L14.3523 11.8026L14.396 11.9337V12.043L14.3741 12.1085L14.396 12.2396V12.3052L14.3086 12.48L14.2649 12.5018L14.1775 12.4581L14.2212 12.3926L14.3086 12.3489L14.2867 12.327L14.1556 12.4144L14.1119 12.3707L14.1994 12.3052H14.1119L14.0683 12.327L14.0245 12.2833V12.1304L14.0464 12.0867L13.959 11.9774V11.9337L14.0464 11.89L14.0683 11.8245L14.1338 11.8026L14.1556 11.7589L14.2867 11.6934L14.3086 11.7808L14.1994 11.8682L14.1556 11.9337Z" fill="#0C0C0D" fill-opacity="0.88"/>
<path d="M17.105 11.8023L17.1268 11.9116L17.0831 11.8898L16.9739 11.9116L16.8864 11.9334L16.8646 11.8898L16.9302 11.846L17.0175 11.7805V11.7368L16.9302 11.6931L16.8864 11.562L16.8646 11.4309L16.7772 11.3435V11.2998L16.668 11.1905L16.7335 11.125L16.8209 11.2124V11.3216L16.8646 11.3872L16.8864 11.4964L16.952 11.6057L17.0394 11.6712L17.0613 11.7368L17.105 11.8023Z" fill="#0C0C0D" fill-opacity="0.88"/>
<path d="M14.8543 10.5996L14.9199 10.6433L14.7888 10.7089L14.7232 10.687L14.6795 10.7307L14.5703 10.7089L14.614 10.6433L14.7014 10.5996H14.8543Z" fill="#0C0C0D" fill-opacity="0.88"/>
<path d="M13.9365 10.4913L14.0239 10.4476L14.0894 10.5132L14.0676 10.5569L14.0894 10.6006L14.0457 10.688L14.1113 10.7535L14.155 10.9502L14.1987 11.0157L14.2861 11.125L14.2424 11.2779L14.2643 11.409L14.2205 11.4746L14.155 11.4964L14.0676 11.5838L14.0021 11.6275H13.9365L13.871 11.6712H13.8054V11.5838L13.7399 11.5401L13.7617 11.409L13.6961 11.4746L13.6524 11.4527L13.5213 11.3653L13.4558 11.2998L13.4121 11.2342L13.565 11.1687L13.6743 11.3216L13.6961 11.1905L13.6306 11.1687L13.6088 11.1031L13.6306 11.0376L13.7617 10.9065L13.8054 10.8191L13.7835 10.7972L13.8491 10.7098V10.6006L13.8054 10.4476L13.8272 10.4258H13.8928L13.9365 10.4913Z" fill="#0C0C0D" fill-opacity="0.88"/>
<path d="M15.7069 9.92188L15.7288 9.96557L15.7943 10.053L15.9691 10.2059L16.0783 10.2278L16.1002 10.2496L16.1439 10.337L16.2094 10.4244L16.3187 10.5118V10.5555L16.275 10.7303L16.2532 10.774V10.8396L16.2313 10.9488L16.1876 11.0144L16.1658 11.1673L16.1439 11.1892L16.1002 11.0581L16.0128 10.9925L16.0347 10.9488L16.1439 10.9707L16.1876 10.927L16.1658 10.8833L16.1876 10.7959L16.2532 10.7085L16.275 10.5992V10.5337L16.1658 10.4463L16.0783 10.2933L16.0128 10.2496L15.8817 10.1841L15.8161 10.1185L15.685 10.0748L15.5977 10.1185L15.685 9.92188H15.7069Z" fill="#0C0C0D" fill-opacity="0.88"/>
<path d="M13.7842 8.28307L13.8934 8.32678H13.9153L14.0683 8.34862L14.1119 8.30492L14.1556 8.32678H14.2649L14.3523 8.28307H14.4397L14.5052 8.23937L14.5271 8.34862L14.5052 8.39233H14.4397H14.3523L14.1119 8.43602H14.0464L13.7186 8.52342L13.5657 8.61082H13.4783L13.4346 8.58898L13.369 8.52342L13.2598 8.39233L13.3909 8.45788L13.4128 8.50158H13.522L13.6312 8.45788L13.7186 8.32678L13.6531 8.30492L13.6968 8.23937L13.7186 8.17383L13.7842 8.28307Z" fill="#0C0C0D" fill-opacity="0.88"/>
<path d="M14.7225 8L14.8973 8.0437L14.941 8.02185L15.0284 8.0874L15.2251 8.3059L15.2688 8.437L15.3562 8.45885L15.5091 8.5681V8.61181L15.4654 8.72106L15.5091 8.874H15.4217L15.3124 8.9614L15.2906 9.0051L15.2251 9.2236L15.2032 9.42025L15.1595 9.46396L15.094 9.42025L15.0721 9.33286L14.9847 9.311L15.0502 9.20176H15.094L15.2032 9.11435L15.1813 9.02695L15.2251 8.93955V8.874L15.2688 8.80845V8.67736L15.3124 8.6555L15.3562 8.58995L15.378 8.5244L15.3124 8.50255L15.2032 8.48071L15.1813 8.41515V8.37145L15.094 8.32775V8.2622L15.0284 8.10925L14.9847 8.0874L14.9191 8.10925L14.8099 8.0874H14.7444L14.6133 8H14.7225Z" fill="#0C0C0D" fill-opacity="0.88"/>
<path d="M31.3285 20.6945L31.3066 20.6289L31.3723 20.6508L31.3285 20.6945Z" fill="#0C0C0D" fill-opacity="0.88"/>
<path d="M34.8912 27.4679L34.7601 27.4241L34.7383 27.3149V27.1401L34.782 27.0527L34.8257 27.0964L34.8694 27.2275L34.9787 27.293L35.0005 27.3805L34.8912 27.4679Z" fill="#0C0C0D" fill-opacity="0.88"/>
<path d="M23.4201 28.8889H23.3546L23.2672 28.8233L23.2017 28.8015L23.1361 28.736L23.1143 28.6922L23.0487 28.6704L23.005 28.583L22.9395 28.5175L22.9613 28.4082L23.0706 28.4738L23.0924 28.583L23.1798 28.6704L23.3328 28.7141L23.3765 28.7797L23.442 28.8671L23.4201 28.8889Z" fill="#0C0C0D" fill-opacity="0.88"/>
<path d="M8.93237 18.6847L8.99792 18.7065L9.04163 18.6191L9.12902 18.641H9.23827L9.26012 18.6847L9.21642 18.7284L9.17272 18.7065L9.08533 18.7284L9.04163 18.7502H8.88867L8.93237 18.6847Z" fill="#0C0C0D" fill-opacity="0.88"/>
<path d="M10.7037 18.1387L10.5508 18.2042L10.5945 18.1387H10.7037Z" fill="#0C0C0D" fill-opacity="0.88"/>
<path d="M10.8344 18.1596L10.8125 18.1378L10.9873 18.0723L10.9436 18.1378L10.8344 18.1596Z" fill="#0C0C0D" fill-opacity="0.88"/>
<path d="M32.8144 23.907L32.9236 23.9288L32.9673 24.0381V24.1692L32.9455 24.344L32.9236 24.3877L32.8799 24.4095L32.7925 24.4532L32.8144 24.3659L32.7925 24.3221L32.7706 24.1692L32.7051 24.0599V23.9944L32.727 23.9288V23.8633H32.7706L32.8144 23.907Z" fill="#0C0C0D" fill-opacity="0.88"/>
<path d="M32.2037 28.8892L32.1163 28.9547L32.0726 28.9329L32.0508 28.8236L32.0944 28.7144L32.16 28.627H32.2255L32.2474 28.6925L32.2255 28.8454L32.2037 28.8892Z" fill="#0C0C0D" fill-opacity="0.88"/>
<path d="M31.5698 21.7873H31.5042L31.4824 21.7436L31.5261 21.6562H31.5698L31.5916 21.6999L31.5698 21.7873Z" fill="#0C0C0D" fill-opacity="0.88"/>
<path d="M31.4174 21.4588L31.3955 21.5244H31.3518L31.2644 21.4807L31.2207 21.437L31.2863 21.3496L31.3955 21.437L31.4174 21.4588Z" fill="#0C0C0D" fill-opacity="0.88"/>
<path d="M33.1861 26.5501L33.1424 26.5065L33.055 26.4628L33.0332 26.419V26.2879L33.055 26.2443L33.208 26.0039L33.2735 26.0476V26.2006L33.2517 26.3754L33.2299 26.4628L33.1861 26.5501Z" fill="#0C0C0D" fill-opacity="0.88"/>
<path d="M31.1108 20.4764L31.0234 20.4546L31.0671 20.389L31.1326 20.3672L31.1108 20.4764Z" fill="#0C0C0D" fill-opacity="0.88"/>
<path d="M31.9855 22.2031L32.0292 22.2905V22.356L31.9855 22.3998L31.9417 22.3779L31.9199 22.3124L31.9855 22.2031Z" fill="#0C0C0D" fill-opacity="0.88"/>
<path d="M25.1886 20.4546L25.123 20.4109L25.1449 20.3672H25.2105L25.2323 20.389L25.1886 20.4546Z" fill="#0C0C0D" fill-opacity="0.88"/>
<path d="M28.3792 20.3445H28.3356L28.1389 20.4101H28.0078L28.0515 20.3663L28.1389 20.3227L28.2263 20.3008L28.3574 20.3227L28.3792 20.3445Z" fill="#0C0C0D" fill-opacity="0.88"/>
<path d="M26.3043 19.8207L26.4354 19.8426H26.5665L26.6321 19.8644L26.7632 19.8426L26.8287 19.8644L26.9161 19.8426L26.9598 19.8644L27.0691 19.8426L27.1565 19.8644H27.222L27.3968 19.9081V19.8644L27.5279 19.9081L27.5498 19.8862L27.7246 19.9081L27.7683 19.9518H27.812L27.9431 20.0173L27.9868 19.9955L27.9649 20.1484L28.0086 20.214L27.812 20.2795L27.7464 20.367L27.6809 20.4981L27.6153 20.5417L27.5498 20.5636H27.4624L27.3313 20.5854L27.2657 20.6292L27.1128 20.6073L27.0691 20.5636L26.9598 20.6073L26.8943 20.5417L26.7413 20.5854L26.5447 20.5636L26.4791 20.5854L26.348 20.6073L26.3043 20.6292L26.2606 20.5854L26.1732 20.5636L26.1077 20.6073L25.9766 20.5854L26.0421 20.4325V20.3451L26.0858 20.2577L26.0421 20.1266L25.9984 20.1048L25.9766 20.0173L26.0639 19.9737L26.1077 19.9518V19.8426L26.1951 19.7988L26.3043 19.8207Z" fill="#0C0C0D" fill-opacity="0.88"/>
<path d="M31.1108 20.477V20.4988L31.0234 20.477V20.4551L31.1108 20.477Z" fill="#0C0C0D" fill-opacity="0.88"/>
<path d="M20.95 15.1445H21.103L21.1684 15.2319H21.103L21.0374 15.2101L20.9281 15.2319L20.9062 15.1664L20.95 15.1445Z" fill="#0C0C0D" fill-opacity="0.88"/>
<path d="M20.3605 15.123L20.426 15.2104L20.5571 15.1886L20.5134 15.2322H20.3823L20.2949 15.1886L20.3605 15.123Z" fill="#0C0C0D" fill-opacity="0.88"/>
<path d="M20.842 14.9926V15.1018L20.7328 15.0582L20.7109 14.9926L20.7328 14.9707L20.842 14.9926Z" fill="#0C0C0D" fill-opacity="0.88"/>
<path d="M32.9903 30.5703L32.9466 30.6796L32.8811 30.767L32.8373 30.7889L32.8155 30.8762L32.8592 31.0073L32.8155 31.0292V31.1822L32.8592 31.2476L32.9029 31.2914L32.8592 31.3351L32.8373 31.4006V31.5536L32.7937 31.5754L32.7062 31.6191L32.597 31.641H32.5315L32.4222 31.6628L32.3129 31.641L32.2256 31.6628L32.16 31.641L32.0507 31.6847L31.9634 31.641H31.8323L31.7667 31.6847L31.7012 31.6628L31.8104 31.6191L31.876 31.5536L31.9634 31.5317L32.0507 31.4662L32.0945 31.4006L32.2256 31.4225L32.2911 31.3351L32.2474 31.1603L32.2911 31.0729V30.9636V30.9199L32.2256 30.8325L32.16 30.8107L32.0726 30.7889L32.0507 30.767L32.1382 30.7014L32.3785 30.6796L32.4222 30.6359H32.6625L32.6844 30.614L32.9466 30.5703H32.9903Z" fill="#0C0C0D" fill-opacity="0.88"/>
<path d="M33.5147 29.8711L33.4929 29.9803L33.4274 30.0022L33.34 30.0677H33.2963L33.1433 30.1551L33.0996 30.1114L33.1652 30.0458L33.3181 29.9366L33.5147 29.8711Z" fill="#0C0C0D" fill-opacity="0.88"/>
<path d="M32.8596 27.3371L32.8378 27.359L32.7285 27.2935V27.206L32.7722 27.1405L32.816 27.0312H32.9033L32.9252 27.1186L32.9033 27.2935L32.8596 27.3371Z" fill="#0C0C0D" fill-opacity="0.88"/>
<path d="M29.3412 19.9085L29.2537 19.9523H29.2319L29.1664 19.996L29.1445 19.9741L29.1664 19.9085L29.2975 19.8867L29.3412 19.9085Z" fill="#0C0C0D" fill-opacity="0.88"/>
<path d="M28.9916 20.8698L29.0571 20.9354L28.8167 20.9791L28.7949 20.8698L28.9478 20.8262L28.9916 20.8698Z" fill="#0C0C0D" fill-opacity="0.88"/>
<path d="M29.1451 20.0394L29.1015 20.0831H28.9922V20.0394L29.0577 20.0176L29.1451 20.0394Z" fill="#0C0C0D" fill-opacity="0.88"/>
<path d="M28.8381 19.9961L28.9255 20.0616L28.8818 20.1054L28.8162 20.0616H28.707L28.7508 20.018L28.8381 19.9961Z" fill="#0C0C0D" fill-opacity="0.88"/>
<path d="M24.076 28.9109H24.0322L24.0104 28.8017L24.0322 28.7361L24.0104 28.6706L23.923 28.6487L23.8574 28.5831L23.8793 28.5176L24.1415 28.6487L24.1196 28.6924V28.7798L24.076 28.8235V28.9109Z" fill="#0C0C0D" fill-opacity="0.88"/>
<path d="M31.1336 21.2624L31.0898 21.2843V21.2406L31.1117 21.2188L31.1336 21.2624Z" fill="#0C0C0D" fill-opacity="0.88"/>
<path d="M30.805 21.0672H30.7832L30.805 21.0234L30.8269 21.0453L30.805 21.0672Z" fill="#0C0C0D" fill-opacity="0.88"/>
<path d="M33.2512 25.0432V25.0869L33.3387 25.0651L33.295 25.1743L33.3387 25.218V25.2618L33.3823 25.3054L33.4261 25.5021L33.3605 25.5676L33.3387 25.4802L33.3168 25.5021L33.1857 25.4802H33.0983L33.0546 25.4147L33.1857 25.3054H33.0983L33.0109 25.218L32.989 25.1088L32.9453 24.9996L33.0109 24.9121L33.0983 24.934L33.2075 24.9996L33.2512 25.0432Z" fill="#0C0C0D" fill-opacity="0.88"/>
<path d="M33.033 23.5131H32.9675L32.9238 23.4256L32.9457 23.382L33.0112 23.3164L33.0768 23.3601L33.0986 23.4256V23.4693L33.033 23.5131Z" fill="#0C0C0D" fill-opacity="0.88"/>
<path d="M32.6408 22.9451H32.7063V22.9889V23.0107L32.6626 23.0326V23.2073V23.2948L32.6189 23.3385L32.4878 23.404V23.3603L32.4441 23.3166L32.4222 23.2073V23.0981L32.4004 22.9889V22.9233L32.4441 22.8578L32.5097 22.8359L32.6189 22.9015L32.6408 22.9451Z" fill="#0C0C0D" fill-opacity="0.88"/>
<path d="M32.9455 22.8575L33.0328 22.8794L33.1421 22.9668L32.8581 23.0323L32.7925 23.0541L32.7051 22.9886L32.727 22.8575L32.7706 22.8357L32.7488 22.7046L32.7706 22.6608L32.8362 22.6172L32.9017 22.7046V22.7919L32.9455 22.8575Z" fill="#0C0C0D" fill-opacity="0.88"/>
</svg>
