<svg width="40" height="40" viewBox="0 0 40 40" fill="none" xmlns="http://www.w3.org/2000/svg">
<rect width="40" height="40" rx="8" fill="#907F6F" fill-opacity="0.1"/>
<path fill-rule="evenodd" clip-rule="evenodd" d="M15.9759 6.02581L15.9628 6.124L15.7395 6.17654L15.8511 6.36697L15.8315 6.59025L15.6542 6.83323L15.7789 7.16814L15.9431 7.14187L16.0415 6.83323L15.9299 6.68875V6.36697L16.4027 6.19624L16.3634 5.99923L16.5013 5.86133L16.6129 6.1634L16.8755 6.16997L17.0988 6.39981L17.1119 6.54428H17.4403L17.8409 6.50488L18.0445 6.68875L18.3203 6.74129L18.537 6.60995L18.5435 6.50488L19.0098 6.47861L19.4498 6.47205L19.128 6.59682L19.2462 6.80039L19.5417 6.82665L19.8175 7.0368L19.8635 7.37171L20.0539 7.36514L20.1984 7.46364L20.4347 7.62178L20.6513 7.89103L20.6579 8.1143L20.7958 8.12086L20.9928 8.32443L21.1307 8.47548L21.5775 8.56065L21.6169 8.48184L21.919 8.44901L22.3188 8.567L22.3193 8.56605L22.4441 8.61202L22.7134 8.71052L23.1008 9.06513L23.1533 9.23587L23.2846 9.21641L23.3699 9.45282L23.567 10.1883L23.7705 10.2605L23.7771 10.5495L23.4947 10.8975L23.6063 11.0223L24.2696 11.088L24.2828 11.5148L24.5651 11.239L25.0314 11.39L25.6553 11.6461L25.8391 11.8891L25.78 12.1255L26.2134 11.9942L26.9357 12.2175L27.494 12.2043L28.0456 12.5524L28.5315 13.0252L28.8205 13.1434L29.1356 13.1631L29.2736 13.2944L29.4049 13.8329L29.4771 14.089L29.3393 14.7851L29.162 15.061L28.6563 15.6453L28.433 16.1248L28.1703 16.486L28.0784 16.4991L27.993 16.8077L28.0521 17.5957L27.9799 18.2458L27.9602 18.5217L27.8552 18.6924L27.8223 19.2571L27.4808 19.8022L27.448 20.2422L27.1656 20.4195L27.0934 20.6756H26.6993L26.1412 20.8332L25.8982 21.0236L25.5042 21.1484L25.1036 21.4833L24.8344 21.9036L24.8147 22.2188L24.9 22.4486L24.8804 22.8755L24.8278 23.0791L24.6045 23.3155L24.309 24.0575L24.0464 24.3858L23.8362 24.5894L23.7377 24.99L23.5472 25.2264L23.4422 25.4964L23.0876 25.7262L22.8119 25.6409L22.628 25.6868L22.2668 25.5095L22.0304 25.5226L21.7745 25.2864L21.7942 25.5097L22.3064 25.8708L22.3196 26.1597L22.5756 26.3437L22.5953 26.5472L22.3787 27.0857L21.919 27.3156L21.2492 27.4009L20.8551 27.3549L20.993 27.6111L20.9996 27.9197L21.1178 28.1299L20.9537 28.2809L20.6187 28.34L20.251 28.1824L20.1524 28.294L20.3166 28.7077L20.5793 28.8325L20.7304 28.7011L20.8946 28.9179L20.6187 29.0492L20.4283 29.3118L20.5071 29.7255L20.5005 29.9488H20.1853L19.9883 30.159L19.9949 30.4742L20.4217 30.7763L20.7632 30.855L20.7764 31.2294L20.4743 31.4592L20.4348 31.9386L20.205 32.0962L20.1459 32.2866L20.4217 32.7135L20.7238 32.9434L20.5859 32.9236L20.3032 32.9237L20.1916 33.0222L19.9683 33.1667L20.0799 33.541L19.9551 33.5476L19.5414 33.4228L19.0489 33.1404L18.5498 32.9106L18.3397 32.6544L18.32 32.418L18.0442 32.1423L17.7158 31.4462L17.7027 31.0521L17.926 30.7369L17.381 30.6122L17.5583 30.251L17.4269 29.5615L17.8538 29.706L17.7356 28.8457L17.4728 28.734L17.5385 29.2528L17.3087 29.1937L17.2102 28.6027L17.0789 27.8278L17.1511 27.5388L16.9344 27.1318L16.7768 26.6589L16.9213 26.6392L16.9607 25.9628L17.0395 25.2864L17.046 24.6626L16.8293 24.0256L16.8687 23.6776L16.7308 23.1588L16.849 22.6466L16.7899 21.8323V20.9524L16.7965 20.0133L16.698 19.3237L16.5601 18.7262L16.1726 18.4832L16.1201 18.3125L15.3518 17.8922L14.6491 17.426L14.3405 17.1699L14.1566 16.8218L14.2091 16.6971L13.8545 16.1455L13.4342 15.3706L13.0403 14.53L12.8826 14.333L12.7513 14.0243L12.4492 13.7485L12.18 13.5778L12.2916 13.3939L12.0946 12.9868L12.2062 12.6912L12.4952 12.4286L12.5409 12.6051L12.4952 12.4276L12.6857 12.1124L12.6002 11.9285L12.4624 12.1255L12.2325 11.935L12.3048 11.8168L12.2391 11.436L12.3704 11.3703L12.4361 11.1076L12.574 10.8384L12.5543 10.6676L12.7579 10.5757L13.0139 10.4116L12.9683 10.2811L13.1062 10.2483L13.0931 10.0382L13.185 9.88056L13.3689 9.85429L13.533 9.59161L13.6775 9.36834L13.5462 9.26984L13.625 9.02686L13.5527 8.63942L13.6381 8.52778L13.5921 8.17317L13.4477 7.94333L13.3294 7.82546L13.2637 7.59562L13.3556 7.48398L13.2637 7.45772L13.2046 7.31981L13.0207 7.20161L12.8631 7.22787L12.7778 7.37235L12.6201 7.47742L12.5414 7.49055L12.5019 7.58249L12.6661 7.81233L12.561 7.86486L12.5085 7.92396L12.3312 7.95023L12.2787 7.69413L12.2261 7.76636L12.1079 7.74009L12.0422 7.57592L11.8912 7.54308L11.7927 7.49712H11.6351L11.622 7.58905L11.5826 7.52338L11.3855 7.4313L11.3132 7.33936L11.3592 7.26713L11.3526 7.17519L11.2541 7.07669L11.1097 6.99132L10.9915 6.93879L10.9718 6.81402L10.8798 6.74178L10.893 6.85998L10.8142 6.96505L10.7354 6.84685L10.6237 6.80088L10.5778 6.72207L10.5843 6.59074L10.6434 6.4594L10.5449 6.4003L10.6369 6.31494L10.696 6.2624L10.9324 6.37404L11.0177 6.3215L11.1359 6.35434L11.1885 6.43971L11.3001 6.47254L11.392 6.3806L11.4708 6.61044L11.6022 6.78118L11.7664 6.95848L11.8912 7.10968L11.8781 7.20161L12.0225 7.22131L12.0619 7.18191L12.1604 7.28697L12.3443 7.25414L12.5085 7.14907L12.7383 7.06371L12.8697 6.93894L13.0733 6.9652L13.0601 7.0046L13.2637 7.01773L13.4213 7.09654L13.5395 7.22131L13.6707 7.33944L13.8614 7.35231L14.1569 7.05681L14.3145 7.01084L14.321 6.87293L14.413 6.51176L14.6363 6.32132L14.8661 6.30818L14.9055 6.22281L15.1945 6.25565L15.4965 6.04551L15.6476 5.95357L15.838 5.75L15.9694 5.77626L16.0547 5.8879L15.9759 6.02581ZM22.1457 9.23461L22.1356 9.21639L22.1357 9.21733L22.1457 9.23461ZM23.5274 24.7869L23.278 24.504L22.9628 24.2677L22.5491 23.9984L22.4243 24.0115L22.0106 23.6832L21.7883 23.729L21.7877 23.7298L22.0107 23.6839L22.4244 24.0123L22.5491 23.9984L22.9628 24.2677L23.2781 24.5048L23.5274 24.7869ZM22.6151 21.8454L22.7858 21.7599L22.9957 22.0093L22.7855 21.7591L22.6152 21.8442L22.6151 21.8454ZM22.6608 21.1166L22.6607 21.1156L22.5228 21.0433L22.3915 21.109L22.2536 21.0893L22.2011 20.9317L22.2012 20.9328L22.2538 21.0904L22.3917 21.1101L22.523 21.0444L22.6608 21.1166ZM22.129 20.5453L22.1288 20.5443L22.05 20.4195L21.7939 20.3013L21.6494 20.3866L21.2621 20.3013L21.2622 20.3023L21.6496 20.3877L21.7941 20.3023L22.0502 20.4205L22.129 20.5453ZM21.2357 19.7308V19.7299L21.1044 19.5001L21.1046 19.5012L21.2357 19.7308ZM12.4361 12.7044L12.4558 12.8544L12.6068 12.8216L12.7579 12.8676L12.9221 13.0843L13.1256 12.9069L13.1847 12.6246L13.408 12.2568L13.8479 12.0927L14.2485 11.6461L14.36 11.3772L14.2485 11.6471L13.8479 12.0937L13.408 12.2578L13.1847 12.6256L13.1256 12.908L12.9221 13.0853L12.7579 12.8685L12.6068 12.8226L12.4558 12.8554L12.4361 12.7044ZM14.8987 14.1622L15.0695 14.5421L15.2861 14.7982L15.2859 14.799L15.0694 14.5431L14.8987 14.1622ZM15.2204 14.9831L15.2208 14.9821L15.47 15.0019L15.6211 15.2317L15.9494 15.2382L16.2383 14.9952L16.2449 15.6322L16.4156 15.6782L16.6258 15.606L16.9871 16.2894L16.6257 15.6069L16.4156 15.6792L16.2449 15.6332L16.2383 14.9962L15.9494 15.2392L15.621 15.2326L15.47 15.0028L15.2204 14.9831ZM20.1194 9.47364L20.0539 9.82758L20.1194 9.47252L20.2242 9.32182L20.2245 9.3226L20.1194 9.47364ZM16.3831 10.5298V10.5307L16.5995 10.5766L16.5995 10.5757L16.3831 10.5298ZM16.2977 11.0685L16.4684 11.2267L16.4682 11.2259L16.2977 11.0685ZM20.6188 33.0615L20.8222 33.2451L21.1046 33.5472L21.6167 33.7902L22.0961 33.8886L22.0436 34.0857L21.7547 34.1054L21.5379 33.9675L21.5051 34.1248L21.295 34.2495L21.1374 34.2364L20.9338 34.2036L20.658 34.0854L20.3034 34.0263L19.8109 33.803L19.3906 33.5929L18.747 33.1398L19.0491 33.2251L19.6139 33.4944L20.0933 33.6388L20.1721 33.455L20.1524 33.1791L20.3756 33.0084L20.6188 33.0615ZM23.3963 32.9505L23.4226 32.9439V32.9702L23.37 32.9505L23.3897 32.9308L23.4029 32.9242L23.3963 32.9505ZM23.3636 32.8717L23.3504 32.8586L23.357 32.8717L23.3701 32.8848L23.3767 32.9111L23.3964 32.9046L23.3898 32.8783L23.3636 32.8717ZM23.7576 32.8052L23.7707 32.8117L23.7641 32.8381L23.7445 32.8315L23.7314 32.8117L23.751 32.7986L23.7576 32.8052ZM22.9631 32.7604V32.7472L22.9565 32.7276L22.9367 32.7472L22.9171 32.7407L22.9367 32.721L22.9236 32.7144L22.904 32.721L22.8974 32.7341H22.8842L22.8908 32.7604L22.9105 32.7669L22.9236 32.7801L22.9433 32.7867L22.9696 32.7801L22.9631 32.7604ZM23.1533 32.6608L23.127 32.6476L23.0942 32.6279L23.0416 32.6082L23.0482 32.582L23.0022 32.5754L22.9825 32.5688L22.9628 32.5425L22.976 32.536L23.0285 32.5557L23.081 32.582L23.1138 32.5885L23.1401 32.5951L23.1598 32.5754L23.1664 32.5557L23.1795 32.5623L23.2058 32.5492L23.2124 32.5623H23.2452V32.582H23.2649L23.324 32.5688L23.3306 32.582H23.3503L23.3765 32.5754L23.3568 32.5623L23.3503 32.5425H23.3765L23.4159 32.5557L23.4225 32.582L23.3962 32.6148L23.4028 32.6345L23.3897 32.6476H23.3634L23.3437 32.7002L23.324 32.7199L23.3043 32.7593L23.2977 32.7789L23.2649 32.7987L23.2583 32.7856H23.2321V32.8053L23.1795 32.7987L23.1729 32.8053L23.1926 32.8315L23.1861 32.8381L23.1729 32.8644H23.1467L23.127 32.8906L23.1073 32.8972H23.0942L23.081 32.8775L23.0547 32.8578V32.8447H23.0219L23.0613 32.8709H23.0351L23.0022 32.8512L22.9891 32.8447L22.9628 32.8315L22.9431 32.8184V32.8053L22.9891 32.8184L23.0285 32.8053L22.9956 32.7921L22.9891 32.7856H23.0482L23.0744 32.7921L23.0942 32.8053V32.7921L23.1204 32.7856L23.127 32.7658L23.1007 32.7527L23.0876 32.7199L23.0942 32.7067H23.1335L23.1467 32.7133L23.1729 32.7067L23.1664 32.6871H23.1138V32.6936L23.0876 32.7067H23.0482L23.0153 32.6871V32.6674L23.0613 32.6805L23.1007 32.6674H23.1204L23.1533 32.6608ZM23.1533 32.6608L23.1795 32.6739V32.6674L23.1533 32.6608ZM23.2781 32.536H23.2583V32.5623H23.2781L23.2978 32.5557L23.2781 32.536ZM23.1941 32.5368H23.1734L23.1665 32.516L23.1941 32.523V32.5368ZM23.1401 32.516L23.1008 32.5226L23.0942 32.5291L23.127 32.5357L23.1204 32.5489L23.1008 32.5357L23.081 32.5489L23.1008 32.562L23.1204 32.5555L23.1335 32.562L23.1533 32.5357L23.1401 32.516ZM23.5737 32.5291H23.6131L23.6197 32.5226L23.6525 32.516L23.6788 32.5291L23.705 32.5489L23.7116 32.5686V32.5751L23.6788 32.5817L23.6657 32.562L23.6525 32.5555L23.6459 32.5751L23.6591 32.5817L23.6657 32.6014L23.6853 32.5882L23.6984 32.5948L23.705 32.6211L23.7248 32.6277L23.7313 32.6211L23.7641 32.6408L23.7707 32.6146L23.7182 32.6014L23.7248 32.5686L23.7444 32.5555L23.843 32.5489L23.8889 32.5882L23.9021 32.5948V32.6211L23.8626 32.6146L23.8298 32.6014L23.7904 32.6146L23.8101 32.6277L23.8364 32.6342L23.8955 32.6408L23.9152 32.6473L23.9217 32.6605L23.9086 32.6933H23.8757L23.8692 32.6999L23.8232 32.7065L23.7904 32.7196L23.8101 32.7327L23.751 32.759L23.7248 32.7524L23.6919 32.759H23.6459L23.6065 32.7459L23.5671 32.7196V32.7393L23.5868 32.7524L23.6262 32.7656L23.6459 32.7853L23.6591 32.7787L23.6853 32.7853L23.7116 32.805L23.6984 32.8115L23.7116 32.8444H23.6984L23.6788 32.8247L23.6525 32.8181L23.6197 32.8444L23.6065 32.8247L23.5868 32.8115H23.5671L23.5343 32.7984L23.5211 32.805L23.5343 32.8312H23.554L23.5671 32.8444L23.554 32.851L23.6 32.8903L23.5868 32.8969L23.5606 32.8838H23.5409L23.5211 32.8641L23.5015 32.8575L23.4818 32.851L23.4752 32.8903L23.508 32.8969V32.9166L23.5015 32.9298L23.4752 32.9232L23.4686 32.9101L23.4358 32.8969L23.4292 32.8838H23.4161L23.3898 32.851L23.4095 32.8247V32.8115L23.3833 32.7787V32.7656L23.4161 32.7524L23.4095 32.7393L23.4423 32.7327L23.4358 32.713L23.4752 32.6868L23.5146 32.6737L23.5409 32.6999V32.7262L23.5606 32.7196L23.5277 32.6802L23.5343 32.6605L23.4949 32.6473L23.4686 32.6277L23.4752 32.6146L23.5015 32.6277L23.508 32.5948L23.462 32.5817L23.4686 32.562L23.4818 32.5686L23.5015 32.5555H23.5211L23.5343 32.5357L23.5146 32.516H23.5409L23.5737 32.5291ZM23.2914 32.5026H23.2454L23.2323 32.496L23.2257 32.5092L23.2782 32.5158L23.3045 32.5289L23.3308 32.5354L23.3439 32.5289L23.3308 32.5092L23.3177 32.5026L23.3045 32.5158L23.2914 32.5026ZM22.7988 32.4316L22.766 32.4249L22.7725 32.4118L22.7988 32.4316ZM19.7977 6.45223L19.8108 6.4194H19.7977L19.7189 6.43253L19.7123 6.4391H19.6401L19.627 6.45223L19.5548 6.4588L19.5284 6.4785L19.535 6.48507L19.5613 6.49164L19.581 6.4982L19.6007 6.52446V6.5376V6.57044L19.5876 6.59671L19.6007 6.64924L19.581 6.67551L19.5416 6.66894L19.5284 6.68864L19.5022 6.70834L19.4759 6.71491L19.4562 6.73461L19.4234 6.74774L19.4431 6.75431L19.4628 6.74118H19.5022L19.5284 6.75431L19.5613 6.74118L19.581 6.74774L19.6073 6.74118L19.6401 6.74774L19.673 6.74118H19.6926L19.7255 6.73461L19.7517 6.72148L19.7649 6.71491V6.66894L19.7714 6.64924L19.7846 6.6361L19.7714 6.62297L19.7583 6.60328V6.5573L19.7714 6.55074L19.7583 6.51133L19.7649 6.48507L19.778 6.4785L19.7977 6.45223Z" fill="#0C0C0D" fill-opacity="0.88"/>
</svg>
