<svg width="56" height="56" viewBox="0 0 56 56" fill="none" xmlns="http://www.w3.org/2000/svg">
<rect width="56" height="56" rx="28" fill="white"/>
<path d="M25.5996 12.3984C23.6256 12.3984 21.9996 14.0245 21.9996 15.9984C21.9996 16.4206 22.0883 16.8206 22.2246 17.1984H15.9996C14.6736 17.1984 13.5996 18.2724 13.5996 19.5984V21.9984H42.3996V19.5984C42.3996 18.2724 41.3256 17.1984 39.9997 17.1984H33.7745C33.9108 16.8206 33.9995 16.4206 33.9995 15.9984C33.9995 14.0245 32.3736 12.3984 30.3995 12.3984C29.4772 12.3984 28.6397 12.7634 27.9996 13.343C27.3596 12.7634 26.5219 12.3984 25.5996 12.3984ZM25.5996 14.7984C26.2776 14.7984 26.7996 15.3204 26.7996 15.9984V17.1984H25.5996C24.9216 17.1984 24.3996 16.6765 24.3996 15.9984C24.3996 15.3204 24.9216 14.7984 25.5996 14.7984ZM30.3995 14.7984C31.0776 14.7984 31.5996 15.3204 31.5996 15.9984C31.5996 16.6765 31.0776 17.1984 30.3995 17.1984H29.1997V15.9984C29.1997 15.3204 29.7215 14.7984 30.3995 14.7984ZM14.7996 24.3984V39.9985C14.7996 41.3244 15.8736 42.3984 17.1996 42.3984H26.7996V24.3984H14.7996ZM29.1997 24.3984V42.3984H38.7996C40.1257 42.3984 41.1995 41.3244 41.1995 39.9985V24.3984H29.1997Z" fill="#4CFF3D"/>
</svg>
