<svg width="17" height="16" viewBox="0 0 17 16" fill="none" xmlns="http://www.w3.org/2000/svg">
<path d="M9.73047 2.62746C9.73047 1.77037 9.73047 1.34183 9.5122 1.04142C9.44171 0.944393 9.35639 0.85907 9.25937 0.788579C8.95895 0.570312 8.53041 0.570313 7.67333 0.570313H3.78761C2.93053 0.570313 2.50199 0.570312 2.20157 0.788579C2.10455 0.85907 2.01923 0.944393 1.94874 1.04142C1.73047 1.34183 1.73047 1.77037 1.73047 2.62746V8.22745C1.73047 9.08454 1.73047 9.51308 1.94874 9.8135C2.01923 9.91052 2.10455 9.99584 2.20157 10.0663C2.50199 10.2846 2.93053 10.2846 3.78761 10.2846H7.67333C8.53041 10.2846 8.95895 10.2846 9.25937 10.0663C9.35639 9.99584 9.44171 9.91052 9.5122 9.8135C9.73047 9.51308 9.73047 9.08454 9.73047 8.22746V2.62746Z" fill="#0C0C0D" fill-opacity="0.6"/>
<path opacity="0.6" d="M10.9885 5.71484H12.4741C13.3312 5.71484 13.7598 5.71484 14.0602 5.93311C14.1572 6.0036 14.2425 6.08892 14.313 6.18595C14.5313 6.48636 14.5313 6.91491 14.5313 7.77199V13.372C14.5313 14.2291 14.5313 14.6576 14.313 14.958C14.2425 15.055 14.1572 15.1404 14.0602 15.2109C13.7598 15.4291 13.3312 15.4291 12.4741 15.4291H8.58839C7.73131 15.4291 7.30277 15.4291 7.00235 15.2109C6.90533 15.1404 6.82001 15.055 6.74952 14.958C6.53125 14.6576 6.53125 14.2291 6.53125 13.372V11.4291H8.34352C9.44549 11.4291 9.99647 11.4291 10.3828 11.1338C10.5075 11.0385 10.6172 10.923 10.7078 10.7918C10.9885 10.3853 10.9885 9.80552 10.9885 8.64594V5.71484Z" fill="#0C0C0D" fill-opacity="0.6"/>
</svg>
