<svg width="40" height="40" viewBox="0 0 40 40" fill="none" xmlns="http://www.w3.org/2000/svg">
<path d="M8.76914 11.8079L9.32268 12.478L10.8376 12.2741L11.362 12.7111L12.5856 13.8764L13.5179 14.7213L14.0423 14.6921L14.9745 15.0709L14.7997 15.5953L15.9651 15.6827L17.1013 16.4401L16.8682 16.8771L15.7611 17.1102L14.6541 17.1976L13.5761 17.0519L11.2163 17.2267L12.44 16.2071L11.8281 15.7118L10.7793 15.5953L10.2841 15.0417L10.051 13.9929L9.11874 14.0512L7.66207 13.5559L7.22507 13.1481L5.15661 12.8567L4.63219 12.5071L5.30228 12.041L3.72907 11.9536L2.44719 12.915L1.77713 12.9441L1.48579 13.4103L0.670064 13.6142L0 13.4103L0.932271 12.8567L1.36927 12.1575L2.15586 11.7497L3.02986 11.4001L4.28261 11.2253L4.69046 10.9922L6.05974 11.1379L7.34161 11.167L8.76914 11.8079Z" fill="#0C0C0D" fill-opacity="0.6"/>
<path d="M20.6858 20.635L20.7732 20.1106L20.3945 19.5571L20.8315 19.2366L21.0354 18.5083L21.0063 17.5177L21.2393 17.1973H22.4921L23.4243 17.6634L23.8613 17.6343L24.0653 18.3043L24.9684 18.2461L24.8519 18.7996L25.5802 18.887L26.3085 19.5571L25.6385 20.3145L24.881 19.9067L24.1235 19.9941L23.5991 19.9067L23.2787 20.2563L22.6377 20.3728L22.4338 19.9067L21.8803 20.1689L21.0937 21.4507L20.7149 21.1594L20.6858 20.635Z" fill="#0C0C0D" fill-opacity="0.6"/>
<path d="M21.0066 17.5175L21.0357 18.508L20.8318 19.2363L20.3948 19.5568L20.7735 20.1103L20.6861 20.6347L19.6373 20.3143L18.8507 20.4308L17.8602 20.3143L17.0736 20.6639L16.2578 20.0812L16.4618 19.4694L17.9476 19.7316L19.1421 19.8773L19.783 19.4694L19.1129 18.6537L19.2295 17.9253L18.2098 17.634L18.6468 17.1387L19.6373 17.197L21.0066 17.5175Z" fill="#0C0C0D" fill-opacity="0.6"/>
<path d="M12.1769 20.956L11.6525 21.2765L10.7785 20.956L9.93359 20.2859L10.1667 19.8489L10.8659 19.7324L11.2446 19.7907L12.3225 19.9655L13.1091 20.4025L13.3422 20.9269L12.1769 20.956Z" fill="#0C0C0D" fill-opacity="0.6"/>
<path d="M22.7836 31.1228L22.6379 31.0645L22.4922 30.9189L22.5214 30.7441L22.5796 30.8315L22.6962 30.948L22.7836 31.0937V31.1228Z" fill="#0C0C0D" fill-opacity="0.6"/>
<path d="M34.8161 20.3138H34.7578L34.8452 20.1973H34.9326L34.8744 20.2847L34.8161 20.3138Z" fill="#0C0C0D" fill-opacity="0.6"/>
<path d="M36.7079 22.353L36.8827 22.4404L36.8244 22.5278H36.7661L36.5622 22.557L36.5039 22.5278V22.3822L36.5913 22.353L36.6205 22.2656H36.6787L36.7079 22.353Z" fill="#0C0C0D" fill-opacity="0.6"/>
<path d="M36.7067 21.2754H36.765L36.8232 21.3336L36.8524 21.4501L36.8232 21.5376L36.765 21.5667L36.7358 21.5084L36.6484 21.4501V21.3045L36.7067 21.2754Z" fill="#0C0C0D" fill-opacity="0.6"/>
<path d="M19.1423 14.8088L19.0257 14.9545L18.9675 15.1001L18.7927 15.1875H18.647L18.6179 15.1584L18.5014 15.2167L18.3557 15.2458L18.1809 15.1875L18.0644 15.2167L18.0352 15.071L18.1226 15.0127L18.1809 14.9253L18.2974 14.8671L18.3848 14.7505H18.5014L18.5887 14.6923L18.647 14.7797L18.7927 14.8379L18.9384 14.7797L19.1423 14.4883H19.2297V14.5466L19.1423 14.8088Z" fill="#0C0C0D" fill-opacity="0.6"/>
<path d="M19.1988 14.313L19.1406 14.1382L19.3154 14.0508L19.4028 14.1382V14.1965L19.3154 14.2256L19.1988 14.313Z" fill="#0C0C0D" fill-opacity="0.6"/>
<path d="M19.3157 12.4196L19.374 12.3905L19.5196 12.4779H19.6362L19.7527 12.507L19.8401 12.5653V12.6527L19.7818 12.6818L19.6362 12.5653H19.5196L19.4905 12.5361L19.3448 12.5944L19.1992 12.5361V12.507L19.2574 12.3613L19.3157 12.4196Z" fill="#0C0C0D" fill-opacity="0.6"/>
<path d="M18.1779 11.8945L18.1196 12.0111V12.215L18.0905 12.3315L17.974 12.4189L17.9157 12.5355L17.7992 12.6229L17.5952 12.7103L17.5661 12.7685L17.5078 12.7103L17.537 12.652L17.6535 12.6229L17.7118 12.5646V12.5063L17.8283 12.4772L17.8866 12.3607L18.0031 12.3315L18.0905 12.215L18.0322 12.1276H17.9157L17.8574 12.0693L17.974 11.9237L18.0031 11.8945H18.1779Z" fill="#0C0C0D" fill-opacity="0.6"/>
<path d="M17.6255 11.8078L17.6547 11.8369H17.7712L17.8877 11.8952L17.7712 12.0117L17.7421 11.9535H17.6838L17.5673 11.9243L17.4507 11.8661L17.3633 11.6913L17.4507 11.6621L17.5673 11.6913L17.6255 11.8078Z" fill="#0C0C0D" fill-opacity="0.6"/>
<path d="M14.9468 10.0898L15.1216 10.2937L15.209 10.352L15.2964 10.4977L15.209 10.4685L15.1799 10.4103L15.0925 10.3811L14.976 10.2646L14.9177 10.2355L14.8594 10.1189L14.9468 10.0898Z" fill="#0C0C0D" fill-opacity="0.6"/>
<path d="M16.0252 10.0898L16.1126 10.2646L16.1709 10.4103V10.5268L16.2292 10.5851L16.2874 10.789V11.0512L16.3457 11.1386L16.4914 11.1969L16.6079 11.3717V11.6047L16.4914 11.4008V11.3425L16.404 11.226L16.2292 11.1677L16.2874 11.1095L16.2 11.0221V10.9347L16.2583 10.8473L16.2292 10.7016L16.1418 10.5851L16.1709 10.5559L16.0835 10.4394L16.0544 10.2646L15.9961 10.2937L16.0252 10.0898Z" fill="#0C0C0D" fill-opacity="0.6"/>
<path d="M16.868 10.0894L16.7806 10.1477L16.6932 10.1186L16.6641 10.0603L16.8389 10.002L16.868 10.0894Z" fill="#0C0C0D" fill-opacity="0.6"/>
<path d="M14.4798 9.5358L14.4507 9.50666L14.3633 9.30273H14.4215L14.4798 9.5358Z" fill="#0C0C0D" fill-opacity="0.6"/>
<path d="M17.5378 9.38964L17.4212 9.56444H17.3047L17.3629 9.47704L17.3921 9.30224L17.5086 9.21484L17.5378 9.33138V9.38964Z" fill="#0C0C0D" fill-opacity="0.6"/>
<path d="M12.1472 9.03891L12.0598 9.06803L12.0015 9.15544L11.9141 9.1263L12.0889 9.00977L12.1472 9.03891Z" fill="#0C0C0D" fill-opacity="0.6"/>
<path d="M12.2075 9.24429L12.324 9.30256L12.3823 9.24429L12.4114 9.09863L12.4697 9.06949L12.528 9.24429V9.38996L12.4988 9.47737L12.528 9.65216V9.73956L12.4114 9.97263L12.3532 10.0018L12.2366 9.94349L12.2949 9.8561L12.4114 9.79783L12.3823 9.7687L12.2075 9.88523L12.1492 9.82696L12.2658 9.73956H12.1492L12.091 9.7687L12.0327 9.71043V9.50649L12.0618 9.44823L11.9453 9.30256V9.24429L12.0618 9.18603L12.091 9.09863L12.1784 9.06949L12.2075 9.01123L12.3823 8.92383L12.4114 9.04037L12.2658 9.1569L12.2075 9.24429Z" fill="#0C0C0D" fill-opacity="0.6"/>
<path d="M16.1413 9.06915L16.1704 9.21481L16.1121 9.18569L15.9665 9.21481L15.8499 9.24395L15.8208 9.18569L15.9082 9.12741L16.0247 9.04002V8.98174L15.9082 8.92348L15.8499 8.74868L15.8208 8.57388L15.7043 8.45735V8.39908L15.5586 8.25342L15.646 8.16602L15.7625 8.28255V8.42822L15.8208 8.51562L15.8499 8.66127L15.9373 8.80694L16.0539 8.89435L16.083 8.98174L16.1413 9.06915Z" fill="#0C0C0D" fill-opacity="0.6"/>
<path d="M13.1404 7.4668L13.2278 7.52507L13.053 7.61247L12.9656 7.58334L12.9073 7.6416L12.7617 7.61247L12.8199 7.52507L12.9365 7.4668H13.1404Z" fill="#0C0C0D" fill-opacity="0.6"/>
<path d="M11.914 7.32178L12.0305 7.26351L12.1179 7.35092L12.0888 7.40919L12.1179 7.46745L12.0596 7.58399L12.147 7.67138L12.2053 7.93358L12.2636 8.02099L12.3801 8.16665L12.3218 8.37057L12.351 8.54539L12.2927 8.63278L12.2053 8.66191L12.0888 8.77845L12.0014 8.83671H11.914L11.8266 8.89499H11.7392V8.77845L11.6518 8.72019L11.6809 8.54539L11.5935 8.63278L11.5352 8.60365L11.3604 8.48711L11.273 8.39972L11.2148 8.31231L11.4187 8.22492L11.5644 8.42885L11.5935 8.25405L11.5061 8.22492L11.477 8.13752L11.5061 8.05011L11.6809 7.87532L11.7392 7.75878L11.71 7.72965L11.7974 7.61311V7.46745L11.7392 7.26351L11.7683 7.23438H11.8557L11.914 7.32178Z" fill="#0C0C0D" fill-opacity="0.6"/>
<path d="M14.2746 6.5625L14.3037 6.62076L14.3911 6.73729L14.6242 6.94123L14.7698 6.97036L14.799 6.9995L14.8572 7.11603L14.9446 7.23256L15.0903 7.34909V7.40736L15.032 7.64042L15.0029 7.6987V7.78609L14.9738 7.93176L14.9155 8.01916L14.8864 8.22309L14.8572 8.25223L14.799 8.07743L14.6824 7.99003L14.7116 7.93176L14.8572 7.96089L14.9155 7.90262L14.8864 7.84436L14.9155 7.72783L15.0029 7.61129L15.032 7.46562V7.37823L14.8864 7.26169L14.7698 7.05776L14.6824 6.9995L14.5076 6.91209L14.4202 6.82469L14.2454 6.76642L14.1289 6.82469L14.2454 6.5625H14.2746Z" fill="#0C0C0D" fill-opacity="0.6"/>
<path d="M11.7109 4.37808L11.8566 4.43635H11.8857L12.0897 4.46548L12.1479 4.40721L12.2062 4.43635H12.3519L12.4684 4.37808H12.5849L12.6723 4.31981L12.7015 4.46548L12.6723 4.52375H12.5849H12.4684L12.1479 4.58201H12.0605L11.6235 4.69854L11.4196 4.81508H11.3031L11.2448 4.78595L11.1574 4.69854L11.0117 4.52375L11.1865 4.61115L11.2157 4.66942H11.3613L11.507 4.61115L11.6235 4.43635L11.5361 4.40721L11.5944 4.31981L11.6235 4.23242L11.7109 4.37808Z" fill="#0C0C0D" fill-opacity="0.6"/>
<path d="M12.9659 4L13.199 4.05827L13.2573 4.02914L13.3738 4.11653L13.636 4.40787L13.6943 4.58267L13.8108 4.6118L14.0147 4.75747V4.81574L13.9565 4.96141L14.0147 5.16533H13.8982L13.7525 5.28187L13.7234 5.34014L13.636 5.63147L13.6069 5.89367L13.5486 5.95194L13.4612 5.89367L13.4321 5.77714L13.3155 5.748L13.4029 5.60234H13.4612L13.6069 5.4858L13.5777 5.36927L13.636 5.25274V5.16533L13.6943 5.07794V4.90314L13.7525 4.874L13.8108 4.7866L13.8399 4.6992L13.7525 4.67007L13.6069 4.64094L13.5777 4.55353V4.49527L13.4612 4.437V4.3496L13.3738 4.14567L13.3155 4.11653L13.2281 4.14567L13.0825 4.11653H12.9951L12.8203 4H12.9659Z" fill="#0C0C0D" fill-opacity="0.6"/>
<path d="M35.1073 20.9253L35.0781 20.8379L35.1656 20.8671L35.1073 20.9253Z" fill="#0C0C0D" fill-opacity="0.6"/>
<path d="M39.8562 29.9578L39.6814 29.8995L39.6523 29.7538V29.5208L39.7106 29.4043L39.7688 29.4625L39.8271 29.6373L39.9728 29.7247L40.0019 29.8413L39.8562 29.9578Z" fill="#0C0C0D" fill-opacity="0.6"/>
<path d="M24.5589 31.8518H24.4715L24.355 31.7644L24.2676 31.7353L24.1802 31.6479L24.1511 31.5896L24.0637 31.5605L24.0054 31.444L23.918 31.3566L23.9471 31.2109L24.0928 31.2983L24.1219 31.444L24.2385 31.5605L24.4424 31.6188L24.5007 31.7062L24.5881 31.8227L24.5589 31.8518Z" fill="#0C0C0D" fill-opacity="0.6"/>
<path d="M5.24577 18.2456L5.33317 18.2747L5.39144 18.1582L5.50796 18.1873H5.65363L5.68277 18.2456L5.6245 18.3039L5.56623 18.2747L5.44971 18.3039L5.39144 18.333H5.1875L5.24577 18.2456Z" fill="#0C0C0D" fill-opacity="0.6"/>
<path d="M7.60238 17.5176L7.39844 17.605L7.45671 17.5176H7.60238Z" fill="#0C0C0D" fill-opacity="0.6"/>
<path d="M7.77914 17.5462L7.75 17.5171L7.98306 17.4297L7.92481 17.5171L7.77914 17.5462Z" fill="#0C0C0D" fill-opacity="0.6"/>
<path d="M37.0871 25.2087L37.2328 25.2378L37.291 25.3835V25.5583L37.2619 25.7913L37.2328 25.8496L37.1745 25.8787L37.058 25.937L37.0871 25.8205L37.058 25.7622L37.0288 25.5583L36.9414 25.4126V25.3252L36.9706 25.2378V25.1504H37.0288L37.0871 25.2087Z" fill="#0C0C0D" fill-opacity="0.6"/>
<path d="M36.2703 31.8516L36.1538 31.939L36.0955 31.9099L36.0664 31.7642L36.1246 31.6186L36.212 31.502H36.2994L36.3286 31.5894L36.2994 31.7933L36.2703 31.8516Z" fill="#0C0C0D" fill-opacity="0.6"/>
<path d="M35.4251 22.3838H35.3377L35.3086 22.3255L35.3668 22.209H35.4251L35.4542 22.2672L35.4251 22.3838Z" fill="#0C0C0D" fill-opacity="0.6"/>
<path d="M35.2231 21.9464L35.194 22.0338H35.1357L35.0192 21.9756L34.9609 21.9173L35.0483 21.8008L35.194 21.9173L35.2231 21.9464Z" fill="#0C0C0D" fill-opacity="0.6"/>
<path d="M37.5828 28.7342L37.5245 28.676L37.408 28.6177L37.3789 28.5594V28.3846L37.408 28.3264L37.6119 28.0059L37.6993 28.0642V28.2681L37.6702 28.5012L37.6411 28.6177L37.5828 28.7342Z" fill="#0C0C0D" fill-opacity="0.6"/>
<path d="M34.8157 20.6358L34.6992 20.6067L34.7574 20.5193L34.8448 20.4902L34.8157 20.6358Z" fill="#0C0C0D" fill-opacity="0.6"/>
<path d="M35.978 22.9375L36.0363 23.054V23.1414L35.978 23.1997L35.9197 23.1706L35.8906 23.0832L35.978 22.9375Z" fill="#0C0C0D" fill-opacity="0.6"/>
<path d="M26.9194 20.6067L26.832 20.5485L26.8612 20.4902H26.9486L26.9777 20.5193L26.9194 20.6067Z" fill="#0C0C0D" fill-opacity="0.6"/>
<path d="M31.171 20.4606H31.1128L30.8506 20.548H30.6758L30.734 20.4897L30.8506 20.4315L30.9671 20.4023L31.1419 20.4315L31.171 20.4606Z" fill="#0C0C0D" fill-opacity="0.6"/>
<path d="M28.4058 19.7615L28.5805 19.7907H28.7554L28.8427 19.8198L29.0175 19.7907L29.1049 19.8198L29.2214 19.7907L29.2797 19.8198L29.4254 19.7907L29.542 19.8198H29.6293L29.8624 19.8781V19.8198L30.0373 19.8781L30.0663 19.8489L30.2994 19.8781L30.3577 19.9363H30.4159L30.5907 20.0237L30.649 19.9946L30.6199 20.1985L30.6782 20.2859L30.4159 20.3733L30.3286 20.4899L30.2411 20.6647L30.1537 20.7229L30.0663 20.7521H29.9499L29.775 20.7812L29.6876 20.8395L29.4837 20.8103L29.4254 20.7521L29.2797 20.8103L29.1924 20.7229L28.9884 20.7812L28.7262 20.7521L28.6388 20.7812L28.4641 20.8103L28.4058 20.8395L28.3475 20.7812L28.2309 20.7521L28.1435 20.8103L27.9688 20.7812L28.0562 20.5773V20.4607L28.1145 20.3442L28.0562 20.1694L27.9979 20.1403L27.9688 20.0237L28.0852 19.9655L28.1435 19.9363V19.7907L28.2601 19.7324L28.4058 19.7615Z" fill="#0C0C0D" fill-opacity="0.6"/>
<path d="M34.8157 20.6347V20.6638L34.6992 20.6347V20.6055L34.8157 20.6347Z" fill="#0C0C0D" fill-opacity="0.6"/>
<path d="M21.2692 13.5273H21.4732L21.5605 13.6438H21.4732L21.3857 13.6147L21.2401 13.6438L21.2109 13.5564L21.2692 13.5273Z" fill="#0C0C0D" fill-opacity="0.6"/>
<path d="M20.4819 13.498L20.5693 13.6145L20.7441 13.5854L20.6858 13.6436H20.511L20.3945 13.5854L20.4819 13.498Z" fill="#0C0C0D" fill-opacity="0.6"/>
<path d="M21.1201 13.3222V13.4678L20.9745 13.4096L20.9453 13.3222L20.9745 13.293L21.1201 13.3222Z" fill="#0C0C0D" fill-opacity="0.6"/>
<path d="M37.3204 34.0938L37.2622 34.2395L37.1748 34.356L37.1165 34.3852L37.0874 34.5017L37.1457 34.6765L37.0874 34.7056V34.9095L37.1457 34.9969L37.2039 35.0552L37.1457 35.1135L37.1165 35.2009V35.4048L37.0583 35.4339L36.9417 35.4922L36.7961 35.5214H36.7087L36.563 35.5505L36.4173 35.5214L36.3008 35.5505L36.2134 35.5214L36.0677 35.5796L35.9512 35.5214H35.7764L35.689 35.5796L35.6016 35.5505L35.7473 35.4922L35.8347 35.4048L35.9512 35.3757L36.0677 35.2882L36.126 35.2009L36.3008 35.2299L36.3882 35.1135L36.3299 34.8804L36.3882 34.7639V34.6182V34.5599L36.3008 34.4434L36.2134 34.4143L36.0968 34.3852L36.0677 34.356L36.1843 34.2686L36.5047 34.2395L36.563 34.1812H36.8834L36.9126 34.1521L37.2622 34.0938H37.3204Z" fill="#0C0C0D" fill-opacity="0.6"/>
<path d="M38.0183 33.1621L37.9892 33.3077L37.9018 33.3369L37.7853 33.4243H37.727L37.5231 33.5408L37.4648 33.4825L37.5522 33.3951L37.7561 33.2495L38.0183 33.1621Z" fill="#0C0C0D" fill-opacity="0.6"/>
<path d="M37.1436 29.7828L37.1144 29.812L36.9688 29.7246V29.608L37.0271 29.5206L37.0854 29.375H37.2019L37.2309 29.4915L37.2019 29.7246L37.1436 29.7828Z" fill="#0C0C0D" fill-opacity="0.6"/>
<path d="M32.4536 19.8787L32.337 19.937H32.3079L32.2205 19.9953L32.1914 19.9661L32.2205 19.8787L32.3953 19.8496L32.4536 19.8787Z" fill="#0C0C0D" fill-opacity="0.6"/>
<path d="M31.9888 21.1598L32.0762 21.2472L31.7557 21.3055L31.7266 21.1598L31.9305 21.1016L31.9888 21.1598Z" fill="#0C0C0D" fill-opacity="0.6"/>
<path d="M32.1922 20.0525L32.134 20.1108H31.9883V20.0525L32.0757 20.0234L32.1922 20.0525Z" fill="#0C0C0D" fill-opacity="0.6"/>
<path d="M31.7842 19.9941L31.9007 20.0815L31.8424 20.1398L31.755 20.0815H31.6094L31.6677 20.0233L31.7842 19.9941Z" fill="#0C0C0D" fill-opacity="0.6"/>
<path d="M25.432 31.8799H25.3737L25.3446 31.7343L25.3737 31.6469L25.3446 31.5595L25.228 31.5303L25.1406 31.4429L25.1698 31.3555L25.5194 31.5303L25.4902 31.5886V31.7051L25.432 31.7634V31.8799Z" fill="#0C0C0D" fill-opacity="0.6"/>
<path d="M34.8435 21.6832L34.7852 21.7124V21.6541L34.8144 21.625L34.8435 21.6832Z" fill="#0C0C0D" fill-opacity="0.6"/>
<path d="M34.408 21.4216H34.3789L34.408 21.3633L34.4372 21.3925L34.408 21.4216Z" fill="#0C0C0D" fill-opacity="0.6"/>
<path d="M37.6696 26.7236V26.7819L37.7862 26.7528L37.7279 26.8984L37.7862 26.9567V27.015L37.8444 27.0732L37.9027 27.3354L37.8153 27.4228L37.7862 27.3063L37.757 27.3354L37.5822 27.3063H37.4657L37.4074 27.2189L37.5822 27.0732H37.4657L37.3491 26.9567L37.32 26.811L37.2617 26.6654L37.3491 26.5488L37.4657 26.578L37.6113 26.6654L37.6696 26.7236Z" fill="#0C0C0D" fill-opacity="0.6"/>
<path d="M37.3761 24.6841H37.2887L37.2305 24.5675L37.2596 24.5093L37.347 24.4219L37.4344 24.4801L37.4635 24.5675V24.6258L37.3761 24.6841Z" fill="#0C0C0D" fill-opacity="0.6"/>
<path d="M36.8517 23.9268H36.9392V23.9851V24.0142L36.8809 24.0434V24.2764V24.393L36.8226 24.4513L36.6478 24.5387V24.4804L36.5896 24.4221L36.5604 24.2764V24.1308L36.5312 23.9851V23.8977L36.5896 23.8104L36.677 23.7812L36.8226 23.8687L36.8517 23.9268Z" fill="#0C0C0D" fill-opacity="0.6"/>
<path d="M37.2619 23.8106L37.3784 23.8398L37.5241 23.9563L37.1454 24.0437L37.058 24.0728L36.9414 23.9854L36.9706 23.8106L37.0288 23.7815L36.9997 23.6067L37.0288 23.5484L37.1162 23.4902L37.2036 23.6067V23.7232L37.2619 23.8106Z" fill="#0C0C0D" fill-opacity="0.6"/>
</svg>
