<svg width="28" height="28" viewBox="0 0 28 28" fill="none" xmlns="http://www.w3.org/2000/svg">
<path fill-rule="evenodd" clip-rule="evenodd" d="M14 2C7.37273 2 2 7.37273 2 14C2 20.6273 7.37273 26 14 26C20.6273 26 26 20.6273 26 14C26 7.37273 20.6273 2 14 2ZM12.9091 4.54723V9.63636H10.12C10.7122 7.10166 11.7776 5.281 12.9091 4.54723ZM15.0909 4.54723C16.2224 5.281 17.2878 7.10166 17.88 9.63636H15.0909V4.54723ZM9.45632 5.30043C8.77257 6.49941 8.23712 7.97309 7.8924 9.63636H5.21413C6.1372 7.78185 7.62343 6.2598 9.45632 5.30043ZM18.5437 5.30043C20.3766 6.2598 21.8628 7.78185 22.7859 9.63636H20.1076C19.7629 7.97309 19.2274 6.49941 18.5437 5.30043ZM4.43324 11.8182H7.56428C7.496 12.5253 7.45455 13.2516 7.45455 14C7.45455 14.7484 7.496 15.4747 7.56428 16.1818H4.43324C4.27354 15.4791 4.18182 14.751 4.18182 14C4.18182 13.249 4.27354 12.5209 4.43324 11.8182ZM9.75249 11.8182H12.9091V16.1818H9.75249C9.67885 15.4874 9.63636 14.7602 9.63636 14C9.63636 13.2398 9.67885 12.5126 9.75249 11.8182ZM15.0909 11.8182H18.2475C18.3211 12.5126 18.3636 13.2398 18.3636 14C18.3636 14.7602 18.3211 15.4874 18.2475 16.1818H15.0909V11.8182ZM20.4357 11.8182H23.5668C23.7265 12.5209 23.8182 13.249 23.8182 14C23.8182 14.751 23.7265 15.4791 23.5668 16.1818H20.4357C20.504 15.4747 20.5455 14.7484 20.5455 14C20.5455 13.2516 20.504 12.5253 20.4357 11.8182ZM5.21413 18.3636H7.8924C8.23712 20.0269 8.77257 21.5006 9.45632 22.6996C7.62343 21.7402 6.1372 20.2182 5.21413 18.3636ZM10.12 18.3636H12.9091V23.4528C11.7776 22.719 10.7122 20.8983 10.12 18.3636ZM15.0909 18.3636H17.88C17.2878 20.8983 16.2224 22.719 15.0909 23.4528V18.3636ZM20.1076 18.3636H22.7859C21.8628 20.2182 20.3766 21.7402 18.5437 22.6996C19.2274 21.5006 19.7629 20.0269 20.1076 18.3636Z" fill="#0C0C0D" fill-opacity="0.6"/>
</svg>
