<svg width="28" height="28" viewBox="0 0 28 28" fill="none" xmlns="http://www.w3.org/2000/svg">
<path fill-rule="evenodd" clip-rule="evenodd" d="M9.82606 2C9.53792 2 9.30434 2.23358 9.30434 2.52172V4.60863C9.30434 4.89677 9.53792 5.13035 9.82606 5.13035C10.1142 5.13035 10.3478 4.89677 10.3478 4.60863V2.52172C10.3478 2.23358 10.1142 2 9.82606 2ZM6.17385 13.2689C6.17385 10.5364 6.17385 9.17009 6.7889 8.16642C7.13305 7.60482 7.60523 7.13263 8.16684 6.78848C9.17051 6.17343 10.5368 6.17343 13.2693 6.17343H14.7301C17.4627 6.17343 18.8289 6.17343 19.8326 6.78848C20.3942 7.13263 20.8664 7.60482 21.2105 8.16642C21.8256 9.17009 21.8256 10.5364 21.8256 13.2689V14.7297C21.8256 17.4622 21.8256 18.8285 21.2105 19.8322C20.8664 20.3938 20.3942 20.866 19.8326 21.2101C18.8289 21.8252 17.4627 21.8252 14.7301 21.8252H13.2693C10.5368 21.8252 9.17051 21.8252 8.16684 21.2101C7.60523 20.866 7.13305 20.3938 6.7889 19.8322C6.17385 18.8285 6.17385 17.4622 6.17385 14.7297V13.2689ZM2.52172 18.6954C2.23358 18.6954 2 18.4618 2 18.1737C2 17.8855 2.23358 17.6519 2.52172 17.6519H4.60863C4.89677 17.6519 5.13035 17.8855 5.13035 18.1737C5.13035 18.4618 4.89677 18.6954 4.60863 18.6954H2.52172ZM2.00021 16.0869C2.00021 16.3751 2.23379 16.6087 2.52193 16.6087H4.60883C4.89698 16.6087 5.13056 16.3751 5.13056 16.0869C5.13056 15.7988 4.89698 15.5652 4.60883 15.5652H2.52193C2.23379 15.5652 2.00021 15.7988 2.00021 16.0869ZM2.52193 14.522C2.23379 14.522 2.00021 14.2884 2.00021 14.0002C2.00021 13.7121 2.23379 13.4785 2.52193 13.4785H4.60883C4.89698 13.4785 5.13056 13.7121 5.13056 14.0002C5.13056 14.2884 4.89698 14.522 4.60883 14.522H2.52193ZM2.00021 11.9127C2.00021 12.2008 2.23379 12.4344 2.52193 12.4344H4.60883C4.89698 12.4344 5.13056 12.2008 5.13056 11.9127C5.13056 11.6245 4.89698 11.391 4.60883 11.391H2.52193C2.23379 11.391 2.00021 11.6245 2.00021 11.9127ZM2.52193 10.3485C2.23379 10.3485 2.00021 10.1149 2.00021 9.8268C2.00021 9.53866 2.23379 9.30508 2.52193 9.30508H4.60883C4.89698 9.30508 5.13056 9.53866 5.13056 9.8268C5.13056 10.1149 4.89698 10.3485 4.60883 10.3485H2.52193ZM11.3913 2.52172C11.3913 2.23358 11.6248 2 11.913 2C12.2011 2 12.4347 2.23358 12.4347 2.52172V4.60863C12.4347 4.89677 12.2011 5.13035 11.913 5.13035C11.6248 5.13035 11.3913 4.89677 11.3913 4.60863V2.52172ZM13.9999 2C13.7118 2 13.4782 2.23358 13.4782 2.52172V4.60863C13.4782 4.89677 13.7118 5.13035 13.9999 5.13035C14.288 5.13035 14.5216 4.89677 14.5216 4.60863V2.52172C14.5216 2.23358 14.288 2 13.9999 2ZM15.5651 2.52172C15.5651 2.23358 15.7987 2 16.0868 2C16.375 2 16.6086 2.23358 16.6086 2.52172V4.60863C16.6086 4.89677 16.375 5.13035 16.0868 5.13035C15.7987 5.13035 15.5651 4.89677 15.5651 4.60863V2.52172ZM18.1738 2C17.8856 2 17.652 2.23358 17.652 2.52172V4.60863C17.652 4.89677 17.8856 5.13035 18.1738 5.13035C18.4619 5.13035 18.6955 4.89677 18.6955 4.60863V2.52172C18.6955 2.23358 18.4619 2 18.1738 2ZM9.30434 23.3914C9.30434 23.1032 9.53792 22.8696 9.82606 22.8696C10.1142 22.8696 10.3478 23.1032 10.3478 23.3914V25.4783C10.3478 25.7664 10.1142 26 9.82606 26C9.53792 26 9.30434 25.7664 9.30434 25.4783V23.3914ZM11.913 22.8688C11.6248 22.8688 11.3913 23.1024 11.3913 23.3905V25.4774C11.3913 25.7656 11.6248 25.9992 11.913 25.9992C12.2011 25.9992 12.4347 25.7656 12.4347 25.4774V23.3905C12.4347 23.1024 12.2011 22.8688 11.913 22.8688ZM13.4782 23.3905C13.4782 23.1024 13.7118 22.8688 13.9999 22.8688C14.288 22.8688 14.5216 23.1024 14.5216 23.3905V25.4774C14.5216 25.7656 14.288 25.9992 13.9999 25.9992C13.7118 25.9992 13.4782 25.7656 13.4782 25.4774V23.3905ZM16.0868 22.8688C15.7987 22.8688 15.5651 23.1024 15.5651 23.3905V25.4774C15.5651 25.7656 15.7987 25.9992 16.0868 25.9992C16.375 25.9992 16.6086 25.7656 16.6086 25.4774V23.3905C16.6086 23.1024 16.375 22.8688 16.0868 22.8688ZM17.652 23.3905C17.652 23.1024 17.8856 22.8688 18.1738 22.8688C18.4619 22.8688 18.6955 23.1024 18.6955 23.3905V25.4774C18.6955 25.7656 18.4619 25.9992 18.1738 25.9992C17.8856 25.9992 17.652 25.7656 17.652 25.4774V23.3905ZM22.8692 18.1737C22.8692 18.4618 23.1028 18.6954 23.391 18.6954H25.4779C25.766 18.6954 25.9996 18.4618 25.9996 18.1737C25.9996 17.8855 25.766 17.6519 25.4779 17.6519H23.391C23.1028 17.6519 22.8692 17.8855 22.8692 18.1737ZM23.391 16.6087C23.1028 16.6087 22.8692 16.3751 22.8692 16.0869C22.8692 15.7988 23.1028 15.5652 23.391 15.5652H25.4779C25.766 15.5652 25.9996 15.7988 25.9996 16.0869C25.9996 16.3751 25.766 16.6087 25.4779 16.6087H23.391ZM22.8692 14.0002C22.8692 14.2884 23.1028 14.522 23.391 14.522H25.4779C25.766 14.522 25.9996 14.2884 25.9996 14.0002C25.9996 13.7121 25.766 13.4785 25.4779 13.4785H23.391C23.1028 13.4785 22.8692 13.7121 22.8692 14.0002ZM23.391 12.4344C23.1028 12.4344 22.8692 12.2008 22.8692 11.9127C22.8692 11.6245 23.1028 11.391 23.391 11.391H25.4779C25.766 11.391 25.9996 11.6245 25.9996 11.9127C25.9996 12.2008 25.766 12.4344 25.4779 12.4344H23.391ZM22.8692 9.8268C22.8692 10.1149 23.1028 10.3485 23.391 10.3485H25.4779C25.766 10.3485 25.9996 10.1149 25.9996 9.8268C25.9996 9.53866 25.766 9.30508 25.4779 9.30508H23.391C23.1028 9.30508 22.8692 9.53866 22.8692 9.8268Z" fill="#0C0C0D" fill-opacity="0.6"/>
</svg>
