<svg width="56" height="56" viewBox="0 0 56 56" fill="none" xmlns="http://www.w3.org/2000/svg">
<path d="M56 28C56 12.536 43.464 0 28 0C12.536 0 0 12.536 0 28C0 43.464 12.536 56 28 56C43.464 56 56 43.464 56 28Z" fill="#34C759" fill-opacity="0.16"/>
<path fill-rule="evenodd" clip-rule="evenodd" d="M22.6362 12.5723C22.2658 12.5723 21.9655 12.8726 21.9655 13.2431V15.9262C21.9655 16.2967 22.2658 16.597 22.6362 16.597C23.0067 16.597 23.307 16.2967 23.307 15.9262V13.2431C23.307 12.8726 23.0067 12.5723 22.6362 12.5723ZM17.9405 27.0608C17.9405 23.5476 17.9405 21.791 18.7313 20.5005C19.1738 19.7785 19.7809 19.1714 20.503 18.7289C21.7934 17.9381 23.55 17.9381 27.0633 17.9381H28.9415C32.4547 17.9381 34.2114 17.9381 35.5018 18.7289C36.2239 19.1714 36.831 19.7785 37.2734 20.5005C38.0642 21.791 38.0642 23.5476 38.0642 27.0608V28.939C38.0642 32.4523 38.0642 34.2089 37.2734 35.4994C36.831 36.2214 36.2239 36.8285 35.5018 37.271C34.2114 38.0618 32.4547 38.0618 28.9415 38.0618H27.0633C23.55 38.0618 21.7934 38.0618 20.503 37.271C19.7809 36.8285 19.1738 36.2214 18.7313 35.4994C17.9405 34.2089 17.9405 32.4523 17.9405 28.939V27.0608ZM13.245 34.0378C12.8745 34.0378 12.5742 33.7374 12.5742 33.367C12.5742 32.9965 12.8745 32.6962 13.245 32.6962H15.9281C16.2986 32.6962 16.5989 32.9965 16.5989 33.367C16.5989 33.7374 16.2986 34.0378 15.9281 34.0378H13.245ZM12.5744 30.6841C12.5744 31.0545 12.8748 31.3548 13.2452 31.3548H15.9284C16.2988 31.3548 16.5992 31.0545 16.5992 30.6841C16.5992 30.3136 16.2988 30.0133 15.9284 30.0133H13.2452C12.8748 30.0133 12.5744 30.3136 12.5744 30.6841ZM13.2452 28.6719C12.8748 28.6719 12.5744 28.3716 12.5744 28.0011C12.5744 27.6307 12.8748 27.3303 13.2452 27.3303H15.9284C16.2988 27.3303 16.5992 27.6307 16.5992 28.0011C16.5992 28.3716 16.2988 28.6719 15.9284 28.6719H13.2452ZM12.5744 25.3171C12.5744 25.6876 12.8748 25.9879 13.2452 25.9879H15.9284C16.2988 25.9879 16.5992 25.6876 16.5992 25.3171C16.5992 24.9467 16.2988 24.6464 15.9284 24.6464H13.2452C12.8748 24.6464 12.5744 24.9467 12.5744 25.3171ZM13.2452 23.3061C12.8748 23.3061 12.5744 23.0058 12.5744 22.6353C12.5744 22.2648 12.8748 21.9645 13.2452 21.9645H15.9284C16.2988 21.9645 16.5992 22.2648 16.5992 22.6353C16.5992 23.0058 16.2988 23.3061 15.9284 23.3061H13.2452ZM24.6486 13.2431C24.6486 12.8726 24.949 12.5723 25.3194 12.5723C25.6899 12.5723 25.9902 12.8726 25.9902 13.2431V15.9262C25.9902 16.2967 25.6899 16.597 25.3194 16.597C24.949 16.597 24.6486 16.2967 24.6486 15.9262V13.2431ZM28.0026 12.5723C27.6322 12.5723 27.3318 12.8726 27.3318 13.2431V15.9262C27.3318 16.2967 27.6322 16.597 28.0026 16.597C28.3731 16.597 28.6734 16.2967 28.6734 15.9262V13.2431C28.6734 12.8726 28.3731 12.5723 28.0026 12.5723ZM30.015 13.2431C30.015 12.8726 30.3153 12.5723 30.6858 12.5723C31.0563 12.5723 31.3566 12.8726 31.3566 13.2431V15.9262C31.3566 16.2967 31.0563 16.597 30.6858 16.597C30.3153 16.597 30.015 16.2967 30.015 15.9262V13.2431ZM33.369 12.5723C32.9985 12.5723 32.6982 12.8726 32.6982 13.2431V15.9262C32.6982 16.2967 32.9985 16.597 33.369 16.597C33.7395 16.597 34.0398 16.2967 34.0398 15.9262V13.2431C34.0398 12.8726 33.7395 12.5723 33.369 12.5723ZM21.9655 40.0755C21.9655 39.705 22.2658 39.4047 22.6362 39.4047C23.0067 39.4047 23.307 39.705 23.307 40.0755V42.7586C23.307 43.1291 23.0067 43.4294 22.6362 43.4294C22.2658 43.4294 21.9655 43.1291 21.9655 42.7586V40.0755ZM25.3194 39.4036C24.949 39.4036 24.6486 39.7039 24.6486 40.0744V42.7575C24.6486 43.128 24.949 43.4283 25.3194 43.4283C25.6899 43.4283 25.9902 43.128 25.9902 42.7575V40.0744C25.9902 39.7039 25.6899 39.4036 25.3194 39.4036ZM27.3318 40.0744C27.3318 39.7039 27.6322 39.4036 28.0026 39.4036C28.3731 39.4036 28.6734 39.7039 28.6734 40.0744V42.7575C28.6734 43.128 28.3731 43.4283 28.0026 43.4283C27.6322 43.4283 27.3318 43.128 27.3318 42.7575V40.0744ZM30.6858 39.4036C30.3153 39.4036 30.015 39.7039 30.015 40.0744V42.7575C30.015 43.128 30.3153 43.4283 30.6858 43.4283C31.0563 43.4283 31.3566 43.128 31.3566 42.7575V40.0744C31.3566 39.7039 31.0563 39.4036 30.6858 39.4036ZM32.6982 40.0744C32.6982 39.7039 32.9985 39.4036 33.369 39.4036C33.7395 39.4036 34.0398 39.7039 34.0398 40.0744V42.7575C34.0398 43.128 33.7395 43.4283 33.369 43.4283C32.9985 43.4283 32.6982 43.128 32.6982 42.7575V40.0744ZM39.406 33.367C39.406 33.7374 39.7064 34.0378 40.0768 34.0378H42.76C43.1304 34.0378 43.4308 33.7374 43.4308 33.367C43.4308 32.9965 43.1304 32.6962 42.76 32.6962H40.0768C39.7064 32.6962 39.406 32.9965 39.406 33.367ZM40.0768 31.3548C39.7064 31.3548 39.406 31.0545 39.406 30.6841C39.406 30.3136 39.7064 30.0133 40.0768 30.0133H42.76C43.1304 30.0133 43.4308 30.3136 43.4308 30.6841C43.4308 31.0545 43.1304 31.3548 42.76 31.3548H40.0768ZM39.406 28.0011C39.406 28.3716 39.7064 28.6719 40.0768 28.6719H42.76C43.1304 28.6719 43.4308 28.3716 43.4308 28.0011C43.4308 27.6307 43.1304 27.3303 42.76 27.3303H40.0768C39.7064 27.3303 39.406 27.6307 39.406 28.0011ZM40.0768 25.9879C39.7064 25.9879 39.406 25.6876 39.406 25.3171C39.406 24.9467 39.7064 24.6464 40.0768 24.6464H42.76C43.1304 24.6464 43.4308 24.9467 43.4308 25.3171C43.4308 25.6876 43.1304 25.9879 42.76 25.9879H40.0768ZM39.406 22.6353C39.406 23.0058 39.7064 23.3061 40.0768 23.3061H42.76C43.1304 23.3061 43.4308 23.0058 43.4308 22.6353C43.4308 22.2648 43.1304 21.9645 42.76 21.9645H40.0768C39.7064 21.9645 39.406 22.2648 39.406 22.6353Z" fill="#34C759"/>
</svg>
