<svg width="32" height="32" viewBox="0 0 32 32" fill="none" xmlns="http://www.w3.org/2000/svg">
<path fill-rule="evenodd" clip-rule="evenodd" d="M19.3741 0.800781L19.207 0.967381L19.3345 1.09453L19.3741 1.13398V0.800781ZM19.3741 1.21728L19.1235 1.30497L19.3345 1.42772L19.3741 1.21728ZM18.4153 1.34442L18.2878 1.88806L18.5385 1.55486L18.4153 1.34442ZM21.7184 2.05466L21.6348 2.67721L21.217 3.01041V3.22085L21.0059 3.97056L21.3401 4.181L21.2565 4.55365H21.5073L21.2565 4.59749L21.173 4.93069L21.5513 4.80355L21.4237 5.09729L21.8459 4.93069L21.5953 4.72025L21.8459 4.63695L21.5953 4.59749L21.8019 4.55365L21.5953 4.38705H21.8019L21.5513 4.13715L21.7624 4.09769L21.7184 3.8478L21.6788 3.47076L22.0526 2.38786L21.7184 2.05466ZM15.3191 2.26072V2.51061H15.108L15.1915 2.76052L15.3586 2.72106L15.5697 2.67721L15.3586 2.88765L15.8205 3.05425L16.1547 2.55446L15.904 2.34401L15.6929 2.51061L15.6533 2.26072L15.6093 2.59392L15.3586 2.34401L15.3191 2.26072ZM14.9409 2.55446V3.22085L14.7341 2.67721L14.6505 2.97096L14.4394 2.76052L14.6505 2.63776L14.2723 2.76052L14.4394 3.59789L14.7737 3.2647V3.47076L14.9013 3.348L15.0244 3.5146L14.4834 3.72065L14.523 3.93109L14.9409 3.80395L14.6065 3.97056L14.8177 4.09769L14.4834 4.0144L14.6901 4.3476L14.9013 4.63695L15.2355 3.5146L15.3586 3.4313L15.5697 3.348L15.3586 3.0981V3.09372L15.1519 2.80436L15.0684 2.97096L14.9409 2.55446ZM15.5697 3.38745L15.3586 3.47076L15.4862 3.63736L15.5697 3.38745ZM15.7369 3.59789L15.4862 3.72065V4.09769L15.6929 4.0144L15.7369 4.22045L15.904 3.97056L15.7369 3.59789ZM21.8459 5.01399L21.5513 5.09729L21.3401 5.30773L21.5117 5.39103L21.3401 5.59709L21.5953 5.51379L21.4677 6.18019L21.6788 6.34679L21.9295 6.14073L22.3033 6.51339L22.9323 6.18019L22.0966 5.80753L21.8459 5.43049V5.01399ZM25.0653 5.93029L23.8515 6.22403V6.47393L24.3133 6.72383L24.1461 6.93427L24.2297 7.14033L23.8515 6.89043L23.7283 7.35077L23.3501 7.60067V7.85057L23.0158 8.01718L22.8883 7.64013L23.0158 7.43407L22.8883 7.51737L22.8047 8.05662L22.6816 7.89002L22.1362 8.64414L22.3473 8.76686L22.0526 8.93342L22.1801 9.34998L21.8459 9.51654L21.4677 9.26662L21.7624 8.89398L21.6348 8.72742L20.7552 8.64414L21.0894 8.8107L21.6348 10.2268L21.0498 10.0164L20.7992 10.4767L20.6716 10.7705L20.6453 10.8757L20.7992 11.1037L21.0059 11.393H20.8827H20.4209L20.3373 11.5596L20.4209 11.3535L19.9635 11.2702L19.9195 11.5596L20.4209 11.7262L20.3373 12.1033L19.5017 11.8095L19.207 11.2702L19.2906 10.937L18.7497 10.8099L18.9168 10.6871L18.3714 10.3101L20.3373 10.5205L20.5045 10.2268L20.7156 9.72702L20.1834 9.32366L20.1702 9.31046L20.0866 9.22718L18.8728 8.8107L18.4989 8.85014L18.4153 9.1439L18.4549 8.8107L18.1647 8.85014L18.0811 8.64414H18.3318L18.0811 8.51694L17.914 8.8107L17.6589 8.64414L17.5357 8.8107L17.3246 8.6003L17.2411 8.51694H17.6193L17.7865 8.2671L17.285 8.05662L17.0739 8.35038L17.2015 8.01718L16.9904 7.93386L16.9068 8.35038L16.7837 8.43366V8.05662L16.5329 8.64414L16.6165 8.1399L16.3658 8.05662L16.1547 8.72742L15.7413 8.4687L15.7809 8.72742L15.8645 8.89398L15.6533 8.72742L15.3586 9.1439L15.3191 9.18334L15.3586 9.10006L15.4422 8.72742L15.3586 8.89398L15.2751 9.10006V8.85014L15.108 8.97734L15.2355 9.22718L14.9409 9.06062L14.8177 9.56038L14.523 9.64366L14.8573 9.72702H14.4834V10.0997L14.3998 9.8103L14.1888 9.93302L14.3559 10.0164H14.1052L14.3163 10.2268L13.9381 10.3934L14.1888 10.5161L13.6873 10.6038L13.8105 10.6871L13.5202 11.0598L13.8105 11.0203L13.3927 11.1431L13.5202 11.3097L13.3927 11.2264L13.186 11.6429H13.4367L12.9353 11.8533L13.186 11.8095L12.9353 11.9761L13.0584 12.1427L12.8517 12.226L12.8077 12.0199L12.3063 12.5636L12.557 12.6469L12.8913 12.3531L12.7241 12.7697L12.3899 12.8135L12.3503 12.603L12.0117 12.6863L11.9721 13.0633L11.7609 12.8968L11.9281 13.1467L11.5103 12.8968L11.8049 13.1029L11.2596 13.0633L11.4707 13.4361L11.3432 13.2694L11.2596 13.3965L11.0925 13.3133L11.176 13.4361L10.8417 13.2694V13.4361L11.3036 13.5632L10.8417 13.4799L10.7186 13.6465L10.9693 13.7693L10.6746 13.7297L10.8857 13.8131L10.7186 13.9797H11.1365L11.22 13.8525L11.3871 14.0629L11.5103 13.8525V14.0191L11.2596 14.2296L11.176 14.0191L10.635 13.9797L10.8021 14.1463H10.591L10.6746 14.3129L10.8417 14.2296L10.591 14.44L10.635 14.6066L10.8021 14.44L10.635 14.7732L11.22 14.4795L10.5075 14.9793L10.591 15.1458L10.9253 15.0231L10.635 15.273L10.8857 15.3563L10.7582 15.4791L10.5515 15.3125L10.5075 15.6062L10.8857 16.0621H11.3036L11.8445 15.4791L12.1392 15.5624L12.3063 15.0231L12.3371 15.7026H12.3283L12.3503 16.0665L12.5086 16.0315C12.5086 16.0315 12.4821 16.1618 12.4647 16.2463L12.4339 16.3559L12.5218 16.2244C12.5581 16.1706 12.5922 16.1148 12.5922 16.1148L12.4779 16.4743L12.4735 16.483L12.8033 17.259L12.6406 17.4081L12.601 17.4388V17.4432L12.6801 18.0657L13.1904 18.114L13.4323 17.6141L13.8633 17.6887L14.1931 16.8162L14.1756 16.6058L14.1712 16.5663L14.1492 16.1542L14.2107 16.1454H14.3163L14.1844 16.0797L14.0832 16.0227L14.1931 16.0008L14.523 15.9394L14.5362 15.8649L14.5758 15.7158L14.6505 15.9394L14.7605 15.8298L14.9453 15.6632L14.9321 15.6545L14.9409 15.6457L14.8441 15.5887L14.8265 15.5755H14.8221L14.7429 15.5185L14.7605 15.5053L14.7781 15.4966L14.8089 15.4747L15.0684 15.3125L14.8705 14.9968L14.8529 14.9661L14.7385 14.7732L14.4438 14.6855L14.6505 13.1993L14.7517 13.2869L14.8177 13.3527L15.3498 12.9012L15.3586 12.8924L15.5697 12.6863L15.5741 12.6732L15.8205 12.2698L15.8161 12.2611L15.7017 11.6999L15.7721 11.7437L15.7809 11.7481L15.8645 11.8095L15.8469 11.6561L15.8249 11.4412L15.8777 11.4719L16.0272 11.564V11.5596H16.0316L16.036 11.5289L16.0404 11.5157V11.5069L16.0844 11.3097L16.5725 11.3535L16.8672 11.8533L15.6973 13.3484L15.6929 13.3527L15.904 14.1901L15.8205 14.7732L16.1987 15.0231L16.2295 15.0012L16.2339 14.9968L16.2383 14.9924L16.3614 14.9135L16.3526 14.9924L16.3218 15.273L16.3306 15.2686L18.1207 14.5233L18.1647 14.7732L18.7497 14.9398L18.0371 15.1458L17.9975 15.3826V15.387L17.6193 15.3563L17.5445 15.3475H17.5401L17.2411 15.3125L16.6429 15.593L16.5197 15.6501L16.6517 16.2375L16.9508 16.2463L16.9068 16.9171L16.8013 17.0092L16.6737 17.0925L16.4801 16.8733L16.467 16.8557L16.2823 16.6058L15.948 16.7724L15.9172 16.8601L15.904 16.8864L15.8953 16.9127L15.6797 17.4388L15.7589 18.0263L15.7897 18.2192L15.8205 18.4822H15.5697L15.7589 18.0263L15.5697 18.3989L15.3586 18.4822V18.6927L15.5258 18.6489L15.3718 18.7716H15.3674H15.341L15.3366 18.7935L15.108 18.9425L15.3191 18.6927L14.9013 18.8593L14.567 18.5261L13.3091 18.9821L13.2695 19.2757L12.6845 18.6927L11.8445 18.8987L11.9721 18.6093H11.5938L11.3871 18.2323L11.5103 17.6887L12.0953 17.2722L11.8049 17.0661L12.0953 16.4392L11.3036 16.7329L10.9253 18.2323L11.0925 18.1929L11.176 18.4428L11.0089 18.5261L11.4267 19.1092L11.0089 18.8154L10.8857 19.1486L10.7186 18.8987H10.3844L10.4679 19.1486L9.87854 18.9425L9.6279 19.1092L9.75542 19.4424L9.5047 19.5651L9.37718 19.1092L8.95934 19.6923L9.17046 19.9027H8.6691L8.95934 20.1088L7.873 20.1526L7.78944 20.6085L7.62231 20.6524L6.95379 20.9417L6.28088 20.442V21.1917L5.7399 21.1084L5.65634 20.819H4.90425L5.11097 21.0689L4.90425 20.9856V21.3188L5.65634 21.7792L5.7399 22.485L5.9906 22.6954L5.82347 23.0681L5.86305 23.1558L5.27809 24.4053L2.93389 23.489L2.72717 23.1953L1.89153 23.3224L2.05865 23.9055L1.51328 25.1549L0.928325 25.8213H1.17902L0.967909 26.0713L1.22301 26.1984H1.13944L0.800781 26.9481L1.80796 27.198L2.1818 28.1976L2.8943 27.9916L3.98065 28.4081L4.44245 28.031L4.81629 28.0749L5.02741 27.6584L5.27809 27.575L5.44523 27.5312L5.36166 27.4085L5.23852 27.2418L5.36166 26.8648L5.48921 26.7815L6.11375 26.2379L7.24407 25.988V25.3654L7.49477 25.1111L7.873 25.0278L8.79222 25.5715L10.1293 24.9051L10.7582 25.3216L11.0529 26.365L13.186 28.0749L13.4367 28.8245L13.1024 29.3244L13.3091 29.4077L13.6038 28.864L13.9381 28.7413L13.6038 28.2809L13.8105 27.8644L14.2723 27.9477L14.523 28.2809L14.6065 28.0749L13.3531 27.1541L13.4762 26.9043L12.8077 26.7377L12.3503 25.7381L11.8049 25.2821L11.7609 24.4885L12.3899 24.322L12.4383 24.5193L12.5174 24.9709L12.8473 24.6596L13.4367 25.8609L13.8457 25.9397L14.2107 26.2598L14.2459 26.3387L14.7913 26.5886L15.1475 26.9876L14.976 27.9039L15.2795 28.259L15.3586 28.3642V28.3335L15.7149 28.8114L15.9304 28.7544L15.7545 28.8991L15.9304 29.1841L17.0168 29.2805L16.8585 29.3945L16.0712 29.2893L15.948 29.4865L16.2339 30.1529L16.4758 29.9995L16.6517 30.3897L16.7309 30.1266L17.0168 30.3371L16.7969 29.6619L17.1883 29.7321L16.92 29.4427L17.1971 29.3244L17.4477 29.5479L17.4653 29.2542L16.6605 28.864L16.8936 28.7369L16.876 28.5265L17.0607 28.5965L16.6605 27.8249L16.8409 27.7417L17.3466 28.1275L17.2411 27.8776L17.5621 27.9653L17.1971 27.6101L17.9096 27.4129L18.3801 27.5049V27.5005L18.7497 27.575L18.4549 27.9916L19.0839 27.3252L19.792 27.2418L19.2994 26.6588L19.0839 26.4001L18.9256 26.4396L19.4225 25.6898L19.4401 25.212L19.4577 24.7604L19.5325 24.8832L19.5413 24.9051L19.836 24.7385L19.7524 24.1115L19.8184 24.2431V24.2474L19.836 24.2781L19.8932 24.1685L20.1306 23.9055L20.2142 23.5723L20.7156 23.2785L20.9663 23.489L20.5045 23.5285L20.7552 23.5723L20.6716 23.695L21.5073 23.6117L21.5513 23.8222L21.0894 24.1949L21.3841 24.1115L21.5513 24.6552L21.8459 24.6946L22.9323 23.8222L22.4309 23.9888H22.1801L21.8855 23.695L22.1362 23.2391L22.0966 23.5285L22.4309 23.0681L23.7679 22.3184L23.6008 22.7788L23.2225 22.8621L23.5172 23.0725L23.3061 23.695L22.9323 23.9449L24.6871 24.6113L25.4832 24.8613L25.6723 25.1857H25.6943L26.0109 25.133L26.2749 25.1857L26.5212 25.0805L26.6795 25.0453L27.3172 25.0278L27.6163 25.1857H27.7922L28.0209 25.3435L28.5003 25.4662L28.6235 25.4312L28.7818 25.361L29.292 25.3435L29.6174 25.475L29.5427 25.0278L29.8769 24.6946H29.4151L28.2453 23.8617L27.9945 23.1514L27.9505 23.4057L27.4096 22.8621L27.4492 22.0685L27.9945 21.7792L28.0341 21.2355L28.6191 20.5691L28.7818 20.5121V20.3674L28.641 20.1921L28.4827 20.0517L28.4124 19.7493L28.3068 19.3459L27.6691 18.8023L27.5283 18.3595V18.1665L27.8274 17.886L28.0561 17.7281L28.2892 17.5353L28.6059 17.2897L29.0105 17.1494L29.38 17.0617L29.591 16.9346L29.9121 16.9171L30.0353 16.7768L30.1584 16.7417L30.2112 16.8645L30.4047 16.8995L30.5982 16.7593L30.6686 16.8469L30.6906 16.7285L30.5015 16.3559L30.6906 16.7241L30.7214 16.5488L30.8973 16.5839L31.1084 16.3734L31.2008 16.2507L31.0557 15.935L30.9677 15.8824L30.8621 16.0052L30.7214 15.935L30.563 16.0227L30.4927 15.9525L30.3344 15.935L30.3519 15.7772L29.8593 15.6369L29.6438 15.6193L29.5735 15.5492V15.4747L29.4327 15.3344L29.38 14.703L29.292 14.5803L29.0985 14.5628L28.9753 14.668L28.8345 14.9661L28.7114 15.1765H28.5707L28.5003 15.2292L27.8977 14.9485L27.7394 14.7908L27.7922 14.6153L28.2013 14.2296L28.3068 13.892L28.2013 13.664L28.0385 13.5938H27.7394L27.5635 13.4536L27.5283 13.0327L27.6163 12.7872L27.2645 11.8533L27.0357 11.2396L26.7718 10.7617L26.6267 10.6213V10.446L26.6619 10.3758L25.6415 8.96854L25.8526 8.12238L26.0109 7.19293L25.923 6.50461L25.835 6.452L25.2853 6.02236L24.9422 5.97413L25.0653 5.93029ZM23.2665 6.18019L23.3941 6.43009H23.4337H23.7679L23.7283 6.26349L23.6844 6.22403H23.6008L23.2665 6.18019ZM5.07138 7.68397L4.94384 8.10046L4.90425 7.76727L4.73273 8.05662L4.60958 7.85057L4.5656 8.05662L4.39847 7.93386L4.94384 8.38982H4.64916L4.77671 8.6003L4.23133 8.30654L4.60958 9.01678L4.10819 9.10006L4.48204 9.26662L4.64916 9.59982L4.81629 9.93302L5.36166 9.97686L5.9906 10.0164L6.49199 9.8103L6.40842 9.64366L6.61513 9.72702L6.57555 8.93342L6.82625 8.85014L6.53157 8.89398L6.49199 8.55638L6.28088 8.76686L5.94661 8.51694L5.77949 8.8107L5.82347 8.43366L5.52879 8.6003L5.48921 8.38982L5.44523 8.2671L4.98782 8.64414L5.23852 8.18374L5.07138 7.68397ZM21.8019 7.68397L21.7184 8.01718L21.9691 8.1399L22.1362 7.80673L21.8019 7.68397ZM23.2225 7.93386L23.0158 8.4731L23.6844 9.68318L24.1461 9.39382L24.2693 8.68358L24.1857 9.43326L23.6844 9.68318L22.9718 8.4731L23.2225 7.93386ZM24.8982 7.93386L24.9422 8.01718H24.9378L24.8982 7.93386ZM14.7737 8.97734L14.6065 9.31046L14.9013 9.06062L14.7737 8.97734ZM17.4082 8.97734L17.3246 9.34998H17.0344L17.4082 8.97734ZM14.2327 9.31046L14.0216 9.51654L14.1448 9.59982L14.2327 9.31046ZM14.3163 9.34998L14.1448 9.76646L14.3559 9.59982L14.3163 9.34998ZM18.5385 9.4771L18.6661 9.97686L18.4989 10.0997L18.5385 9.4771ZM16.8672 9.84974H17.3246L17.2411 10.0164L16.8672 9.84974ZM18.2878 10.8932L18.3714 11.1037L18.1647 11.0203L18.2878 10.8932ZM21.4281 11.7701L21.7624 12.1427L22.8487 12.4803V12.5197L21.7624 12.1427L21.4281 11.8095V11.7701ZM17.285 12.1033L17.7029 12.3531L17.3246 12.3137L17.285 12.1033ZM19.5017 12.226L19.88 12.4365H19.6689L19.7524 12.8135L19.5017 12.226ZM26.53 12.226L26.9873 12.7697L26.9038 13.0195L26.9785 13.0677L26.9873 13.0633L27.0401 13.1029L27.1149 13.1467L27.326 13.0633L27.1985 13.1861L27.4492 13.3965L27.0401 13.1029L26.9785 13.0677L26.7366 13.1467L26.9038 12.8968H26.6531L26.7366 12.603L26.53 12.226ZM19.3345 12.5197L19.5017 12.6863H19.2906L19.3345 12.5197ZM17.3686 12.7301L18.0811 13.4361L17.7425 13.23L17.7865 13.5632H18.2042L18.1647 13.2694L18.3714 13.3527V13.7473L18.345 13.7955L17.9536 14.1463L18.1339 14.1857L18.1251 14.1989L17.826 14.2734L17.6193 13.9797L17.87 14.0629L18.1207 13.8131L17.5753 13.4361L17.6589 13.1467L17.3686 12.7301ZM19.7128 12.8529L20.1306 13.0633L20.5045 13.8131L20.3813 14.0629L20.0471 14.0191L20.2538 13.8964L19.7524 13.5193L19.5413 13.1029L19.836 13.3965L19.6689 13.0195L19.9635 13.3527L20.0866 13.1861L19.7128 12.8529ZM17.1179 13.0633L17.2015 13.5193L17.2411 13.1861L17.4082 13.3527L17.285 13.1467L17.4917 13.23L17.1179 13.8131V14.2734L17.3686 14.1463L17.285 14.4795L16.9904 14.1463L17.1575 13.5632L17.1179 13.23L16.9508 13.1467L17.1179 13.0633ZM18.2042 13.6026L18.0371 13.6859L18.1647 13.8131L18.2482 13.6026H18.2042ZM16.4889 13.6859H16.8233V13.8964L16.5329 13.9797V14.2734L16.8233 13.9797L16.6165 14.3129L16.7837 14.4795L16.5329 14.2734V14.3129L16.4889 13.6859ZM18.7497 13.7693L19.5017 14.3567L19.0839 14.9398L18.4549 14.1463L18.7497 13.7693ZM27.1589 13.8131L27.2425 13.8964L26.9038 14.3567L27.1589 13.8131ZM21.0894 14.2296L21.173 14.3567L20.9223 14.3961L21.0894 14.2296ZM6.65912 14.4795L6.28088 14.7293L6.24129 14.8565L6.44801 14.8127L6.65912 14.4795ZM7.07694 14.5628L6.87023 15.0625L6.61513 14.9398L6.57555 15.4396L6.24129 15.5624L6.61513 15.7289L6.03018 16.483L6.32485 16.2332L6.57555 16.0665L6.61513 16.3165L6.49199 16.2332L6.15773 16.8557L6.19731 17.0223L6.24129 16.8995L6.90981 17.0223L6.57555 17.2722L6.65912 17.6054L6.82625 17.5221L6.57555 17.9429L6.7031 18.1096L6.11375 17.9825L5.82347 18.1929H6.11375L6.07417 18.4428L5.40565 18.6927L6.03018 19.2319L6.49199 19.1092L6.11375 19.3985L5.65634 19.2319L4.86028 19.7317L5.69592 19.9027L5.86305 19.6485L7.20449 20.0255L7.82902 19.9421L7.873 19.8194L7.45518 19.6089H7.70588L8.16326 19.1486L8.07974 18.8154L7.62231 18.6927H7.57832L7.70588 18.3157V18.2761L7.66189 18.1929L7.45518 18.1096L7.74545 18.149L7.78944 17.9429L7.45518 17.5221L7.4112 16.5663L6.87023 16.2332L7.32763 16.3165L7.07694 16.1498L7.4112 16.106L7.873 15.5624L6.99337 15.3125L7.70588 14.7732L7.07694 14.5628ZM21.4677 14.8565L21.2565 15.0231L21.4237 15.0625L21.8019 15.273L21.6788 15.6457L21.0894 15.3125L21.4677 15.3563L21.173 14.9793L21.4677 14.8565ZM6.32485 14.9793L6.36444 15.4396L6.44801 15.273L6.32485 14.9793ZM23.4337 15.273L23.4777 16.0665L23.2225 15.4791L23.4337 15.273ZM26.4024 15.3563L26.486 15.4791L26.6135 15.3563L25.901 16.2726V16.4392L25.8614 16.6891L26.0681 16.8557L26.3189 16.6058L26.2353 17.0661L26.5695 17.0223L26.2353 17.3161L26.3189 17.1494L25.8174 16.8162L25.901 16.106L25.7339 15.9394L25.1489 15.7289L24.6871 15.7728L24.3705 15.9964L24.1461 16.1893L24.1153 16.1805L24.1021 16.1893L23.6008 15.9833L24.1153 16.1805L24.3705 15.9964L24.6871 15.7289L25.1885 15.6895L25.7339 15.9394L25.8614 16.0227L25.8174 15.8122L26.0285 15.8956L26.4024 15.5624V15.3563ZM13.0584 15.4791L13.3927 15.5229L13.2695 15.8956L12.7241 16.106L12.8077 15.7289L13.0584 15.7728V15.4791ZM6.28088 15.6895L6.07417 15.8561H6.32485L6.28088 15.6895ZM17.9536 15.7289V16.106L17.7029 15.8122L17.9536 15.7289ZM16.1987 15.8122L16.0712 15.8561L16.1987 16.0227L16.4054 15.8956L16.1987 15.8122ZM19.207 15.8561L19.4181 16.0227L19.0839 16.0665L19.207 15.8561ZM29.8329 16.106L30.0837 16.2726L29.9165 16.4392L29.8329 16.106ZM15.9876 16.1498L16.0712 16.5225L16.4889 16.1498H15.9876ZM5.27809 16.2332L4.86028 16.4392L5.11097 16.5663L4.86028 16.7724L4.3149 16.5225L4.39847 16.8557L4.06421 16.9829L4.48204 17.3161L3.94106 17.5659L4.39847 17.6887L3.69037 17.6493L3.89708 17.8158L3.6068 17.8991L3.89708 18.0263L3.6068 18.0657L3.89708 18.1096L3.69037 18.2323L4.44245 18.2761L5.15495 18.3157L5.52879 17.1889L5.94661 17.0661L5.90703 16.483H5.44523L5.65634 16.3997L5.52879 16.2332L5.32208 16.4392L5.27809 16.2332ZM15.0244 16.5225L14.6901 16.7724L14.7341 17.1056L15.0244 16.5225ZM11.4707 16.7724L11.7609 16.8557L11.5103 16.8995L11.5542 17.1494L11.4707 16.939L11.2596 17.0661L11.4707 16.7724ZM12.557 17.5659L12.4339 17.8597L12.3503 17.6054L12.0117 17.7325L12.3063 18.5655V18.2761L12.6406 17.8991L12.557 17.5659ZM11.6774 17.8158L11.5938 18.0657L11.8885 18.149V17.8158H11.6774ZM25.901 18.3989L25.6503 18.8681L25.7295 19.2495L25.7383 19.2801L26.0681 19.5257L25.8174 19.7361V19.7756L25.7339 20.819L25.7779 19.7756L25.8174 19.4818L25.7383 19.2801L25.7339 19.2757L25.7295 19.2495L25.6107 18.9425L25.6503 18.8681V18.8593L25.901 18.3989ZM12.9749 18.6093L12.7681 18.7321L12.9749 18.8154V18.6093ZM23.2665 19.2319L23.3105 19.3153L23.3501 19.4424L23.3061 19.3153L23.2665 19.2319ZM26.7806 19.3591L26.6971 19.4029L26.5695 19.4424L26.6971 19.3985L26.7806 19.3591ZM25.1489 20.3587L25.3997 20.5253V20.8585L25.3161 21.5687L24.9378 21.7792L24.8982 21.4854H25.1489L25.0653 21.0689L25.2765 21.0251L25.3601 20.6524L25.1489 20.3587ZM20.1702 21.3188L20.0471 21.3626H19.7964L19.6689 21.4021L19.7964 21.3583H20.0471L20.1702 21.3188ZM6.87023 21.4021L6.78666 21.5687V21.652L6.74268 21.7353L6.78226 21.652V21.5687L6.87023 21.4021ZM19.5413 21.4021L19.4577 21.446H19.207L19.0839 21.4854L19.207 21.4416H19.4577L19.5413 21.4021ZM20.1702 21.4416L21.7184 22.029L21.9295 21.9019L22.0966 22.6516L21.5513 22.7788L21.4677 23.1514L21.0059 23.4013L21.3841 23.1514L21.4677 22.6954L21.9295 22.6121V22.1518L20.1702 21.4416ZM18.8332 21.4854L18.7497 21.5293H18.4989L18.3714 21.5687L18.4989 21.5249H18.7497L18.8332 21.4854ZM6.74268 21.8186L6.7031 21.9019V22.029L6.61513 22.1957L6.6987 22.029V21.9019L6.74268 21.8186ZM28.0781 25.0278L28.3684 25.1111L27.9945 25.1549L28.0781 25.0278ZM10.2964 25.8652L9.83894 26.1984L9.96214 26.7815L10.2964 26.4483V25.8652ZM10.0897 26.9481L9.5443 27.0753L9.5047 28.3248L10.1293 28.1976L10.2964 27.4479L10.0897 26.9481ZM7.03736 27.1585L6.57555 27.2813L6.82625 27.5312L7.12092 27.3646L7.03736 27.1585ZM17.0344 28.7413L16.8233 28.8245L17.6193 29.3244L17.4917 28.9517L17.0344 28.7413ZM15.6533 29.1183L15.5258 29.2849L15.7765 29.3244L15.6533 29.1183ZM13.1024 29.1577L11.4707 29.2016L11.5542 29.4909L12.7241 30.1179L13.1024 29.1577ZM17.285 30.8281V31.078L17.914 31.2008L18.6661 31.1175L18.7497 30.9114L18.4549 31.078L17.285 30.8281ZM12.4427 30.8325L12.491 30.9991L12.6626 31.0166L12.645 30.8501L12.4427 30.8325Z" fill="#0C0C0D" fill-opacity="0.88"/>
</svg>
